<svg width="36" height="36" viewBox="0 0 36 36" fill="none" xmlns="http://www.w3.org/2000/svg">
<path d="M4.77845 19.0389L4.10271 19.5294L4.14244 19.5842L4.19045 19.6318L4.77845 19.0389ZM15.258 12.2775L15.6359 11.5329L15.119 11.2705L14.6924 11.6632L15.258 12.2775ZM7.90905 13.5687L7.34348 12.9544L6.53975 13.6944L7.46477 14.2757L7.90905 13.5687ZM15.258 6.80262L14.6924 6.18832L14.6924 6.18832L15.258 6.80262ZM29.956 20.3348L29.3903 19.7205L29.3818 19.7285L29.956 20.3348ZM11.9509 30.5447L11.3716 31.146L11.3756 31.1499L11.9509 30.5447ZM5.09654 23.9416L4.51568 24.5415L4.51723 24.5429L5.09654 23.9416ZM5.09654 19.2327L5.6774 19.8326L5.68032 19.8297L5.09654 19.2327ZM9.93571 19.2327L9.35193 19.8297L9.35339 19.8312L9.93571 19.2327ZM16.7215 25.8358L16.1392 26.4342L16.1407 26.4357L16.7215 25.8358ZM16.7215 30.5447L17.2969 31.1499L17.3024 31.1445L16.7215 30.5447ZM14.3362 31.4902V30.6552V31.4902ZM28.3867 19.5812L28.9615 18.9755L28.9614 18.9754L28.3867 19.5812ZM28.3867 25.7256L28.9614 26.3314L28.9615 26.3313L28.3867 25.7256ZM23.1137 30.7278L23.6883 31.3338L23.6884 31.3336L23.1137 30.7278ZM19.8753 32V32.835V32ZM18.0701 4.18863C15.8736 3.19975 13.3945 2.9181 11.0139 3.38405L11.3347 5.02295C13.3792 4.62278 15.5065 4.86589 17.3845 5.71141L18.0701 4.18863ZM11.0139 3.38405C8.63309 3.85004 6.47343 5.04003 4.87382 6.78047L6.10339 7.91054C7.45331 6.44177 9.2904 5.42307 11.3347 5.02295L11.0139 3.38405ZM4.87382 6.78047C3.27334 8.52187 2.3235 10.7174 2.18313 13.0288L3.85006 13.13C3.96644 11.2135 4.75436 9.37835 6.10339 7.91054L4.87382 6.78047ZM2.18313 13.0288C2.04275 15.3404 2.7207 17.6255 4.10271 19.5294L5.45419 18.5484C4.29423 16.9504 3.73369 15.0463 3.85006 13.13L2.18313 13.0288ZM4.19045 19.6318L4.42591 19.8653L5.60189 18.6796L5.36644 18.4461L4.19045 19.6318ZM24.8896 11.6621C23.377 13.0494 21.1777 13.1095 19.1567 12.7078C18.1696 12.5116 17.2834 12.2158 16.6419 11.9673C16.3222 11.8435 16.0661 11.7326 15.8919 11.6536C15.8049 11.6142 15.7385 11.5828 15.695 11.5618C15.6733 11.5514 15.6573 11.5435 15.6473 11.5386C15.6424 11.5361 15.6389 11.5344 15.637 11.5334C15.636 11.533 15.6355 11.5327 15.6353 11.5326C15.6352 11.5325 15.6352 11.5325 15.6353 11.5326C15.6354 11.5326 15.6355 11.5327 15.6355 11.5327C15.6357 11.5328 15.6359 11.5329 15.258 12.2775C14.8801 13.0221 14.8803 13.0222 14.8806 13.0223C14.8808 13.0224 14.8811 13.0226 14.8813 13.0227C14.8818 13.0229 14.8824 13.0232 14.8831 13.0236C14.8845 13.0243 14.8864 13.0252 14.8886 13.0263C14.893 13.0286 14.899 13.0316 14.9066 13.0353C14.9217 13.0428 14.943 13.0532 14.9702 13.0663C15.0247 13.0926 15.1028 13.1295 15.2023 13.1746C15.4013 13.2648 15.6864 13.3881 16.0388 13.5246C16.7414 13.7967 17.7232 14.1255 18.8311 14.3457C21 14.7769 23.8987 14.837 26.0184 12.8929L24.8896 11.6621ZM14.6924 11.6632C12.9675 13.2514 11.3651 13.5057 10.2241 13.4082C9.63999 13.3583 9.15833 13.214 8.82577 13.0835C8.66008 13.0185 8.53348 12.9578 8.45215 12.9157C8.41155 12.8947 8.38247 12.8785 8.36568 12.8688C8.3573 12.864 8.35201 12.8608 8.34991 12.8596C8.34886 12.859 8.34861 12.8588 8.34918 12.8591C8.34946 12.8593 8.34995 12.8596 8.35064 12.8601C8.35099 12.8603 8.35138 12.8605 8.35183 12.8608C8.35206 12.8609 8.35243 12.8612 8.35254 12.8612C8.35293 12.8615 8.35333 12.8617 7.90905 13.5687C7.46477 14.2757 7.4652 14.276 7.46564 14.2763C7.46581 14.2764 7.46626 14.2767 7.46659 14.2769C7.46726 14.2773 7.46798 14.2777 7.46875 14.2782C7.4703 14.2792 7.47208 14.2803 7.47408 14.2815C7.47807 14.284 7.48295 14.2869 7.4887 14.2904C7.50021 14.2973 7.51523 14.3062 7.53366 14.3168C7.57051 14.338 7.62108 14.366 7.68458 14.3989C7.81142 14.4645 7.99074 14.5499 8.21599 14.6382C8.66531 14.8145 9.30563 15.0058 10.0819 15.0721C11.6617 15.2071 13.7338 14.8158 15.8236 12.8918L14.6924 11.6632ZM8.47462 14.183L15.8236 7.41691L14.6924 6.18832L7.34348 12.9544L8.47462 14.183ZM15.8236 7.41691C17.6118 5.77054 20.0508 4.835 22.607 4.835V3.165C19.6504 3.165 16.8024 4.24572 14.6924 6.18832L15.8236 7.41691ZM22.607 4.835C25.1632 4.835 27.6022 5.77054 29.3904 7.41691L30.5215 6.18832C28.4116 4.24572 25.5636 3.165 22.607 3.165V4.835ZM29.3904 7.41691C31.1763 9.06114 32.165 11.2757 32.165 13.5687L33.835 13.5687C33.835 10.7862 32.6338 8.13306 30.5215 6.18832L29.3904 7.41691ZM32.165 13.5687C32.165 15.8617 31.1763 18.0763 29.3904 19.7205L30.5215 20.9491C32.6338 19.0044 33.835 16.3513 33.835 13.5687L32.165 13.5687ZM29.3818 19.7285L28.891 20.1934L30.0392 21.406L30.5301 20.9411L29.3818 19.7285ZM12.5302 29.9433L5.67585 23.3402L4.51723 24.5429L11.3716 31.146L12.5302 29.9433ZM5.67739 23.3417C5.43765 23.1096 5.24868 22.8349 5.12016 22.534L3.5844 23.19C3.80106 23.6972 4.11794 24.1563 4.51568 24.5414L5.67739 23.3417ZM5.12016 22.534C4.99167 22.2332 4.92585 21.9115 4.92585 21.5872H3.25585C3.25585 22.1379 3.36771 22.6827 3.5844 23.19L5.12016 22.534ZM4.92585 21.5872C4.92585 21.2628 4.99167 20.9411 5.12016 20.6403L3.5844 19.9843C3.36771 20.4916 3.25585 21.0364 3.25585 21.5872H4.92585ZM5.12016 20.6403C5.24868 20.3394 5.43765 20.0647 5.67739 19.8326L4.51568 18.6329C4.11794 19.018 3.80106 19.4771 3.5844 19.9843L5.12016 20.6403ZM5.68032 19.8297C5.91891 19.5964 6.20375 19.4101 6.51906 19.2826L5.8929 17.7344C5.37775 17.9428 4.90853 18.2487 4.51275 18.6357L5.68032 19.8297ZM6.51906 19.2826C6.83441 19.155 7.17331 19.0891 7.5161 19.0891V17.4191C6.95956 17.4191 6.408 17.5261 5.8929 17.7344L6.51906 19.2826ZM7.5161 19.0891C7.85891 19.0891 8.19785 19.1551 8.51319 19.2826L9.13935 17.7344C8.62424 17.5261 8.07264 17.4191 7.5161 17.4191V19.0891ZM8.51319 19.2826C8.8285 19.4101 9.11334 19.5964 9.35193 19.8297L10.5195 18.6357C10.1237 18.2487 9.6545 17.9428 9.13935 17.7344L8.51319 19.2826ZM9.35339 19.8312L16.1392 26.4342L17.3039 25.2374L10.518 18.6343L9.35339 19.8312ZM16.1407 26.4357C16.3804 26.6678 16.5694 26.9425 16.6979 27.2434L18.2337 26.5874C18.017 26.0801 17.7001 25.6211 17.3024 25.2359L16.1407 26.4357ZM16.6979 27.2434C16.8264 27.5442 16.8922 27.8659 16.8922 28.1902H18.5622C18.5622 27.6395 18.4504 27.0947 18.2337 26.5874L16.6979 27.2434ZM16.8922 28.1902C16.8922 28.5146 16.8264 28.8363 16.6979 29.1371L18.2337 29.7931C18.4504 29.2858 18.5622 28.741 18.5622 28.1902H16.8922ZM16.6979 29.1371C16.5694 29.4379 16.3804 29.7127 16.1407 29.9448L17.3024 31.1445C17.7001 30.7594 18.017 30.3003 18.2337 29.7931L16.6979 29.1371ZM16.1463 29.9395C15.666 30.396 15.0167 30.6552 14.3362 30.6552V32.3252C15.4387 32.3252 16.5017 31.9057 17.2968 31.1499L16.1463 29.9395ZM14.3362 30.6552C13.6557 30.6552 13.0064 30.396 12.5262 29.9395L11.3756 31.1499C12.1708 31.9057 13.2337 32.3252 14.3362 32.3252V30.6552ZM21.5841 14.2788L27.812 20.187L28.9614 18.9754L22.7335 13.0673L21.5841 14.2788ZM27.8119 20.1868C28.5095 20.849 28.8927 21.7372 28.8927 22.6534H30.5627C30.5627 21.2652 29.9811 19.9432 28.9615 18.9755L27.8119 20.1868ZM28.8927 22.6534C28.8927 23.5696 28.5095 24.4578 27.8119 25.12L28.9615 26.3313C29.9811 25.3636 30.5627 24.0417 30.5627 22.6534H28.8927ZM27.812 25.1199L22.5391 30.1221L23.6884 31.3336L28.9614 26.3314L27.812 25.1199ZM22.5392 30.1219C21.8397 30.7852 20.8822 31.165 19.8753 31.165V32.835C21.2975 32.835 22.6697 32.2996 23.6883 31.3338L22.5392 30.1219ZM19.8753 31.165C18.8683 31.165 17.9108 30.7852 17.2113 30.1219L16.0622 31.3338C17.0808 32.2996 18.4531 32.835 19.8753 32.835V31.165Z" fill="#0033CC"/>
</svg>
