<svg width="36" height="36" viewBox="0 0 36 36" fill="none" xmlns="http://www.w3.org/2000/svg">
<path d="M28.1705 3V2.165H26.5005V3H28.1705ZM27.3355 7.09091H26.5005V7.92591H27.3355V7.09091ZM32.79 7.09091V7.92591H33.625V7.09091H32.79ZM33.625 3V2.165H31.955V3H33.625ZM30.0628 20.7273V21.5623H30.8978V20.7273H30.0628ZM30.8978 7.09091V6.25591H29.2278V7.09091H30.8978ZM15.8978 4.36364V3.52864H14.2278V4.36364H15.8978ZM9.60822 15.8014H8.77322V17.4714H9.60822V15.8014ZM12.3355 17.4714H13.1705V15.8014H12.3355V17.4714ZM17.79 15.8014H16.955V17.4714H17.79V15.8014ZM20.5173 17.4714H21.3523V15.8014H20.5173V17.4714ZM10.4432 9.73637V4.36364H8.77322V9.73637H10.4432ZM21.3523 9.73637V4.36364H19.6823V9.73637H21.3523ZM26.5005 20.7273C26.5005 27.0442 21.3796 32.165 15.0628 32.165V33.835C22.302 33.835 28.1705 27.9665 28.1705 20.7273H26.5005ZM15.0628 32.165C8.74588 32.165 3.62504 27.0442 3.62504 20.7273H1.95504C1.95504 27.9665 7.82357 33.835 15.0628 33.835V32.165ZM3.62504 20.7273C3.62504 14.4104 8.74588 9.28955 15.0628 9.28955V7.61955C7.82357 7.61955 1.95504 13.4881 1.95504 20.7273H3.62504ZM15.0628 9.28955C21.3796 9.28955 26.5005 14.4104 26.5005 20.7273H28.1705C28.1705 13.4881 22.302 7.61955 15.0628 7.61955V9.28955ZM26.5005 3V7.09091H28.1705V3H26.5005ZM27.3355 7.92591H32.79V6.25591H27.3355V7.92591ZM33.625 7.09091V3H31.955V7.09091H33.625ZM27.3355 21.5623H30.0628V19.8923H27.3355V21.5623ZM30.8978 20.7273V7.09091H29.2278V20.7273H30.8978ZM15.8978 8.45455V4.36364H14.2278V8.45455H15.8978ZM16.955 24.8182C16.955 25.8633 16.1078 26.7105 15.0628 26.7105V28.3805C17.0302 28.3805 18.625 26.7856 18.625 24.8182H16.955ZM15.0628 26.7105C14.0177 26.7105 13.1705 25.8633 13.1705 24.8182H11.5005C11.5005 26.7856 13.0954 28.3805 15.0628 28.3805V26.7105ZM13.1705 24.8182C13.1705 23.7731 14.0177 22.9259 15.0628 22.9259V21.2559C13.0954 21.2559 11.5005 22.8508 11.5005 24.8182H13.1705ZM15.0628 22.9259C16.1078 22.9259 16.955 23.7731 16.955 24.8182H18.625C18.625 22.8508 17.0302 21.2559 15.0628 21.2559V22.9259ZM9.60822 17.4714H12.3355V15.8014H9.60822V17.4714ZM17.79 17.4714H20.5173V15.8014H17.79V17.4714Z" fill="#0033CC"/>
</svg>
