<svg width="24" height="24" viewBox="0 0 24 24" fill="none" xmlns="http://www.w3.org/2000/svg">
<path d="M9.30005 19.1818V19.2727C9.30005 19.996 9.58451 20.6897 10.0909 21.2012C10.5972 21.7126 11.284 22 12 22C12.7161 22 13.4029 21.7126 13.9092 21.2012C14.4156 20.6897 14.7 19.996 14.7 19.2727V19.1818" stroke-width="1.67" stroke-miterlimit="10"/>
<path d="M18.3 11.0909V8.36363C18.3 6.67589 17.6362 5.05727 16.4548 3.86386C15.2733 2.67045 13.6709 2 12 2C10.3291 2 8.72671 2.67045 7.54523 3.86386C6.36375 5.05727 5.7 6.67589 5.7 8.36363V11.0909C5.7 14.0909 3 14.8182 3 16.5454C3 18.0909 6.51 19.2727 12 19.2727C17.49 19.2727 21 18.0909 21 16.5454C21 14.8182 18.3 14.0909 18.3 11.0909Z" stroke-width="1.67" stroke-miterlimit="10" stroke-linecap="square"/>
</svg>
