<svg width="36" height="36" viewBox="0 0 36 36" fill="none" xmlns="http://www.w3.org/2000/svg">
<path d="M4 24.8182L3.49175 24.1557L2.62818 24.8182L3.49175 25.4807L4 24.8182ZM27.9963 8.45455H27.1613V9.29045L27.9973 9.28955L27.9963 8.45455ZM17.3313 8.45455H16.4963L16.4963 8.46203L17.3313 8.45455ZM30.6626 33V33.835H31.4976V33H30.6626ZM9.33252 33H8.49752V33.835H9.33252V33ZM8.82427 20.0648L3.49175 24.1557L4.50825 25.4807L9.84077 21.3898L8.82427 20.0648ZM3.49175 25.4807L8.82427 29.5716L9.84077 28.2466L4.50825 24.1557L3.49175 25.4807ZM30.0809 16.992C31.0746 16.5094 31.8739 15.6972 32.3513 14.6931L30.8431 13.9761C30.5261 14.6429 29.9986 15.1754 29.3513 15.4898L30.0809 16.992ZM32.3513 14.6931C32.8286 13.6893 32.9571 12.5508 32.717 11.4639L31.0863 11.824C31.2466 12.5495 31.1603 13.3089 30.8431 13.9761L32.3513 14.6931ZM32.717 11.4639C32.4769 10.3767 31.8814 9.40191 31.0241 8.70179L29.9678 9.99525C30.5301 10.4545 30.9261 11.0987 31.0863 11.824L32.717 11.4639ZM31.0241 8.70179C30.1665 8.00135 29.0984 7.61835 27.9954 7.61955L27.9973 9.28955C28.7108 9.28877 29.4059 9.53633 29.9678 9.99525L31.0241 8.70179ZM28.8313 8.45455C28.8313 6.79248 28.186 5.19477 27.0316 4.01388L25.8374 5.18131C26.683 6.04627 27.1613 7.22334 27.1613 8.45455H28.8313ZM27.0316 4.01388C25.8765 2.83234 24.3057 2.165 22.6638 2.165V3.835C23.8505 3.835 24.9924 4.317 25.8374 5.18131L27.0316 4.01388ZM22.6638 2.165C21.0219 2.165 19.4512 2.83234 18.2961 4.01388L19.4902 5.18131C20.3352 4.317 21.4772 3.835 22.6638 3.835V2.165ZM18.2961 4.01388C17.1416 5.19477 16.4963 6.79248 16.4963 8.45455H18.1663C18.1663 7.22334 18.6446 6.04627 19.4902 5.18131L18.2961 4.01388ZM16.4963 8.46203C16.502 9.09617 16.5937 9.72661 16.7688 10.3354L18.3737 9.87369C18.2404 9.41047 18.1706 8.93033 18.1663 8.44707L16.4963 8.46203ZM19.1626 20.7273C19.1626 21.7903 18.325 22.6195 17.3313 22.6195V24.2895C19.2827 24.2895 20.8326 22.6768 20.8326 20.7273H19.1626ZM17.3313 22.6195C16.3376 22.6195 15.5 21.7903 15.5 20.7273H13.83C13.83 22.6768 15.3799 24.2895 17.3313 24.2895V22.6195ZM15.5 20.7273C15.5 19.6643 16.3376 18.835 17.3313 18.835V17.165C15.3799 17.165 13.83 18.7778 13.83 20.7273H15.5ZM17.3313 18.835C18.325 18.835 19.1626 19.6643 19.1626 20.7273H20.8326C20.8326 18.7778 19.2827 17.165 17.3313 17.165V18.835ZM30.6626 32.165H9.33252V33.835H30.6626V32.165ZM10.1675 33V20.7273H8.49752V33H10.1675ZM10.1675 20.7273C10.1675 18.0494 11.2077 15.485 13.0533 13.5971L11.8592 12.4297C9.70464 14.6335 8.49752 17.6186 8.49752 20.7273H10.1675ZM13.0533 13.5971C14.8983 11.7099 17.3966 10.6532 19.9976 10.6532V8.98318C16.9414 8.98318 14.0143 10.2252 11.8592 12.4297L13.0533 13.5971ZM19.9976 10.6532C22.5985 10.6532 25.0968 11.7099 26.9418 13.5971L28.136 12.4297C25.9808 10.2252 23.0537 8.98318 19.9976 8.98318V10.6532ZM26.9418 13.5971C28.7875 15.485 29.8276 18.0494 29.8276 20.7273H31.4976C31.4976 17.6186 30.2905 14.6335 28.136 12.4297L26.9418 13.5971ZM29.8276 20.7273V33H31.4976V20.7273H29.8276Z" fill="#0033CC"/>
</svg>
