<svg width="64" height="73" viewBox="0 0 64 73" fill="none" xmlns="http://www.w3.org/2000/svg">
<path d="M4.717 47.109C1.92404 43.3181 0 38.769 0 33.7145C0 28.0282 2.29643 22.9737 5.71005 19.0564C16.6957 6.42011 31.3432 -2.86757 48.4733 -5.71074C53.1283 -6.46892 58.0315 -5.77392 62.4381 -3.18348C66.8448 -0.593038 69.9481 3.3874 71.5618 7.87328C77.7063 24.3637 77.1477 41.9281 71.8721 57.913C70.2584 62.9044 67.0931 67.4534 62.2519 70.2966C57.9073 72.8239 53.0662 73.3293 48.4733 72.8239C33.081 71.2443 14.151 59.998 4.717 47.109Z" fill="#0033CC"/>
<path d="M27 35H45M45 35L38.7 29M45 35L38.7 41" stroke="white" stroke-width="1.67" stroke-linecap="round" stroke-linejoin="round"/>
</svg>
