<svg width="24" height="24" viewBox="0 0 24 24" fill="none" xmlns="http://www.w3.org/2000/svg">
<path d="M10.0083 5.26973L10.0083 5.26973L10.0068 5.26762C9.88707 5.10556 9.835 4.95297 9.835 4.8145C9.835 4.64525 9.90247 4.47623 10.0345 4.32509L10.0352 4.32435C10.7083 3.55206 11.5824 3.0099 12.5791 2.84452C12.7366 2.81916 12.8848 2.84413 13.0141 2.91992C13.1493 2.99922 13.2469 3.12165 13.2992 3.26647L13.2991 3.26649L13.3025 3.27539C13.6634 4.24154 13.6377 5.2887 13.314 6.2671L13.3124 6.27193C13.25 6.46451 13.1404 6.60435 13.0027 6.6856C12.8927 6.74894 12.7424 6.77883 12.5353 6.7561L12.5353 6.75607L12.5292 6.75545C12.1328 6.71488 11.6382 6.54039 11.1542 6.25572C10.6718 5.97202 10.262 5.61537 10.0083 5.26973Z" stroke-width="1.67"/>
<path d="M10.0083 20.2697L10.0083 20.2697L10.0068 20.2676C9.88707 20.1056 9.835 19.953 9.835 19.8145C9.835 19.6452 9.90247 19.4762 10.0345 19.3251L10.0352 19.3244C10.7083 18.5521 11.5824 18.0099 12.5791 17.8445C12.7366 17.8192 12.8848 17.8441 13.0141 17.9199C13.1493 17.9992 13.2469 18.1216 13.2992 18.2665L13.2991 18.2665L13.3025 18.2754C13.6634 19.2415 13.6377 20.2887 13.314 21.2671L13.3124 21.2719C13.25 21.4645 13.1404 21.6043 13.0027 21.6856C12.8927 21.7489 12.7424 21.7788 12.5353 21.7561L12.5353 21.7561L12.5292 21.7555C12.1328 21.7149 11.6382 21.5404 11.1542 21.2557C10.6718 20.972 10.262 20.6154 10.0083 20.2697Z"  stroke-width="1.67"/>
<path d="M2.00834 20.2697L2.00834 20.2697L2.00679 20.2676C1.88707 20.1056 1.835 19.953 1.835 19.8145C1.835 19.6452 1.90247 19.4762 2.03452 19.3251L2.03516 19.3244C2.70833 18.5521 3.58235 18.0099 4.57912 17.8445C4.73661 17.8192 4.8848 17.8441 5.01406 17.9199C5.14931 17.9992 5.24695 18.1216 5.29918 18.2665L5.29913 18.2665L5.30245 18.2754C5.66339 19.2415 5.63772 20.2887 5.31397 21.2671L5.31239 21.2719C5.24997 21.4645 5.14042 21.6043 5.00269 21.6856C4.89266 21.7489 4.74235 21.7788 4.53527 21.7561L4.53527 21.7561L4.52918 21.7555C4.1328 21.7149 3.63824 21.5404 3.15418 21.2557C2.67176 20.972 2.26199 20.6154 2.00834 20.2697Z" stroke-width="1.67"/>
<path d="M18.0083 20.2697L18.0083 20.2697L18.0068 20.2676C17.8871 20.1056 17.835 19.953 17.835 19.8145C17.835 19.6452 17.9025 19.4762 18.0345 19.3251L18.0352 19.3244C18.7083 18.5521 19.5824 18.0099 20.5791 17.8445C20.7366 17.8192 20.8848 17.8441 21.0141 17.9199C21.1493 17.9992 21.2469 18.1216 21.2992 18.2665L21.2991 18.2665L21.3025 18.2754C21.6634 19.2415 21.6377 20.2887 21.314 21.2671L21.3124 21.2719C21.25 21.4645 21.1404 21.6043 21.0027 21.6856C20.8927 21.7489 20.7424 21.7788 20.5353 21.7561L20.5353 21.7561L20.5292 21.7555C20.1328 21.7149 19.6382 21.5404 19.1542 21.2557C18.6718 20.972 18.262 20.6154 18.0083 20.2697Z" stroke-width="1.67"/>
<path d="M12 9.99998V14" stroke-width="1.67" stroke-miterlimit="10" stroke-linecap="square"/>
<path d="M4 14V12H20V14"  stroke-width="1.67" stroke-miterlimit="10" stroke-linecap="square"/>
</svg>
