<svg width="36" height="36" viewBox="0 0 36 36" fill="none" xmlns="http://www.w3.org/2000/svg">
<path d="M18 3L18.4474 2.29499L18 2.01105L17.5526 2.29499L18 3ZM18 33L17.6711 33.7675L18 33.9085L18.3289 33.7675L18 33ZM3 7.5L2.98545 6.66513L2.165 6.67943V7.5H3ZM33 7.5H33.835V6.67943L33.0146 6.66513L33 7.5ZM17.165 3V33H18.835V3H17.165ZM31.3502 17.165H4.65024V18.835H31.3502V17.165ZM17.5526 2.29499C13.1909 5.06301 8.15055 6.57511 2.98545 6.66513L3.01455 8.33487C8.48662 8.23951 13.8265 6.63755 18.4474 3.70501L17.5526 2.29499ZM2.165 7.5C2.165 18.2112 6.76508 29.0935 17.6711 33.7675L18.3289 32.2325C8.23492 27.9065 3.835 17.7888 3.835 7.5H2.165ZM18.3289 33.7675C29.2349 29.0935 33.835 18.2112 33.835 7.5H32.165C32.165 17.7888 27.7651 27.9065 17.6711 32.2325L18.3289 33.7675ZM33.0146 6.66513C27.8494 6.57511 22.8091 5.06301 18.4474 2.29499L17.5526 3.70501C22.1735 6.63755 27.5134 8.23951 32.9855 8.33487L33.0146 6.66513Z" fill="#0033CC"/>
</svg>
