<svg width="36" height="36" viewBox="0 0 36 36" fill="none" xmlns="http://www.w3.org/2000/svg">
<path d="M28.2 8.48248C27.0805 6.7967 25.5607 5.41384 23.7762 4.45723C21.9917 3.50063 19.9979 3 17.9727 3C15.9475 3 13.9537 3.50063 12.1692 4.45723C10.3847 5.41384 8.86492 6.7967 7.74543 8.48248M7.34992 20.9183C10.2954 26.857 16.3772 33 17.9999 33C19.6226 33 25.7045 26.857 28.6499 20.9183M7.09094 20.7413C5.64431 21.825 4.68792 23.4384 4.43219 25.2264C4.17646 27.0145 4.64233 28.8308 5.72731 30.2758C6.41663 29.3502 7.33007 28.6146 8.38194 28.1381C9.43381 27.6616 10.5896 27.4598 11.7409 27.5517M28.909 20.7413C30.3557 21.825 31.3121 23.4384 31.5678 25.2264C31.8235 27.0145 31.3577 28.8308 30.2727 30.2758C29.5834 29.3502 28.6699 28.6146 27.6181 28.1381C26.5662 27.6616 25.4104 27.4598 24.259 27.5517M15.4364 20.6187C14.4329 21.4191 13.2236 21.9201 11.9476 22.0642C10.6716 22.2082 9.38078 21.9894 8.22379 21.4329C7.0668 20.8764 6.09068 20.0049 5.40777 18.9186C4.72487 17.8324 4.36294 16.5756 4.36368 15.2929C4.3538 14.3568 4.53957 13.429 4.90912 12.5688M20.5636 20.6187C21.5671 21.4191 22.7764 21.9201 24.0524 22.0642C25.3285 22.2082 26.6193 21.9894 27.7763 21.4329C28.9332 20.8764 29.9094 20.0049 30.5923 18.9186C31.2752 17.8324 31.6371 16.5756 31.6364 15.2929C31.6462 14.3568 31.4605 13.429 31.0909 12.5688M18 13.9308H8.45455C7.00791 13.9308 5.62052 13.3568 4.5976 12.3351C3.57467 11.3133 3 9.92749 3 8.4825H12.5455C13.9921 8.4825 15.3795 9.05652 16.4024 10.0783C17.4253 11.1 18 12.4858 18 13.9308ZM18 13.9308C16.5 13.9308 15.2727 17.8809 15.2727 19.3792C15.2727 20.8775 16.5 24.8275 18 24.8275C19.5 24.8275 20.7273 20.8775 20.7273 19.3792C20.7273 17.8809 19.5 13.9308 18 13.9308ZM18 13.9308H27.5455C28.9921 13.9308 30.3795 13.3568 31.4024 12.3351C32.4253 11.3133 33 9.92749 33 8.4825H23.4545C22.0079 8.4825 20.6205 9.05652 19.5976 10.0783C18.5747 11.1 18 12.4858 18 13.9308ZM12.5455 15.2929C12.5455 16.0452 11.9349 16.655 11.1818 16.655C10.4287 16.655 9.81818 16.0452 9.81818 15.2929C9.81818 14.5407 10.4287 13.9308 11.1818 13.9308C11.9349 13.9308 12.5455 14.5407 12.5455 15.2929ZM26.1818 15.2929C26.1818 16.0452 25.5713 16.655 24.8182 16.655C24.0651 16.655 23.4545 16.0452 23.4545 15.2929C23.4545 14.5407 24.0651 13.9308 24.8182 13.9308C25.5713 13.9308 26.1818 14.5407 26.1818 15.2929Z" stroke="#0033CC" stroke-width="1.67" stroke-linecap="round" stroke-linejoin="round"/>
</svg>
