<svg width="36" height="36" viewBox="0 0 36 36" fill="none" xmlns="http://www.w3.org/2000/svg">
<path d="M5.56364 14.1409L9.81818 8.8091M30.4363 14.1409L26.1818 8.8091M5.56364 25.95L9.80455 31.2818M26.1954 31.2818L30.45 25.95M18 20.7273V22.0909M11.1818 9.81819L8.45455 7.77274C7.73124 7.23025 6.82204 6.99732 5.92698 7.12518C5.03192 7.25305 4.22432 7.73124 3.68183 8.45456C3.13934 9.17787 2.90641 10.0871 3.03428 10.9821C3.16214 11.8772 3.64033 12.6848 4.36365 13.2273L9.81819 17.4V22.6909L4.36365 26.8636C3.64033 27.4061 3.16214 28.2137 3.03428 29.1088C2.90641 30.0038 3.13934 30.913 3.68183 31.6364C4.22432 32.3597 5.03192 32.8379 5.92698 32.9657C6.82204 33.0936 7.73124 32.8607 8.45455 32.3182L13.0364 28.8136C14.4623 27.7254 16.2063 27.136 18 27.136C19.7937 27.136 21.5377 27.7254 22.9636 28.8136L27.5454 32.3182C27.9036 32.5868 28.3111 32.7822 28.7448 32.8933C29.1785 33.0044 29.6298 33.029 30.073 32.9657C30.5162 32.9024 30.9426 32.7524 31.3278 32.5243C31.713 32.2962 32.0496 31.9945 32.3182 31.6364C32.5868 31.2782 32.7822 30.8707 32.8933 30.437C33.0044 30.0033 33.029 29.552 32.9657 29.1088C32.9024 28.6656 32.7524 28.2392 32.5243 27.854C32.2962 27.4688 31.9945 27.1322 31.6364 26.8636L26.1818 22.6909V17.4L31.6364 13.2273C32.3597 12.6848 32.8379 11.8772 32.9657 10.9821C33.0936 10.0871 32.8607 9.17787 32.3182 8.45456C31.7757 7.73124 30.9681 7.25305 30.073 7.12518C29.178 6.99732 28.2688 7.23025 27.5454 7.77274L24.8182 9.81819M11.1818 9.81819C11.1818 13.5838 14.2344 16.6364 18 16.6364C21.7656 16.6364 24.8182 13.5838 24.8182 9.81819M11.1818 9.81819C11.1818 6.05262 14.2344 3 18 3C21.7656 3 24.8182 6.05262 24.8182 9.81819" stroke="#0033CC" stroke-width="1.67" stroke-linecap="round" stroke-linejoin="round"/>
</svg>
