<svg width="31" height="32" viewBox="0 0 31 32" fill="none" xmlns="http://www.w3.org/2000/svg">
<path d="M2.59141 23.8033C1.30782 22.4262 0.314851 20.6803 0.0726632 18.6393C-0.193743 16.3525 0.508601 14.2131 1.69532 12.4672C5.52188 6.86066 10.9953 2.43443 17.7281 0.442625C19.5688 -0.0983585 21.5789 -0.0491782 23.468 0.786887C25.357 1.59836 26.7859 3.04918 27.6578 4.77049C30.8789 11.0902 31.4844 18.1721 30.1281 24.8361C29.7164 26.9262 28.6508 28.8934 26.8344 30.2705C25.2117 31.5 23.2984 31.9426 21.4094 31.9672C15.1367 32.0902 7.02344 28.5 2.59141 23.8033Z" fill="#00C3FF"/>
<path d="M2.42183 21.8852C1.33199 20.4098 0.581207 18.6393 0.581207 16.6721C0.581207 14.459 1.4773 12.4918 2.80933 10.9672C7.09605 6.04918 12.8117 2.43443 19.4961 1.32787C21.3125 1.03279 23.2257 1.30328 24.9453 2.31148C26.6648 3.31968 27.8757 4.86886 28.5054 6.61476C30.9031 13.0328 30.6851 19.8689 28.6265 26.0902C27.9968 28.0328 26.7617 29.8033 24.8726 30.9098C23.1773 31.8934 21.2882 32.0902 19.4961 31.8934C13.4898 31.2787 6.10308 26.9016 2.42183 21.8852Z" fill="#0E0E2B"/>
<path d="M24.5094 18.3689L26.6164 16.9426L26.2773 16.4016L16.832 22.8197L17.1711 23.3607L23.9281 18.7869L19.4719 23.5082L19.932 23.9508L21.3609 22.4016L19.7141 26.0656L20.2711 26.3361L22.1117 22.3033L21.6758 22.1066L24.8484 18.6885L24.5094 18.3689Z" fill="#00C3FF"/>
<path d="M21.4578 15.8115H22.9351L23.2984 14.459H21.8211L22.5476 11.7049H21.0461L19.5929 17.1885H16.2508C14.8703 17.1885 14.507 16.3279 14.725 15.1475C14.9429 13.9672 15.9844 13.0082 17.0015 12.9836C17.825 12.9836 18.2367 13.4754 18.2367 14.041C18.2367 14.1885 18.2125 14.3607 18.1883 14.4344H16.3234L15.9601 15.7869H19.3508C19.5203 15.3197 19.6656 14.7049 19.6656 14.2377C19.6656 12.8115 18.7453 11.6803 17.0742 11.6803C14.8219 11.6803 13.2719 13.7213 13.2719 15.6639C13.2719 17.4344 14.4101 18.541 16.2023 18.541C16.2265 18.541 16.2265 18.541 16.2508 18.541H19.2539C18.9875 19.5246 19.5929 20.3361 20.5375 20.3607H21.7726L22.1359 18.9836H21.0703C20.8523 18.959 20.707 18.7623 20.7797 18.541L21.4578 15.8115Z" fill="white"/>
<path d="M12.618 9.88525H12.5453H11.0437L10.6805 11.2623H12.182L10.8015 16.4508C10.632 16.9426 10.2445 17.2377 9.66326 17.1885H9.10623L8.74295 18.5656H9.27576C10.0023 18.5902 10.8258 18.5164 11.4555 17.8771L11.4797 17.8525C11.843 17.4836 12.1578 17.0164 12.3031 16.4262L14.0226 9.88525H12.618Z" fill="white"/>
</svg>
