<svg width="36" height="36" viewBox="0 0 36 36" fill="none" xmlns="http://www.w3.org/2000/svg">
<path d="M19.3104 27.3998V28.2348H19.818L20.0517 27.7842L19.3104 27.3998ZM16.6623 27.3998L15.9203 27.7826L16.1535 28.2348H16.6623V27.3998ZM3 32.9998H2.165V33.8348H3V32.9998ZM33 32.9998V33.8348H33.835V32.9998H33ZM21.4128 9.3996L22.1698 9.04736L21.4019 7.39679L20.6519 9.05561L21.4128 9.3996ZM18.0001 23.4002V24.2352V23.4002ZM18.0001 3V3.835V3ZM21.0584 22.2154L18.5692 27.0154L20.0517 27.7842L22.5409 22.9842L21.0584 22.2154ZM19.3104 26.5648H16.6623V28.2348H19.3104V26.5648ZM17.4044 27.0171L14.9417 22.2426L13.4576 23.0082L15.9203 27.7826L17.4044 27.0171ZM13.5273 21.3647H12.5455V23.0347H13.5273V21.3647ZM12.5455 21.3647C9.79507 21.3647 7.15569 22.4463 5.20835 24.3742L6.38328 25.561C8.01618 23.9444 10.2326 23.0347 12.5455 23.0347V21.3647ZM5.20835 24.3742C3.26073 26.3024 2.165 28.9193 2.165 31.6498H3.835C3.835 29.3677 4.75066 27.1773 6.38328 25.561L5.20835 24.3742ZM2.165 31.6498V32.9998H3.835V31.6498H2.165ZM3 33.8348H33V32.1648H3V33.8348ZM33.835 32.9998V31.6498H32.165V32.9998H33.835ZM33.835 31.6498C33.835 28.9193 32.7393 26.3024 30.7917 24.3742L29.6167 25.561C31.2493 27.1773 32.165 29.3677 32.165 31.6498H33.835ZM30.7917 24.3742C28.8443 22.4463 26.2049 21.3647 23.4545 21.3647V23.0347C25.7674 23.0347 27.9838 23.9444 29.6167 25.561L30.7917 24.3742ZM23.4545 21.3647H22.4727V23.0347H23.4545V21.3647ZM9.27341 12.7601C10.2653 13.5663 11.4306 14.1346 12.6789 14.4213L13.0528 12.7937C12.0526 12.564 11.1198 12.1089 10.3267 11.4642L9.27341 12.7601ZM12.6789 14.4213C13.9271 14.7081 15.2252 14.7057 16.4723 14.4144L16.0925 12.7881C15.0931 13.0216 14.0529 13.0235 13.0528 12.7937L12.6789 14.4213ZM16.4723 14.4144C17.7195 14.123 18.8828 13.5505 19.8716 12.7406L18.8135 11.4486C18.0228 12.0962 17.0917 12.5547 16.0925 12.7881L16.4723 14.4144ZM19.8716 12.7406C20.8605 11.9308 21.6484 10.9053 22.1736 9.74359L20.6519 9.05561C20.233 9.98214 19.6041 10.8011 18.8135 11.4486L19.8716 12.7406ZM20.6557 9.75184C21.1625 10.8411 21.9001 11.8086 22.8177 12.5885L23.8992 11.316C23.1645 10.6915 22.5747 9.91756 22.1698 9.04736L20.6557 9.75184ZM22.8177 12.5885C23.7353 13.3684 24.8113 13.9424 25.9722 14.2718L26.428 12.6652C25.4965 12.4009 24.634 11.9405 23.8992 11.316L22.8177 12.5885ZM18.0001 22.5652C16.0454 22.5652 14.1717 21.7925 12.7908 20.4183L11.6128 21.602C13.3075 23.2885 15.6052 24.2352 18.0001 24.2352V22.5652ZM12.7908 20.4183C11.41 19.0443 10.6351 17.1815 10.6351 15.2401H8.96508C8.96508 17.6271 9.91797 19.9155 11.6128 21.602L12.7908 20.4183ZM10.6351 15.2401V11.1601H8.96508V15.2401H10.6351ZM10.6351 11.1601C10.6351 9.21866 11.41 7.35593 12.7908 5.9819L11.6128 4.79815C9.91797 6.48474 8.96508 8.77312 8.96508 11.1601H10.6351ZM12.7908 5.9819C14.1717 4.60773 16.0454 3.835 18.0001 3.835V2.165C15.6052 2.165 13.3075 3.1117 11.6128 4.79815L12.7908 5.9819ZM18.0001 3.835C19.9547 3.835 21.8285 4.60773 23.2094 5.9819L24.3874 4.79815C22.6927 3.1117 20.395 2.165 18.0001 2.165V3.835ZM23.2094 5.9819C24.5901 7.35593 25.3651 9.21866 25.3651 11.1601H27.0351C27.0351 8.77312 26.0822 6.48474 24.3874 4.79815L23.2094 5.9819ZM25.3651 11.1601V15.2401H27.0351V11.1601H25.3651ZM25.3651 15.2401C25.3651 17.1815 24.5901 19.0443 23.2094 20.4183L24.3874 21.602C26.0822 19.9155 27.0351 17.6271 27.0351 15.2401H25.3651ZM23.2094 20.4183C21.8285 21.7925 19.9547 22.5652 18.0001 22.5652V24.2352C20.395 24.2352 22.6927 23.2885 24.3874 21.602L23.2094 20.4183ZM14.5469 33.3734L17.3469 27.7734L15.8532 27.0265L13.0532 32.6266L14.5469 33.3734ZM18.653 27.7734L21.453 33.3734L22.9467 32.6266L20.1467 27.0265L18.653 27.7734Z" fill="#0033CC"/>
</svg>
