<svg width="36" height="36" viewBox="0 0 36 36" fill="none" xmlns="http://www.w3.org/2000/svg">
<path d="M20.0349 15.481L24.0849 22.366L25.5243 21.5192L21.4743 14.6343L20.0349 15.481ZM11.9433 22.3649L15.9796 15.4799L14.539 14.6353L10.5026 21.5203L11.9433 22.3649ZM22.0909 25.765H13.9091V27.4349H22.0909V25.765ZM13.0741 26.6C13.0741 29.1132 11.0138 31.1649 8.45455 31.1649V32.8349C11.9202 32.8349 14.7441 30.0514 14.7441 26.6H13.0741ZM8.45455 31.1649C5.89531 31.1649 3.835 29.1132 3.835 26.5999H2.165C2.165 30.0513 4.98886 32.8349 8.45455 32.8349V31.1649ZM3.835 26.5999C3.835 24.0866 5.89531 22.0349 8.45455 22.0349V20.3649C4.98886 20.3649 2.165 23.1485 2.165 26.5999H3.835ZM8.45455 22.0349C11.0138 22.0349 13.0741 24.0867 13.0741 26.6H14.7441C14.7441 23.1486 11.9202 20.3649 8.45455 20.3649V22.0349ZM32.165 26.5999C32.165 29.1132 30.1047 31.1649 27.5454 31.1649V32.8349C31.0111 32.8349 33.835 30.0513 33.835 26.5999H32.165ZM27.5454 31.1649C24.9862 31.1649 22.9259 29.1132 22.9259 26.6H21.2559C21.2559 30.0513 24.0798 32.8349 27.5454 32.8349V31.1649ZM22.9259 26.6C22.9259 24.0866 24.9862 22.0349 27.5454 22.0349V20.3649C24.0797 20.3649 21.2559 23.1486 21.2559 26.6H22.9259ZM27.5454 22.0349C30.1047 22.0349 32.165 24.0866 32.165 26.5999H33.835C33.835 23.1485 31.0111 20.3649 27.5454 20.3649V22.0349ZM22.6195 10.4C22.6195 12.9133 20.5592 14.965 17.9999 14.965V16.635C21.4656 16.635 24.2895 13.8514 24.2895 10.4H22.6195ZM17.9999 14.965C15.4407 14.965 13.3804 12.9133 13.3804 10.4H11.7104C11.7104 13.8514 14.5342 16.635 17.9999 16.635V14.965ZM13.3804 10.4C13.3804 7.88671 15.4407 5.835 17.9999 5.835V4.165C14.5342 4.165 11.7104 6.94861 11.7104 10.4H13.3804ZM17.9999 5.835C20.5592 5.835 22.6195 7.88671 22.6195 10.4H24.2895C24.2895 6.94861 21.4656 4.165 17.9999 4.165V5.835Z" fill="#0033CC"/>
</svg>
