<svg width="36" height="36" viewBox="0 0 36 36" fill="none" xmlns="http://www.w3.org/2000/svg">
<path d="M4.56505 19.1911C4.56505 19.6522 4.93889 20.0261 5.40005 20.0261C5.86121 20.0261 6.23505 19.6522 6.23505 19.1911H4.56505ZM26.1649 14.0945C26.1649 14.5557 26.5388 14.9295 26.9999 14.9295C27.4611 14.9295 27.8349 14.5557 27.8349 14.0945H26.1649ZM17.3999 24.8224C17.8611 24.8224 18.2349 24.4486 18.2349 23.9874C18.2349 23.5262 17.8611 23.1524 17.3999 23.1524V24.8224ZM3 23.9874V23.1524H2.165V23.9874H3ZM17.3999 28.42C17.8611 28.42 18.2349 28.0461 18.2349 27.585C18.2349 27.1238 17.8611 26.75 17.3999 26.75V28.42ZM31.8 20.881L32.635 20.881L32.635 20.046H31.8V20.881ZM20.4 29.3036H21.235H20.4ZM31.8 31V31.835H32.635L32.635 31L31.8 31ZM28.2649 20.881V21.716H29.9349V20.881H28.2649ZM29.0999 18.5H29.9349V17.665H29.0999V18.5ZM33 26.835H33.835V25.165H33V26.835ZM30 25.165H29.165V26.835H30V25.165ZM6.23505 19.1911V7.19919H4.56505V19.1911H6.23505ZM6.23505 7.19919C6.23505 7.10281 6.27336 7.01023 6.34177 6.94187L5.1613 5.7606C4.77962 6.14202 4.56505 6.65948 4.56505 7.19919H6.23505ZM6.34177 6.94187C6.41019 6.8735 6.50307 6.835 6.60004 6.835V5.165C6.0605 5.165 5.54297 5.37919 5.1613 5.7606L6.34177 6.94187ZM6.60004 6.835H25.7999V5.165H6.60004V6.835ZM25.7999 6.835C25.8969 6.835 25.9898 6.8735 26.0582 6.94187L27.2387 5.7606C26.857 5.37919 26.3395 5.165 25.7999 5.165V6.835ZM26.0582 6.94187C26.1266 7.01023 26.1649 7.10281 26.1649 7.19919H27.8349C27.8349 6.65948 27.6203 6.14202 27.2387 5.7606L26.0582 6.94187ZM26.1649 7.19919V14.0945H27.8349V7.19919H26.1649ZM17.3999 23.1524H3V24.8224H17.3999V23.1524ZM2.165 23.9874C2.165 25.1632 2.63241 26.2907 3.46419 27.1219L4.64466 25.9406C4.12618 25.4225 3.835 24.7199 3.835 23.9874H2.165ZM3.46419 27.1219C4.29595 27.9531 5.42393 28.42 6.59998 28.42V26.75C5.86648 26.75 5.16315 26.4588 4.64466 25.9406L3.46419 27.1219ZM6.59998 28.42H17.3999V26.75H6.59998V28.42ZM32.6349 26C32.6349 25.2445 32.6349 23.9648 32.6349 22.8739C32.635 22.3284 32.635 21.8302 32.635 21.4683C32.635 21.2874 32.635 21.1406 32.635 21.039C32.635 20.9881 32.635 20.9487 32.635 20.9219C32.635 20.9085 32.635 20.8982 32.635 20.8914C32.635 20.8879 32.635 20.8853 32.635 20.8836C32.635 20.8827 32.635 20.8821 32.635 20.8816C32.635 20.8814 32.635 20.8812 32.635 20.8811C32.635 20.8811 32.635 20.881 32.635 20.881C32.635 20.881 32.635 20.881 31.8 20.881C30.965 20.8809 30.965 20.8809 30.965 20.881C30.965 20.881 30.965 20.881 30.965 20.8811C30.965 20.8812 30.965 20.8814 30.965 20.8816C30.965 20.882 30.965 20.8827 30.965 20.8836C30.965 20.8853 30.965 20.8879 30.965 20.8913C30.965 20.8982 30.965 20.9084 30.965 20.9218C30.965 20.9486 30.965 20.9881 30.965 21.0389C30.965 21.1405 30.965 21.2874 30.965 21.4683C30.965 21.8302 30.965 22.3284 30.9649 22.8739C30.9649 23.9647 30.9649 25.2445 30.9649 26H32.6349ZM31.8 20.046H21.6V21.716H31.8V20.046ZM21.6 20.046C21.6039 20.046 21.563 20.0441 21.4878 20.0089C21.416 19.9753 21.3558 19.931 21.322 19.8974L20.1458 21.083C20.4733 21.4079 21.0237 21.716 21.6 21.716V20.046ZM21.322 19.8974C21.2655 19.8414 21.235 19.7668 21.235 19.6905H19.565C19.565 20.214 19.7747 20.7148 20.1458 21.083L21.322 19.8974ZM19.565 19.6905V29.3036H21.235V19.6905H19.565ZM19.565 29.3036C19.565 29.9771 19.8347 30.6217 20.3128 31.0959L21.4889 29.9103C21.3255 29.7483 21.235 29.5299 21.235 29.3036H19.565ZM20.3128 31.0959C20.7905 31.5699 21.4371 31.835 22.11 31.835V30.165C21.8758 30.165 21.6525 30.0726 21.4889 29.9103L20.3128 31.0959ZM22.11 31.835H31.8V30.165H22.11V31.835ZM32.635 31L32.6349 26L30.9649 26L30.965 31L32.635 31ZM29.9349 20.881V18.5H28.2649V20.881H29.9349ZM29.0999 17.665H21.56V19.335H29.0999V17.665ZM21.56 17.665C21.0218 17.665 20.5114 17.8863 20.1396 18.2707L21.3399 19.4318C21.4031 19.3664 21.4829 19.335 21.56 19.335V17.665ZM20.1396 18.2707C19.7687 18.6541 19.565 19.1685 19.565 19.6992H21.235C21.235 19.5938 21.2757 19.4981 21.3399 19.4318L20.1396 18.2707ZM19.565 19.6992C19.565 20.2299 19.7687 20.7442 20.1396 21.1277L21.3399 19.9666C21.2757 19.9003 21.235 19.8046 21.235 19.6992H19.565ZM20.1396 21.1277C20.5528 21.5548 21.1355 21.716 21.6 21.716V20.046C21.5467 20.046 21.4837 20.0355 21.4273 20.0148C21.3703 19.9938 21.3448 19.9717 21.3399 19.9666L20.1396 21.1277ZM31.7999 26.835H33V25.165H31.7999V26.835ZM30 26.835H31.7999V25.165H30V26.835Z" fill="#0033CC"/>
</svg>
