<svg width="24" height="24" viewBox="0 0 24 24" fill="none" xmlns="http://www.w3.org/2000/svg">
<path d="M9.04382 4.85599L9.04593 4.85446C9.89877 4.23397 10.8823 3.835 11.9457 3.835C13.1554 3.835 14.2474 4.31644 15.112 5.06043L15.1127 5.06106C18.1883 7.70151 20.4205 11.1965 21.1031 15.2555C21.2657 16.243 21.1151 17.2658 20.5695 18.1824C20.0198 19.1057 19.173 19.7609 18.2083 20.1036L18.2083 20.1036L18.1994 20.1068C14.2246 21.5694 9.97259 21.4433 6.07823 20.1741L6.07344 20.1726C4.96828 19.8198 4.00046 19.1414 3.40299 18.1377C2.8817 17.2519 2.75999 16.2379 2.87445 15.2108L2.87448 15.2108L2.87512 15.2046C3.05919 13.4333 3.81669 11.4044 4.94288 9.51827C6.06787 7.63412 7.52361 5.95478 9.04382 4.85599Z"  stroke-width="1.67"/>
<path d="M12.0455 14.3182V13.4091C12.7688 13.4091 13.4625 13.1218 13.974 12.6103C14.4854 12.0988 14.7728 11.4051 14.7728 10.6818C14.7728 9.95848 14.4854 9.26478 13.974 8.75331C13.4625 8.24185 12.7688 7.95453 12.0455 7.95453C11.5063 7.99152 10.9866 8.17088 10.5395 8.47433C10.0923 8.77778 9.73362 9.19448 9.50006 9.68182" stroke-width="1.67" stroke-miterlimit="10" stroke-linecap="square"/>
<path d="M12.0456 17.0455V17.9546" stroke-width="1.67" stroke-miterlimit="10" stroke-linecap="square"/>
</svg>
