<svg width="24" height="24" viewBox="0 0 24 24" fill="none" xmlns="http://www.w3.org/2000/svg">
<mask id="path-1-inside-1" fill="white">
<path d="M22.8086 1.19127C22.6769 1.05953 22.4954 0.990523 22.3093 1.00105C22.2403 1.005 20.5951 1.10688 18.3153 1.83838C16.2147 2.51234 13.1518 3.87461 10.4893 6.53715C9.86916 7.15731 9.21475 7.85705 8.59922 8.57471C7.56506 8.22594 5.04101 7.82126 1.31139 10.1107C1.10334 10.2384 0.983884 10.4716 1.00176 10.7151C1.01963 10.9586 1.17191 11.1718 1.39642 11.2677L5.57523 13.0535L4.21335 14.4776C3.96804 14.7342 3.97255 15.1397 4.22353 15.3907L4.70963 15.8768C4.34127 16.0586 4.02008 16.2849 3.74989 16.5551C2.23027 18.0747 2.56422 20.7453 2.57917 20.8583C2.61793 21.1509 2.84816 21.3812 3.14081 21.4199C3.17643 21.4246 3.46656 21.4611 3.89491 21.4611C4.82427 21.4611 6.40379 21.2894 7.44402 20.2492C7.7142 19.979 7.94052 19.6579 8.12236 19.2895L8.60941 19.7765C8.73681 19.9039 8.90391 19.9678 9.07119 19.9678C9.23357 19.9678 9.39612 19.9076 9.52249 19.7868L10.9464 18.425L12.7314 22.6027C12.8273 22.8273 13.0405 22.9795 13.284 22.9975C13.3001 22.9986 13.3161 22.9993 13.3321 22.9993C13.5579 22.9993 13.7691 22.8823 13.8885 22.6879C16.1778 18.9586 15.7737 16.4351 15.4251 15.4009C16.1428 14.7853 16.8426 14.1309 17.4628 13.5107C20.1253 10.8482 21.4877 7.78534 22.1616 5.68474C22.8931 3.40488 22.995 1.75961 22.9989 1.69074C23.0096 1.50468 22.9403 1.32297 22.8086 1.19127ZM3.1366 10.5911C4.74968 9.79566 5.99559 9.60771 6.81247 9.60771C6.81719 9.60771 6.82209 9.60771 6.82678 9.60771C7.16691 9.60862 7.45605 9.64145 7.69246 9.6857C7.08493 10.4725 6.56914 11.2432 6.24107 11.9178L3.1366 10.5911ZM6.52054 19.3257C5.78866 20.0576 4.55031 20.1611 3.84468 20.1546C3.83781 19.4491 3.9417 18.2104 4.67346 17.4787C4.93333 17.2188 5.2809 17.0171 5.70968 16.8769L7.12231 18.2895C6.98211 18.7183 6.78041 19.0658 6.52054 19.3257ZM9.08137 18.4014L5.59874 14.9188L6.67991 13.7883L10.2119 17.3202L9.08137 18.4014ZM13.4083 20.8627L12.0821 17.7589C12.7568 17.4308 13.5276 16.9149 14.3145 16.3072C14.3539 16.5188 14.3842 16.7732 14.3906 17.0694C14.4086 17.9041 14.2344 19.1883 13.4083 20.8627ZM16.5393 12.5871C14.5901 14.5363 12.5921 16.1016 11.3837 16.645L7.35494 12.6163C7.89832 11.4079 9.46366 9.40993 11.4129 7.46071C13.3468 5.52687 15.5134 4.32904 17.2998 3.59785L20.4004 6.69841C19.6385 8.56805 18.4354 10.6909 16.5393 12.5871ZM20.8947 5.34567L18.6514 3.10238C18.6588 3.09997 18.6666 3.09735 18.674 3.09499C19.8997 2.69882 20.9382 2.4973 21.602 2.39744C21.5012 3.0628 21.297 4.10642 20.8947 5.34567Z"/>
</mask>
<path d="M22.8086 1.19127C22.6769 1.05953 22.4954 0.990523 22.3093 1.00105C22.2403 1.005 20.5951 1.10688 18.3153 1.83838C16.2147 2.51234 13.1518 3.87461 10.4893 6.53715C9.86916 7.15731 9.21475 7.85705 8.59922 8.57471C7.56506 8.22594 5.04101 7.82126 1.31139 10.1107C1.10334 10.2384 0.983884 10.4716 1.00176 10.7151C1.01963 10.9586 1.17191 11.1718 1.39642 11.2677L5.57523 13.0535L4.21335 14.4776C3.96804 14.7342 3.97255 15.1397 4.22353 15.3907L4.70963 15.8768C4.34127 16.0586 4.02008 16.2849 3.74989 16.5551C2.23027 18.0747 2.56422 20.7453 2.57917 20.8583C2.61793 21.1509 2.84816 21.3812 3.14081 21.4199C3.17643 21.4246 3.46656 21.4611 3.89491 21.4611C4.82427 21.4611 6.40379 21.2894 7.44402 20.2492C7.7142 19.979 7.94052 19.6579 8.12236 19.2895L8.60941 19.7765C8.73681 19.9039 8.90391 19.9678 9.07119 19.9678C9.23357 19.9678 9.39612 19.9076 9.52249 19.7868L10.9464 18.425L12.7314 22.6027C12.8273 22.8273 13.0405 22.9795 13.284 22.9975C13.3001 22.9986 13.3161 22.9993 13.3321 22.9993C13.5579 22.9993 13.7691 22.8823 13.8885 22.6879C16.1778 18.9586 15.7737 16.4351 15.4251 15.4009C16.1428 14.7853 16.8426 14.1309 17.4628 13.5107C20.1253 10.8482 21.4877 7.78534 22.1616 5.68474C22.8931 3.40488 22.995 1.75961 22.9989 1.69074C23.0096 1.50468 22.9403 1.32297 22.8086 1.19127ZM3.1366 10.5911C4.74968 9.79566 5.99559 9.60771 6.81247 9.60771C6.81719 9.60771 6.82209 9.60771 6.82678 9.60771C7.16691 9.60862 7.45605 9.64145 7.69246 9.6857C7.08493 10.4725 6.56914 11.2432 6.24107 11.9178L3.1366 10.5911ZM6.52054 19.3257C5.78866 20.0576 4.55031 20.1611 3.84468 20.1546C3.83781 19.4491 3.9417 18.2104 4.67346 17.4787C4.93333 17.2188 5.2809 17.0171 5.70968 16.8769L7.12231 18.2895C6.98211 18.7183 6.78041 19.0658 6.52054 19.3257ZM9.08137 18.4014L5.59874 14.9188L6.67991 13.7883L10.2119 17.3202L9.08137 18.4014ZM13.4083 20.8627L12.0821 17.7589C12.7568 17.4308 13.5276 16.9149 14.3145 16.3072C14.3539 16.5188 14.3842 16.7732 14.3906 17.0694C14.4086 17.9041 14.2344 19.1883 13.4083 20.8627ZM16.5393 12.5871C14.5901 14.5363 12.5921 16.1016 11.3837 16.645L7.35494 12.6163C7.89832 11.4079 9.46366 9.40993 11.4129 7.46071C13.3468 5.52687 15.5134 4.32904 17.2998 3.59785L20.4004 6.69841C19.6385 8.56805 18.4354 10.6909 16.5393 12.5871ZM20.8947 5.34567L18.6514 3.10238C18.6588 3.09997 18.6666 3.09735 18.674 3.09499C19.8997 2.69882 20.9382 2.4973 21.602 2.39744C21.5012 3.0628 21.297 4.10642 20.8947 5.34567Z" stroke="#0E0E2B" stroke-width="3.34" mask="url(#path-1-inside-1)"/>
<mask id="path-2-inside-2" fill="white">
<path d="M12.3352 9.76374C12.1367 9.49509 12 9.1727 12 8.8145C12 8.41152 12.1632 8.05331 12.4057 7.7757C13.1863 6.88019 14.227 6.22199 15.4442 6.0205C15.7749 5.96677 16.1233 6.01602 16.4364 6.1996C16.7495 6.38318 16.97 6.66527 17.0847 6.98318C17.5212 8.15182 17.4815 9.39658 17.1067 10.5294C16.992 10.8831 16.7671 11.2055 16.4232 11.407C16.1145 11.5861 15.7705 11.6219 15.4442 11.5861C14.3505 11.4742 13.0055 10.6772 12.3352 9.76374Z"/>
</mask>
<path d="M12.3352 9.76374C12.1367 9.49509 12 9.1727 12 8.8145C12 8.41152 12.1632 8.05331 12.4057 7.7757C13.1863 6.88019 14.227 6.22199 15.4442 6.0205C15.7749 5.96677 16.1233 6.01602 16.4364 6.1996C16.7495 6.38318 16.97 6.66527 17.0847 6.98318C17.5212 8.15182 17.4815 9.39658 17.1067 10.5294C16.992 10.8831 16.7671 11.2055 16.4232 11.407C16.1145 11.5861 15.7705 11.6219 15.4442 11.5861C14.3505 11.4742 13.0055 10.6772 12.3352 9.76374Z" stroke="#0E0E2B" stroke-width="3.34" mask="url(#path-2-inside-2)"/>
</svg>
