<svg width="36" height="36" viewBox="0 0 36 36" fill="none" xmlns="http://www.w3.org/2000/svg">
<path d="M26.1811 6.3319H25.3461V8.0019H26.1811V6.3319ZM32.9991 7.1669H33.8341V6.3319H32.9991V7.1669ZM32.9991 32.9995V33.8345H33.8341V32.9995H32.9991ZM3 32.9995H2.165V33.8345H3V32.9995ZM3 7.1669V6.3319H2.165V7.1669H3ZM9.81798 8.0019H10.653V6.3319H9.81798V8.0019ZM18.8346 9.66736V8.83236H17.1646V9.66736H18.8346ZM17.1646 33V33.835H18.8346V33H17.1646ZM26.3328 3H27.1678V2.165H26.3328V3ZM26.3328 15.083L25.8805 15.7849L27.1678 16.6145V15.083H26.3328ZM9.66667 3V2.165H8.83167V3H9.66667ZM9.66667 15.083H8.83167V16.6145L10.119 15.7849L9.66667 15.083ZM23.4161 20.082H22.5811V21.752H23.4161V20.082ZM28.8326 21.752H29.6676V20.082H28.8326V21.752ZM26.1811 8.0019H32.9991V6.3319H26.1811V8.0019ZM32.1641 7.1669V32.9995H33.8341V7.1669H32.1641ZM32.9991 32.1645H3V33.8345H32.9991V32.1645ZM3.835 32.9995V7.1669H2.165V32.9995H3.835ZM3 8.0019H9.81798V6.3319H3V8.0019ZM17.1646 9.66736V33H18.8346V9.66736H17.1646ZM25.809 2.34974L17.4759 9.0625L18.5236 10.363L26.8567 3.65026L25.809 2.34974ZM17.5474 10.4146L25.8805 15.7849L26.7852 14.3811L18.4521 9.01089L17.5474 10.4146ZM27.1678 15.083V3H25.4978V15.083H27.1678ZM26.3328 2.165H9.66667V3.835H26.3328V2.165ZM8.83167 3V15.083H10.5017V3H8.83167ZM10.119 15.7849L18.4521 10.4146L17.5474 9.01089L9.21435 14.3811L10.119 15.7849ZM18.5236 9.0625L10.1905 2.34974L9.14285 3.65026L17.4759 10.363L18.5236 9.0625ZM23.4161 21.752H28.8326V20.082H23.4161V21.752Z" fill="#0033CC"/>
</svg>
