<svg width="36" height="36" viewBox="0 0 36 36" fill="none" xmlns="http://www.w3.org/2000/svg">
<path d="M25.7338 20.4811V21.3161H26.2072L26.4503 20.9099L25.7338 20.4811ZM25.7338 25.7976L26.4503 25.3688L26.2072 24.9626H25.7338V25.7976ZM26.387 29.9242L27.1124 29.5105L27.1086 29.504L26.387 29.9242ZM25.914 31.811L26.3466 32.5252L26.3473 32.5247L25.914 31.811ZM24.0885 31.3152L24.8162 30.9057L24.8113 30.897L24.8061 30.8883L24.0885 31.3152ZM14.0794 19.7213C14.5406 19.7169 14.9108 19.3395 14.9064 18.8783C14.902 18.4172 14.5246 18.0469 14.0635 18.0513L14.0794 19.7213ZM5.46033 20.3098L5.19878 19.5167L5.18887 19.5201L5.46033 20.3098ZM3 23.6711L2.165 23.6658V23.6711H3ZM3 28.4559H2.165C2.165 28.9171 2.53884 29.2909 3 29.2909V28.4559ZM12.8413 29.2909C13.3025 29.2909 13.6763 28.9171 13.6763 28.4559C13.6763 27.9948 13.3025 27.6209 12.8413 27.6209V29.2909ZM14.25 4V3.165V4ZM22.2348 19.6461C22.2328 19.6461 22.2308 19.6461 22.2288 19.6461C22.2268 19.6461 22.2248 19.6461 22.2228 19.6461C22.2208 19.6461 22.2188 19.6461 22.2168 19.6461C22.2148 19.6461 22.2127 19.6461 22.2107 19.6461C22.2087 19.6461 22.2067 19.6461 22.2047 19.6461C22.2027 19.6461 22.2006 19.6461 22.1986 19.6461C22.1966 19.6461 22.1946 19.6461 22.1925 19.6461C22.1905 19.6461 22.1885 19.6461 22.1864 19.6461C22.1844 19.6461 22.1824 19.6461 22.1803 19.6461C22.1783 19.6461 22.1763 19.6461 22.1742 19.6461C22.1722 19.6461 22.1702 19.6461 22.1681 19.6461C22.1661 19.6461 22.164 19.6461 22.162 19.6461C22.1599 19.6461 22.1579 19.6461 22.1558 19.6461C22.1538 19.6461 22.1517 19.6461 22.1497 19.6461C22.1476 19.6461 22.1455 19.6461 22.1435 19.6461C22.1414 19.6461 22.1394 19.6461 22.1373 19.6461C22.1352 19.6461 22.1332 19.6461 22.1311 19.6461C22.129 19.6461 22.127 19.6461 22.1249 19.6461C22.1228 19.6461 22.1208 19.6461 22.1187 19.6461C22.1166 19.6461 22.1145 19.6461 22.1124 19.6461C22.1104 19.6461 22.1083 19.6461 22.1062 19.6461C22.1041 19.6461 22.102 19.6461 22.1 19.6461C22.0979 19.6461 22.0958 19.6461 22.0937 19.6461C22.0916 19.6461 22.0895 19.6461 22.0874 19.6461C22.0853 19.6461 22.0832 19.6461 22.0811 19.6461C22.079 19.6461 22.0769 19.6461 22.0748 19.6461C22.0727 19.6461 22.0706 19.6461 22.0685 19.6461C22.0664 19.6461 22.0643 19.6461 22.0622 19.6461C22.0601 19.6461 22.058 19.6461 22.0559 19.6461C22.0538 19.6461 22.0517 19.6461 22.0495 19.6461C22.0474 19.6461 22.0453 19.6461 22.0432 19.6461C22.0411 19.6461 22.039 19.6461 22.0368 19.6461C22.0347 19.6461 22.0326 19.6461 22.0305 19.6461C22.0283 19.6461 22.0262 19.6461 22.0241 19.6461C22.022 19.6461 22.0198 19.6461 22.0177 19.6461C22.0156 19.6461 22.0134 19.6461 22.0113 19.6461C22.0092 19.6461 22.007 19.6461 22.0049 19.6461C22.0028 19.6461 22.0006 19.6461 21.9985 19.6461C21.9963 19.6461 21.9942 19.6461 21.9921 19.6461C21.9899 19.6461 21.9878 19.6461 21.9856 19.6461C21.9835 19.6461 21.9813 19.6461 21.9792 19.6461C21.977 19.6461 21.9749 19.6461 21.9727 19.6461C21.9706 19.6461 21.9684 19.6461 21.9663 19.6461C21.9641 19.6461 21.9619 19.6461 21.9598 19.6461C21.9576 19.6461 21.9555 19.6461 21.9533 19.6461C21.9511 19.6461 21.949 19.6461 21.9468 19.6461C21.9446 19.6461 21.9425 19.6461 21.9403 19.6461C21.9381 19.6461 21.936 19.6461 21.9338 19.6461C21.9316 19.6461 21.9295 19.6461 21.9273 19.6461C21.9251 19.6461 21.9229 19.6461 21.9208 19.6461C21.9186 19.6461 21.9164 19.6461 21.9142 19.6461C21.9121 19.6461 21.9099 19.6461 21.9077 19.6461C21.9055 19.6461 21.9033 19.6461 21.9011 19.6461C21.899 19.6461 21.8968 19.6461 21.8946 19.6461C21.8924 19.6461 21.8902 19.6461 21.888 19.6461C21.8858 19.6461 21.8836 19.6461 21.8815 19.6461C21.8793 19.6461 21.8771 19.6461 21.8749 19.6461C21.8727 19.6461 21.8705 19.6461 21.8683 19.6461C21.8661 19.6461 21.8639 19.6461 21.8617 19.6461C21.8595 19.6461 21.8573 19.6461 21.8551 19.6461C21.8529 19.6461 21.8507 19.6461 21.8485 19.6461C21.8463 19.6461 21.8441 19.6461 21.8419 19.6461C21.8397 19.6461 21.8374 19.6461 21.8352 19.6461C21.833 19.6461 21.8308 19.6461 21.8286 19.6461C21.8264 19.6461 21.8242 19.6461 21.822 19.6461C21.8198 19.6461 21.8175 19.6461 21.8153 19.6461C21.8131 19.6461 21.8109 19.6461 21.8087 19.6461C21.8065 19.6461 21.8042 19.6461 21.802 19.6461C21.7998 19.6461 21.7976 19.6461 21.7954 19.6461C21.7931 19.6461 21.7909 19.6461 21.7887 19.6461C21.7865 19.6461 21.7842 19.6461 21.782 19.6461C21.7798 19.6461 21.7775 19.6461 21.7753 19.6461C21.7731 19.6461 21.7709 19.6461 21.7686 19.6461C21.7664 19.6461 21.7642 19.6461 21.7619 19.6461C21.7597 19.6461 21.7575 19.6461 21.7552 19.6461C21.753 19.6461 21.7508 19.6461 21.7485 19.6461C21.7463 19.6461 21.7441 19.6461 21.7418 19.6461C21.7396 19.6461 21.7373 19.6461 21.7351 19.6461C21.7329 19.6461 21.7306 19.6461 21.7284 19.6461C21.7261 19.6461 21.7239 19.6461 21.7216 19.6461C21.7194 19.6461 21.7171 19.6461 21.7149 19.6461C21.7127 19.6461 21.7104 19.6461 21.7082 19.6461C21.7059 19.6461 21.7037 19.6461 21.7014 19.6461C21.6992 19.6461 21.6969 19.6461 21.6947 19.6461C21.6924 19.6461 21.6902 19.6461 21.6879 19.6461C21.6857 19.6461 21.6834 19.6461 21.6812 19.6461C21.6789 19.6461 21.6766 19.6461 21.6744 19.6461C21.6721 19.6461 21.6699 19.6461 21.6676 19.6461C21.6654 19.6461 21.6631 19.6461 21.6608 19.6461C21.6586 19.6461 21.6563 19.6461 21.6541 19.6461C21.6518 19.6461 21.6495 19.6461 21.6473 19.6461C21.645 19.6461 21.6428 19.6461 21.6405 19.6461C21.6382 19.6461 21.636 19.6461 21.6337 19.6461C21.6314 19.6461 21.6292 19.6461 21.6269 19.6461C21.6246 19.6461 21.6224 19.6461 21.6201 19.6461C21.6178 19.6461 21.6156 19.6461 21.6133 19.6461C21.611 19.6461 21.6088 19.6461 21.6065 19.6461C21.6042 19.6461 21.6019 19.6461 21.5997 19.6461C21.5974 19.6461 21.5951 19.6461 21.5929 19.6461C21.5906 19.6461 21.5883 19.6461 21.586 19.6461C21.5838 19.6461 21.5815 19.6461 21.5792 19.6461C21.5769 19.6461 21.5747 19.6461 21.5724 19.6461C21.5701 19.6461 21.5678 19.6461 21.5656 19.6461C21.5633 19.6461 21.561 19.6461 21.5587 19.6461C21.5565 19.6461 21.5542 19.6461 21.5519 19.6461C21.5496 19.6461 21.5473 19.6461 21.5451 19.6461C21.5428 19.6461 21.5405 19.6461 21.5382 19.6461C21.5359 19.6461 21.5337 19.6461 21.5314 19.6461C21.5291 19.6461 21.5268 19.6461 21.5245 19.6461C21.5222 19.6461 21.52 19.6461 21.5177 19.6461C21.5154 19.6461 21.5131 19.6461 21.5108 19.6461C21.5085 19.6461 21.5063 19.6461 21.504 19.6461C21.5017 19.6461 21.4994 19.6461 21.4971 19.6461C21.4948 19.6461 21.4925 19.6461 21.4903 19.6461C21.488 19.6461 21.4857 19.6461 21.4834 19.6461C21.4811 19.6461 21.4788 19.6461 21.4765 19.6461C21.4743 19.6461 21.472 19.6461 21.4697 19.6461C21.4674 19.6461 21.4651 19.6461 21.4628 19.6461C21.4605 19.6461 21.4582 19.6461 21.4559 19.6461C21.4537 19.6461 21.4514 19.6461 21.4491 19.6461C21.4468 19.6461 21.4445 19.6461 21.4422 19.6461C21.4399 19.6461 21.4376 19.6461 21.4353 19.6461C21.433 19.6461 21.4308 19.6461 21.4285 19.6461C21.4262 19.6461 21.4239 19.6461 21.4216 19.6461C21.4193 19.6461 21.417 19.6461 21.4147 19.6461C21.4124 19.6461 21.4101 19.6461 21.4078 19.6461C21.4055 19.6461 21.4032 19.6461 21.401 19.6461C21.3987 19.6461 21.3964 19.6461 21.3941 19.6461C21.3918 19.6461 21.3895 19.6461 21.3872 19.6461C21.3849 19.6461 21.3826 19.6461 21.3803 19.6461C21.378 19.6461 21.3757 19.6461 21.3734 19.6461C21.3711 19.6461 21.3689 19.6461 21.3666 19.6461C21.3643 19.6461 21.362 19.6461 21.3597 19.6461C21.3574 19.6461 21.3551 19.6461 21.3528 19.6461C21.3505 19.6461 21.3482 19.6461 21.3459 19.6461C21.3436 19.6461 21.3413 19.6461 21.339 19.6461C21.3367 19.6461 21.3344 19.6461 21.3322 19.6461C21.3299 19.6461 21.3276 19.6461 21.3253 19.6461C21.323 19.6461 21.3207 19.6461 21.3184 19.6461C21.3161 19.6461 21.3138 19.6461 21.3115 19.6461C21.3092 19.6461 21.3069 19.6461 21.3046 19.6461C21.3023 19.6461 21.3 19.6461 21.2978 19.6461C21.2955 19.6461 21.2932 19.6461 21.2909 19.6461C21.2886 19.6461 21.2863 19.6461 21.284 19.6461C21.2817 19.6461 21.2794 19.6461 21.2771 19.6461C21.2748 19.6461 21.2725 19.6461 21.2702 19.6461C21.268 19.6461 21.2657 19.6461 21.2634 19.6461C21.2611 19.6461 21.2588 19.6461 21.2565 19.6461C21.2542 19.6461 21.2519 19.6461 21.2496 19.6461C21.2473 19.6461 21.245 19.6461 21.2428 19.6461C21.2405 19.6461 21.2382 19.6461 21.2359 19.6461C21.2336 19.6461 21.2313 19.6461 21.229 19.6461C21.2267 19.6461 21.2244 19.6461 21.2221 19.6461C21.2199 19.6461 21.2176 19.6461 21.2153 19.6461C21.213 19.6461 21.2107 19.6461 21.2084 19.6461C21.2061 19.6461 21.2038 19.6461 21.2016 19.6461C21.1993 19.6461 21.197 19.6461 21.1947 19.6461C21.1924 19.6461 21.1901 19.6461 21.1878 19.6461C21.1856 19.6461 21.1833 19.6461 21.181 19.6461C21.1787 19.6461 21.1764 19.6461 21.1741 19.6461C21.1719 19.6461 21.1696 19.6461 21.1673 19.6461C21.165 19.6461 21.1627 19.6461 21.1604 19.6461C21.1582 19.6461 21.1559 19.6461 21.1536 19.6461C21.1513 19.6461 21.149 19.6461 21.1467 19.6461C21.1445 19.6461 21.1422 19.6461 21.1399 19.6461C21.1376 19.6461 21.1354 19.6461 21.1331 19.6461C21.1308 19.6461 21.1285 19.6461 21.1262 19.6461C21.124 19.6461 21.1217 19.6461 21.1194 19.6461C21.1171 19.6461 21.1149 19.6461 21.1126 19.6461C21.1103 19.6461 21.108 19.6461 21.1058 19.6461C21.1035 19.6461 21.1012 19.6461 21.0989 19.6461C21.0967 19.6461 21.0944 19.6461 21.0921 19.6461C21.0898 19.6461 21.0876 19.6461 21.0853 19.6461C21.083 19.6461 21.0808 19.6461 21.0785 19.6461C21.0762 19.6461 21.074 19.6461 21.0717 19.6461C21.0694 19.6461 21.0672 19.6461 21.0649 19.6461C21.0626 19.6461 21.0604 19.6461 21.0581 19.6461C21.0558 19.6461 21.0536 19.6461 21.0513 19.6461C21.049 19.6461 21.0468 19.6461 21.0445 19.6461C21.0422 19.6461 21.04 19.6461 21.0377 19.6461C21.0354 19.6461 21.0332 19.6461 21.0309 19.6461C21.0287 19.6461 21.0264 19.6461 21.0242 19.6461C21.0219 19.6461 21.0196 19.6461 21.0174 19.6461C21.0151 19.6461 21.0129 19.6461 21.0106 19.6461C21.0084 19.6461 21.0061 19.6461 21.0038 19.6461C21.0016 19.6461 20.9993 19.6461 20.9971 19.6461C20.9948 19.6461 20.9926 19.6461 20.9903 19.6461C20.9881 19.6461 20.9858 19.6461 20.9836 19.6461C20.9813 19.6461 20.9791 19.6461 20.9768 19.6461C20.9746 19.6461 20.9723 19.6461 20.9701 19.6461C20.9679 19.6461 20.9656 19.6461 20.9634 19.6461C20.9611 19.6461 20.9589 19.6461 20.9566 19.6461C20.9544 19.6461 20.9522 19.6461 20.9499 19.6461C20.9477 19.6461 20.9454 19.6461 20.9432 19.6461C20.941 19.6461 20.9387 19.6461 20.9365 19.6461C20.9343 19.6461 20.932 19.6461 20.9298 19.6461C20.9276 19.6461 20.9253 19.6461 20.9231 19.6461C20.9209 19.6461 20.9186 19.6461 20.9164 19.6461C20.9142 19.6461 20.9119 19.6461 20.9097 19.6461C20.9075 19.6461 20.9052 19.6461 20.903 19.6461C20.9008 19.6461 20.8986 19.6461 20.8963 19.6461C20.8941 19.6461 20.8919 19.6461 20.8897 19.6461C20.8875 19.6461 20.8852 19.6461 20.883 19.6461C20.8808 19.6461 20.8786 19.6461 20.8764 19.6461C20.8741 19.6461 20.8719 19.6461 20.8697 19.6461C20.8675 19.6461 20.8653 19.6461 20.8631 19.6461C20.8609 19.6461 20.8586 19.6461 20.8564 19.6461C20.8542 19.6461 20.852 19.6461 20.8498 19.6461C20.8476 19.6461 20.8454 19.6461 20.8432 19.6461C20.841 19.6461 20.8388 19.6461 20.8366 19.6461C20.8344 19.6461 20.8322 19.6461 20.83 19.6461C20.8278 19.6461 20.8256 19.6461 20.8234 19.6461C20.8212 19.6461 20.819 19.6461 20.8168 19.6461C20.8146 19.6461 20.8124 19.6461 20.8102 19.6461C20.808 19.6461 20.8058 19.6461 20.8036 19.6461C20.8014 19.6461 20.7992 19.6461 20.797 19.6461C20.7949 19.6461 20.7927 19.6461 20.7905 19.6461C20.7883 19.6461 20.7861 19.6461 20.7839 19.6461C20.7817 19.6461 20.7796 19.6461 20.7774 19.6461C20.7752 19.6461 20.773 19.6461 20.7708 19.6461C20.7687 19.6461 20.7665 19.6461 20.7643 19.6461C20.7621 19.6461 20.76 19.6461 20.7578 19.6461C20.7556 19.6461 20.7535 19.6461 20.7513 19.6461C20.7491 19.6461 20.7469 19.6461 20.7448 19.6461C20.7426 19.6461 20.7404 19.6461 20.7383 19.6461C20.7361 19.6461 20.734 19.6461 20.7318 19.6461C20.7296 19.6461 20.7275 19.6461 20.7253 19.6461C20.7232 19.6461 20.721 19.6461 20.7188 19.6461C20.7167 19.6461 20.7145 19.6461 20.7124 19.6461C20.7102 19.6461 20.7081 19.6461 20.7059 19.6461C20.7038 19.6461 20.7016 19.6461 20.6995 19.6461C20.6974 19.6461 20.6952 19.6461 20.6931 19.6461C20.6909 19.6461 20.6888 19.6461 20.6866 19.6461C20.6845 19.6461 20.6824 19.6461 20.6802 19.6461C20.6781 19.6461 20.676 19.6461 20.6738 19.6461C20.6717 19.6461 20.6696 19.6461 20.6674 19.6461C20.6653 19.6461 20.6632 19.6461 20.661 19.6461C20.6589 19.6461 20.6568 19.6461 20.6547 19.6461C20.6525 19.6461 20.6504 19.6461 20.6483 19.6461C20.6462 19.6461 20.6441 19.6461 20.642 19.6461C20.6398 19.6461 20.6377 19.6461 20.6356 19.6461C20.6335 19.6461 20.6314 19.6461 20.6293 19.6461C20.6272 19.6461 20.6251 19.6461 20.6229 19.6461C20.6208 19.6461 20.6187 19.6461 20.6166 19.6461C20.6145 19.6461 20.6124 19.6461 20.6103 19.6461C20.6082 19.6461 20.6061 19.6461 20.604 19.6461C20.6019 19.6461 20.5998 19.6461 20.5978 19.6461C20.5957 19.6461 20.5936 19.6461 20.5915 19.6461C20.5894 19.6461 20.5873 19.6461 20.5852 19.6461C20.5831 19.6461 20.5811 19.6461 20.579 19.6461C20.5769 19.6461 20.5748 19.6461 20.5727 19.6461C20.5707 19.6461 20.5686 19.6461 20.5665 19.6461C20.5644 19.6461 20.5624 19.6461 20.5603 19.6461C20.5582 19.6461 20.5562 19.6461 20.5541 19.6461C20.552 19.6461 20.55 19.6461 20.5479 19.6461C20.5458 19.6461 20.5438 19.6461 20.5417 19.6461C20.5397 19.6461 20.5376 19.6461 20.5356 19.6461C20.5335 19.6461 20.5314 19.6461 20.5294 19.6461C20.5273 19.6461 20.5253 19.6461 20.5233 19.6461C20.5212 19.6461 20.5192 19.6461 20.5171 19.6461C20.5151 19.6461 20.513 19.6461 20.511 19.6461C20.509 19.6461 20.5069 19.6461 20.5049 19.6461C20.5029 19.6461 20.5008 19.6461 20.4988 19.6461C20.4968 19.6461 20.4947 19.6461 20.4927 19.6461C20.4907 19.6461 20.4887 19.6461 20.4866 19.6461C20.4846 19.6461 20.4826 19.6461 20.4806 19.6461C20.4786 19.6461 20.4765 19.6461 20.4745 19.6461C20.4725 19.6461 20.4705 19.6461 20.4685 19.6461C20.4665 19.6461 20.4645 19.6461 20.4625 19.6461C20.4605 19.6461 20.4585 19.6461 20.4565 19.6461C20.4545 19.6461 20.4525 19.6461 20.4505 19.6461C20.4485 19.6461 20.4465 19.6461 20.4445 19.6461C20.4425 19.6461 20.4405 19.6461 20.4385 19.6461C20.4365 19.6461 20.4345 19.6461 20.4326 19.6461C20.4306 19.6461 20.4286 19.6461 20.4266 19.6461C20.4246 19.6461 20.4227 19.6461 20.4207 19.6461C20.4187 19.6461 20.4168 19.6461 20.4148 19.6461C20.4128 19.6461 20.4108 19.6461 20.4089 19.6461C20.4069 19.6461 20.405 19.6461 20.403 19.6461C20.401 19.6461 20.3991 19.6461 20.3971 19.6461C20.3952 19.6461 20.3932 19.6461 20.3913 19.6461C20.3893 19.6461 20.3874 19.6461 20.3854 19.6461C20.3835 19.6461 20.3815 19.6461 20.3796 19.6461C20.3776 19.6461 20.3757 19.6461 20.3738 19.6461C20.3718 19.6461 20.3699 19.6461 20.368 19.6461C20.366 19.6461 20.3641 19.6461 20.3622 19.6461C20.3603 19.6461 20.3583 19.6461 20.3564 19.6461C20.3545 19.6461 20.3526 19.6461 20.3507 19.6461C20.3487 19.6461 20.3468 19.6461 20.3449 19.6461C20.343 19.6461 20.3411 19.6461 20.3392 19.6461C20.3373 19.6461 20.3354 19.6461 20.3335 19.6461C20.3316 19.6461 20.3297 19.6461 20.3278 19.6461C20.3259 19.6461 20.324 19.6461 20.3221 19.6461C20.3202 19.6461 20.3183 19.6461 20.3164 19.6461C20.3145 19.6461 20.3126 19.6461 20.3108 19.6461C20.3089 19.6461 20.307 19.6461 20.3051 19.6461C20.3033 19.6461 20.3014 19.6461 20.2995 19.6461C20.2976 19.6461 20.2958 19.6461 20.2939 19.6461C20.292 19.6461 20.2902 19.6461 20.2883 19.6461C20.2865 19.6461 20.2846 19.6461 20.2827 19.6461C20.2809 19.6461 20.279 19.6461 20.2772 19.6461C20.2753 19.6461 20.2735 19.6461 20.2716 19.6461C20.2698 19.6461 20.268 19.6461 20.2661 19.6461C20.2643 19.6461 20.2624 19.6461 20.2606 19.6461C20.2588 19.6461 20.2569 19.6461 20.2551 19.6461C20.2533 19.6461 20.2515 19.6461 20.2496 19.6461C20.2478 19.6461 20.246 19.6461 20.2442 19.6461C20.2424 19.6461 20.2405 19.6461 20.2387 19.6461C20.2369 19.6461 20.2351 19.6461 20.2333 19.6461C20.2315 19.6461 20.2297 19.6461 20.2279 19.6461C20.2261 19.6461 20.2243 19.6461 20.2225 19.6461C20.2207 19.6461 20.2189 19.6461 20.2171 19.6461C20.2153 19.6461 20.2136 19.6461 20.2118 19.6461C20.21 19.6461 20.2082 19.6461 20.2064 19.6461C20.2046 19.6461 20.2029 19.6461 20.2011 19.6461C20.1993 19.6461 20.1976 19.6461 20.1958 19.6461C20.194 19.6461 20.1923 19.6461 20.1905 19.6461C20.1887 19.6461 20.187 19.6461 20.1852 19.6461C20.1835 19.6461 20.1817 19.6461 20.18 19.6461C20.1782 19.6461 20.1765 19.6461 20.1747 19.6461C20.173 19.6461 20.1713 19.6461 20.1695 19.6461C20.1678 19.6461 20.1661 19.6461 20.1643 19.6461C20.1626 19.6461 20.1609 19.6461 20.1591 19.6461C20.1574 19.6461 20.1557 19.6461 20.154 19.6461C20.1523 19.6461 20.1505 19.6461 20.1488 19.6461C20.1471 19.6461 20.1454 19.6461 20.1437 19.6461C20.142 19.6461 20.1403 19.6461 20.1386 19.6461C20.1369 19.6461 20.1352 19.6461 20.1335 19.6461C20.1318 19.6461 20.1301 19.6461 20.1284 19.6461C20.1268 19.6461 20.1251 19.6461 20.1234 19.6461C20.1217 19.6461 20.12 19.6461 20.1184 19.6461C20.1167 19.6461 20.115 19.6461 20.1133 19.6461C20.1117 19.6461 20.11 19.6461 20.1083 19.6461C20.1067 19.6461 20.105 19.6461 20.1034 19.6461C20.1017 19.6461 20.1001 19.6461 20.0984 19.6461C20.0968 19.6461 20.0951 19.6461 20.0935 19.6461C20.0918 19.6461 20.0902 19.6461 20.0886 19.6461C20.0869 19.6461 20.0853 19.6461 20.0837 19.6461C20.082 19.6461 20.0804 19.6461 20.0788 19.6461C20.0772 19.6461 20.0755 19.6461 20.0739 19.6461C20.0723 19.6461 20.0707 19.6461 20.0691 19.6461C20.0675 19.6461 20.0659 19.6461 20.0643 19.6461C20.0627 19.6461 20.0611 19.6461 20.0595 19.6461C20.0579 19.6461 20.0563 19.6461 20.0547 19.6461C20.0531 19.6461 20.0515 19.6461 20.0499 19.6461C20.0483 19.6461 20.0468 19.6461 20.0452 19.6461C20.0436 19.6461 20.042 19.6461 20.0405 19.6461C20.0389 19.6461 20.0373 19.6461 20.0358 19.6461C20.0342 19.6461 20.0326 19.6461 20.0311 19.6461C20.0295 19.6461 20.028 19.6461 20.0264 19.6461C20.0249 19.6461 20.0233 19.6461 20.0218 19.6461C20.0203 19.6461 20.0187 19.6461 20.0172 19.6461C20.0156 19.6461 20.0141 19.6461 20.0126 19.6461C20.0111 19.6461 20.0095 19.6461 20.008 19.6461C20.0065 19.6461 20.005 19.6461 20.0035 19.6461C20.002 19.6461 20.0004 19.6461 19.9989 19.6461C19.9974 19.6461 19.9959 19.6461 19.9944 19.6461C19.9929 19.6461 19.9914 19.6461 19.9899 19.6461C19.9884 19.6461 19.987 19.6461 19.9855 19.6461C19.984 19.6461 19.9825 19.6461 19.981 19.6461C19.9796 19.6461 19.9781 19.6461 19.9766 19.6461C19.9751 19.6461 19.9737 19.6461 19.9722 19.6461C19.9707 19.6461 19.9693 19.6461 19.9678 19.6461C19.9664 19.6461 19.9649 19.6461 19.9635 19.6461C19.962 19.6461 19.9606 19.6461 19.9591 19.6461C19.9577 19.6461 19.9563 19.6461 19.9548 19.6461C19.9534 19.6461 19.952 19.6461 19.9505 19.6461C19.9491 19.6461 19.9477 19.6461 19.9463 19.6461C19.9449 19.6461 19.9434 19.6461 19.942 19.6461C19.9406 19.6461 19.9392 19.6461 19.9378 19.6461C19.9364 19.6461 19.935 19.6461 19.9336 19.6461C19.9322 19.6461 19.9308 19.6461 19.9294 19.6461C19.928 19.6461 19.9267 19.6461 19.9253 19.6461C19.9239 19.6461 19.9225 19.6461 19.9212 19.6461C19.9198 19.6461 19.9184 19.6461 19.917 19.6461C19.9157 19.6461 19.9143 19.6461 19.913 19.6461C19.9116 19.6461 19.9102 19.6461 19.9089 19.6461C19.9076 19.6461 19.9062 19.6461 19.9049 19.6461C19.9035 19.6461 19.9022 19.6461 19.9009 19.6461C19.8995 19.6461 19.8982 19.6461 19.8969 19.6461C19.8955 19.6461 19.8942 19.6461 19.8929 19.6461C19.8916 19.6461 19.8903 19.6461 19.889 19.6461C19.8876 19.6461 19.8863 19.6461 19.885 19.6461C19.8837 19.6461 19.8824 19.6461 19.8811 19.6461C19.8798 19.6461 19.8786 19.6461 19.8773 19.6461C19.876 19.6461 19.8747 19.6461 19.8734 19.6461C19.8721 19.6461 19.8709 19.6461 19.8696 19.6461C19.8683 19.6461 19.8671 19.6461 19.8658 19.6461C19.8645 19.6461 19.8633 19.6461 19.862 19.6461C19.8608 19.6461 19.8595 19.6461 19.8583 19.6461C19.857 19.6461 19.8558 19.6461 19.8546 19.6461C19.8533 19.6461 19.8521 19.6461 19.8509 19.6461C19.8496 19.6461 19.8484 19.6461 19.8472 19.6461C19.846 19.6461 19.8448 19.6461 19.8435 19.6461C19.8423 19.6461 19.8411 19.6461 19.8399 19.6461C19.8387 19.6461 19.8375 19.6461 19.8363 19.6461C19.8351 19.6461 19.8339 19.6461 19.8328 19.6461C19.8316 19.6461 19.8304 19.6461 19.8292 19.6461C19.828 19.6461 19.8268 19.6461 19.8257 19.6461C19.8245 19.6461 19.8233 19.6461 19.8222 19.6461C19.821 19.6461 19.8199 19.6461 19.8187 19.6461C19.8176 19.6461 19.8164 19.6461 19.8153 19.6461C19.8141 19.6461 19.813 19.6461 19.8118 19.6461C19.8107 19.6461 19.8096 19.6461 19.8085 19.6461C19.8073 19.6461 19.8062 19.6461 19.8051 19.6461C19.804 19.6461 19.8029 19.6461 19.8017 19.6461C19.8006 19.6461 19.7995 19.6461 19.7984 19.6461C19.7973 19.6461 19.7962 19.6461 19.7951 19.6461C19.7941 19.6461 19.793 19.6461 19.7919 19.6461C19.7908 19.6461 19.7897 19.6461 19.7886 19.6461C19.7876 19.6461 19.7865 19.6461 19.7854 19.6461C19.7844 19.6461 19.7833 19.6461 19.7823 19.6461C19.7812 19.6461 19.7801 19.6461 19.7791 19.6461C19.7781 19.6461 19.777 19.6461 19.776 19.6461C19.7749 19.6461 19.7739 19.6461 19.7729 19.6461C19.7718 19.6461 19.7708 19.6461 19.7698 19.6461C19.7688 19.6461 19.7678 19.6461 19.7668 19.6461C19.7657 19.6461 19.7647 19.6461 19.7637 19.6461C19.7627 19.6461 19.7617 19.6461 19.7607 19.6461C19.7597 19.6461 19.7588 19.6461 19.7578 19.6461C19.7568 19.6461 19.7558 19.6461 19.7548 19.6461C19.7539 19.6461 19.7529 19.6461 19.7519 19.6461C19.751 19.6461 19.75 19.6461 19.749 19.6461C19.7481 19.6461 19.7471 19.6461 19.7462 19.6461C19.7452 19.6461 19.7443 19.6461 19.7434 19.6461C19.7424 19.6461 19.7415 19.6461 19.7406 19.6461C19.7396 19.6461 19.7387 19.6461 19.7378 19.6461C19.7369 19.6461 19.736 19.6461 19.7351 19.6461C19.7342 19.6461 19.7332 19.6461 19.7323 19.6461C19.7314 19.6461 19.7306 19.6461 19.7297 19.6461C19.7288 19.6461 19.7279 19.6461 19.727 19.6461C19.7261 19.6461 19.7253 19.6461 19.7244 19.6461C19.7235 19.6461 19.7226 19.6461 19.7218 19.6461C19.7209 19.6461 19.7201 19.6461 19.7192 19.6461C19.7184 19.6461 19.7175 19.6461 19.7167 19.6461C19.7158 19.6461 19.715 19.6461 19.7142 19.6461C19.7133 19.6461 19.7125 19.6461 19.7117 19.6461C19.7109 19.6461 19.71 19.6461 19.7092 19.6461C19.7084 19.6461 19.7076 19.6461 19.7068 19.6461C19.706 19.6461 19.7052 19.6461 19.7044 19.6461C19.7036 19.6461 19.7028 19.6461 19.702 19.6461C19.7013 19.6461 19.7005 19.6461 19.6997 19.6461C19.6989 19.6461 19.6982 19.6461 19.6974 19.6461C19.6966 19.6461 19.6959 19.6461 19.6951 19.6461C19.6944 19.6461 19.6936 19.6461 19.6929 19.6461C19.6921 19.6461 19.6914 19.6461 19.6907 19.6461C19.6899 19.6461 19.6892 19.6461 19.6885 19.6461C19.6878 19.6461 19.687 19.6461 19.6863 19.6461C19.6856 19.6461 19.6849 19.6461 19.6842 19.6461C19.6835 19.6461 19.6828 19.6461 19.6821 19.6461C19.6814 19.6461 19.6807 19.6461 19.68 19.6461C19.6794 19.6461 19.6787 19.6461 19.678 19.6461C19.6773 19.6461 19.6767 19.6461 19.676 19.6461C19.6754 19.6461 19.6747 19.6461 19.674 19.6461C19.6734 19.6461 19.6727 19.6461 19.6721 19.6461C19.6715 19.6461 19.6708 19.6461 19.6702 19.6461C19.6696 19.6461 19.6689 19.6461 19.6683 19.6461C19.6677 19.6461 19.6671 19.6461 19.6665 19.6461C19.6659 19.6461 19.6653 19.6461 19.6647 19.6461C19.6641 19.6461 19.6635 19.6461 19.6629 19.6461C19.6623 19.6461 19.6617 19.6461 19.6611 19.6461C19.6605 19.6461 19.66 19.6461 19.6594 19.6461C19.6588 19.6461 19.6583 19.6461 19.6577 19.6461C19.6571 19.6461 19.6566 19.6461 19.656 19.6461C19.6555 19.6461 19.655 19.6461 19.6544 19.6461C19.6539 19.6461 19.6534 19.6461 19.6528 19.6461C19.6523 19.6461 19.6518 19.6461 19.6513 19.6461C19.6507 19.6461 19.6502 19.6461 19.6497 19.6461C19.6492 19.6461 19.6487 19.6461 19.6482 19.6461C19.6477 19.6461 19.6473 19.6461 19.6468 19.6461C19.6463 19.6461 19.6458 19.6461 19.6453 19.6461C19.6449 19.6461 19.6444 19.6461 19.6439 19.6461C19.6435 19.6461 19.643 19.6461 19.6426 19.6461C19.6421 19.6461 19.6417 19.6461 19.6412 19.6461C19.6408 19.6461 19.6404 19.6461 19.6399 19.6461C19.6395 19.6461 19.6391 19.6461 19.6387 19.6461C19.6382 19.6461 19.6378 19.6461 19.6374 19.6461C19.637 19.6461 19.6366 19.6461 19.6362 19.6461C19.6358 19.6461 19.6354 19.6461 19.6351 19.6461C19.6347 19.6461 19.6343 19.6461 19.6339 19.6461C19.6335 19.6461 19.6332 19.6461 19.6328 19.6461C19.6325 19.6461 19.6321 19.6461 19.6318 19.6461C19.6314 19.6461 19.6311 19.6461 19.6307 19.6461C19.6304 19.6461 19.63 19.6461 19.6297 19.6461C19.6294 19.6461 19.6291 19.6461 19.6287 19.6461C19.6284 19.6461 19.6281 19.6461 19.6278 19.6461C19.6275 19.6461 19.6272 19.6461 19.6269 19.6461C19.6266 19.6461 19.6263 19.6461 19.626 19.6461C19.6258 19.6461 19.6255 19.6461 19.6252 19.6461C19.6249 19.6461 19.6247 19.6461 19.6244 19.6461C19.6242 19.6461 19.6239 19.6461 19.6237 19.6461C19.6234 19.6461 19.6232 19.6461 19.6229 19.6461C19.6227 19.6461 19.6225 19.6461 19.6222 19.6461C19.622 19.6461 19.6218 19.6461 19.6216 19.6461C19.6214 19.6461 19.6211 19.6461 19.6209 19.6461C19.6207 19.6461 19.6205 19.6461 19.6204 19.6461C19.6202 19.6461 19.62 19.6461 19.6198 19.6461C19.6196 19.6461 19.6194 19.6461 19.6193 19.6461C19.6191 19.6461 19.619 19.6461 19.6188 19.6461C19.6186 19.6461 19.6185 19.6461 19.6183 19.6461C19.6182 19.6461 19.6181 19.6461 19.6179 19.6461C19.6178 19.6461 19.6177 19.6461 19.6176 19.6461C19.6174 19.6461 19.6173 19.6461 19.6172 19.6461C19.6171 19.6461 19.617 19.6461 19.6169 19.6461C19.6168 19.6461 19.6167 19.6461 19.6166 19.6461C19.6166 19.6461 19.6165 19.6461 19.6164 19.6461C19.6163 19.6461 19.6163 19.6461 19.6162 19.6461C19.6161 19.6461 19.6161 19.6461 19.616 19.6461C19.616 19.6461 19.6159 19.6461 19.6159 19.6461C19.6159 19.6461 19.6158 19.6461 19.6158 19.6461C19.6158 19.6461 19.6158 19.6461 19.6158 19.6461C19.6158 19.6461 19.6157 19.6461 19.6157 20.4811C19.6157 21.3161 19.6158 21.3161 19.6158 21.3161C19.6158 21.3161 19.6158 21.3161 19.6158 21.3161C19.6158 21.3161 19.6159 21.3161 19.6159 21.3161C19.6159 21.3161 19.616 21.3161 19.616 21.3161C19.6161 21.3161 19.6161 21.3161 19.6162 21.3161C19.6163 21.3161 19.6163 21.3161 19.6164 21.3161C19.6165 21.3161 19.6166 21.3161 19.6166 21.3161C19.6167 21.3161 19.6168 21.3161 19.6169 21.3161C19.617 21.3161 19.6171 21.3161 19.6172 21.3161C19.6173 21.3161 19.6174 21.3161 19.6176 21.3161C19.6177 21.3161 19.6178 21.3161 19.6179 21.3161C19.6181 21.3161 19.6182 21.3161 19.6183 21.3161C19.6185 21.3161 19.6186 21.3161 19.6188 21.3161C19.619 21.3161 19.6191 21.3161 19.6193 21.3161C19.6194 21.3161 19.6196 21.3161 19.6198 21.3161C19.62 21.3161 19.6202 21.3161 19.6204 21.3161C19.6205 21.3161 19.6207 21.3161 19.6209 21.3161C19.6211 21.3161 19.6214 21.3161 19.6216 21.3161C19.6218 21.3161 19.622 21.3161 19.6222 21.3161C19.6225 21.3161 19.6227 21.3161 19.6229 21.3161C19.6232 21.3161 19.6234 21.3161 19.6237 21.3161C19.6239 21.3161 19.6242 21.3161 19.6244 21.3161C19.6247 21.3161 19.6249 21.3161 19.6252 21.3161C19.6255 21.3161 19.6258 21.3161 19.626 21.3161C19.6263 21.3161 19.6266 21.3161 19.6269 21.3161C19.6272 21.3161 19.6275 21.3161 19.6278 21.3161C19.6281 21.3161 19.6284 21.3161 19.6287 21.3161C19.6291 21.3161 19.6294 21.3161 19.6297 21.3161C19.63 21.3161 19.6304 21.3161 19.6307 21.3161C19.6311 21.3161 19.6314 21.3161 19.6318 21.3161C19.6321 21.3161 19.6325 21.3161 19.6328 21.3161C19.6332 21.3161 19.6335 21.3161 19.6339 21.3161C19.6343 21.3161 19.6347 21.3161 19.6351 21.3161C19.6354 21.3161 19.6358 21.3161 19.6362 21.3161C19.6366 21.3161 19.637 21.3161 19.6374 21.3161C19.6378 21.3161 19.6382 21.3161 19.6387 21.3161C19.6391 21.3161 19.6395 21.3161 19.6399 21.3161C19.6404 21.3161 19.6408 21.3161 19.6412 21.3161C19.6417 21.3161 19.6421 21.3161 19.6426 21.3161C19.643 21.3161 19.6435 21.3161 19.6439 21.3161C19.6444 21.3161 19.6449 21.3161 19.6453 21.3161C19.6458 21.3161 19.6463 21.3161 19.6468 21.3161C19.6473 21.3161 19.6477 21.3161 19.6482 21.3161C19.6487 21.3161 19.6492 21.3161 19.6497 21.3161C19.6502 21.3161 19.6507 21.3161 19.6513 21.3161C19.6518 21.3161 19.6523 21.3161 19.6528 21.3161C19.6534 21.3161 19.6539 21.3161 19.6544 21.3161C19.655 21.3161 19.6555 21.3161 19.656 21.3161C19.6566 21.3161 19.6571 21.3161 19.6577 21.3161C19.6583 21.3161 19.6588 21.3161 19.6594 21.3161C19.66 21.3161 19.6605 21.3161 19.6611 21.3161C19.6617 21.3161 19.6623 21.3161 19.6629 21.3161C19.6635 21.3161 19.6641 21.3161 19.6647 21.3161C19.6653 21.3161 19.6659 21.3161 19.6665 21.3161C19.6671 21.3161 19.6677 21.3161 19.6683 21.3161C19.6689 21.3161 19.6696 21.3161 19.6702 21.3161C19.6708 21.3161 19.6715 21.3161 19.6721 21.3161C19.6727 21.3161 19.6734 21.3161 19.674 21.3161C19.6747 21.3161 19.6754 21.3161 19.676 21.3161C19.6767 21.3161 19.6773 21.3161 19.678 21.3161C19.6787 21.3161 19.6794 21.3161 19.68 21.3161C19.6807 21.3161 19.6814 21.3161 19.6821 21.3161C19.6828 21.3161 19.6835 21.3161 19.6842 21.3161C19.6849 21.3161 19.6856 21.3161 19.6863 21.3161C19.687 21.3161 19.6878 21.3161 19.6885 21.3161C19.6892 21.3161 19.6899 21.3161 19.6907 21.3161C19.6914 21.3161 19.6921 21.3161 19.6929 21.3161C19.6936 21.3161 19.6944 21.3161 19.6951 21.3161C19.6959 21.3161 19.6966 21.3161 19.6974 21.3161C19.6982 21.3161 19.6989 21.3161 19.6997 21.3161C19.7005 21.3161 19.7013 21.3161 19.702 21.3161C19.7028 21.3161 19.7036 21.3161 19.7044 21.3161C19.7052 21.3161 19.706 21.3161 19.7068 21.3161C19.7076 21.3161 19.7084 21.3161 19.7092 21.3161C19.71 21.3161 19.7109 21.3161 19.7117 21.3161C19.7125 21.3161 19.7133 21.3161 19.7142 21.3161C19.715 21.3161 19.7158 21.3161 19.7167 21.3161C19.7175 21.3161 19.7184 21.3161 19.7192 21.3161C19.7201 21.3161 19.7209 21.3161 19.7218 21.3161C19.7226 21.3161 19.7235 21.3161 19.7244 21.3161C19.7253 21.3161 19.7261 21.3161 19.727 21.3161C19.7279 21.3161 19.7288 21.3161 19.7297 21.3161C19.7306 21.3161 19.7314 21.3161 19.7323 21.3161C19.7332 21.3161 19.7342 21.3161 19.7351 21.3161C19.736 21.3161 19.7369 21.3161 19.7378 21.3161C19.7387 21.3161 19.7396 21.3161 19.7406 21.3161C19.7415 21.3161 19.7424 21.3161 19.7434 21.3161C19.7443 21.3161 19.7452 21.3161 19.7462 21.3161C19.7471 21.3161 19.7481 21.3161 19.749 21.3161C19.75 21.3161 19.751 21.3161 19.7519 21.3161C19.7529 21.3161 19.7539 21.3161 19.7548 21.3161C19.7558 21.3161 19.7568 21.3161 19.7578 21.3161C19.7588 21.3161 19.7597 21.3161 19.7607 21.3161C19.7617 21.3161 19.7627 21.3161 19.7637 21.3161C19.7647 21.3161 19.7657 21.3161 19.7668 21.3161C19.7678 21.3161 19.7688 21.3161 19.7698 21.3161C19.7708 21.3161 19.7718 21.3161 19.7729 21.3161C19.7739 21.3161 19.7749 21.3161 19.776 21.3161C19.777 21.3161 19.7781 21.3161 19.7791 21.3161C19.7801 21.3161 19.7812 21.3161 19.7823 21.3161C19.7833 21.3161 19.7844 21.3161 19.7854 21.3161C19.7865 21.3161 19.7876 21.3161 19.7886 21.3161C19.7897 21.3161 19.7908 21.3161 19.7919 21.3161C19.793 21.3161 19.7941 21.3161 19.7951 21.3161C19.7962 21.3161 19.7973 21.3161 19.7984 21.3161C19.7995 21.3161 19.8006 21.3161 19.8017 21.3161C19.8029 21.3161 19.804 21.3161 19.8051 21.3161C19.8062 21.3161 19.8073 21.3161 19.8085 21.3161C19.8096 21.3161 19.8107 21.3161 19.8118 21.3161C19.813 21.3161 19.8141 21.3161 19.8153 21.3161C19.8164 21.3161 19.8176 21.3161 19.8187 21.3161C19.8199 21.3161 19.821 21.3161 19.8222 21.3161C19.8233 21.3161 19.8245 21.3161 19.8257 21.3161C19.8268 21.3161 19.828 21.3161 19.8292 21.3161C19.8304 21.3161 19.8316 21.3161 19.8328 21.3161C19.8339 21.3161 19.8351 21.3161 19.8363 21.3161C19.8375 21.3161 19.8387 21.3161 19.8399 21.3161C19.8411 21.3161 19.8423 21.3161 19.8435 21.3161C19.8448 21.3161 19.846 21.3161 19.8472 21.3161C19.8484 21.3161 19.8496 21.3161 19.8509 21.3161C19.8521 21.3161 19.8533 21.3161 19.8546 21.3161C19.8558 21.3161 19.857 21.3161 19.8583 21.3161C19.8595 21.3161 19.8608 21.3161 19.862 21.3161C19.8633 21.3161 19.8645 21.3161 19.8658 21.3161C19.8671 21.3161 19.8683 21.3161 19.8696 21.3161C19.8709 21.3161 19.8721 21.3161 19.8734 21.3161C19.8747 21.3161 19.876 21.3161 19.8773 21.3161C19.8786 21.3161 19.8798 21.3161 19.8811 21.3161C19.8824 21.3161 19.8837 21.3161 19.885 21.3161C19.8863 21.3161 19.8876 21.3161 19.889 21.3161C19.8903 21.3161 19.8916 21.3161 19.8929 21.3161C19.8942 21.3161 19.8955 21.3161 19.8969 21.3161C19.8982 21.3161 19.8995 21.3161 19.9009 21.3161C19.9022 21.3161 19.9035 21.3161 19.9049 21.3161C19.9062 21.3161 19.9076 21.3161 19.9089 21.3161C19.9102 21.3161 19.9116 21.3161 19.913 21.3161C19.9143 21.3161 19.9157 21.3161 19.917 21.3161C19.9184 21.3161 19.9198 21.3161 19.9212 21.3161C19.9225 21.3161 19.9239 21.3161 19.9253 21.3161C19.9267 21.3161 19.928 21.3161 19.9294 21.3161C19.9308 21.3161 19.9322 21.3161 19.9336 21.3161C19.935 21.3161 19.9364 21.3161 19.9378 21.3161C19.9392 21.3161 19.9406 21.3161 19.942 21.3161C19.9434 21.3161 19.9449 21.3161 19.9463 21.3161C19.9477 21.3161 19.9491 21.3161 19.9505 21.3161C19.952 21.3161 19.9534 21.3161 19.9548 21.3161C19.9563 21.3161 19.9577 21.3161 19.9591 21.3161C19.9606 21.3161 19.962 21.3161 19.9635 21.3161C19.9649 21.3161 19.9664 21.3161 19.9678 21.3161C19.9693 21.3161 19.9707 21.3161 19.9722 21.3161C19.9737 21.3161 19.9751 21.3161 19.9766 21.3161C19.9781 21.3161 19.9796 21.3161 19.981 21.3161C19.9825 21.3161 19.984 21.3161 19.9855 21.3161C19.987 21.3161 19.9884 21.3161 19.9899 21.3161C19.9914 21.3161 19.9929 21.3161 19.9944 21.3161C19.9959 21.3161 19.9974 21.3161 19.9989 21.3161C20.0004 21.3161 20.002 21.3161 20.0035 21.3161C20.005 21.3161 20.0065 21.3161 20.008 21.3161C20.0095 21.3161 20.0111 21.3161 20.0126 21.3161C20.0141 21.3161 20.0156 21.3161 20.0172 21.3161C20.0187 21.3161 20.0203 21.3161 20.0218 21.3161C20.0233 21.3161 20.0249 21.3161 20.0264 21.3161C20.028 21.3161 20.0295 21.3161 20.0311 21.3161C20.0326 21.3161 20.0342 21.3161 20.0358 21.3161C20.0373 21.3161 20.0389 21.3161 20.0405 21.3161C20.042 21.3161 20.0436 21.3161 20.0452 21.3161C20.0468 21.3161 20.0483 21.3161 20.0499 21.3161C20.0515 21.3161 20.0531 21.3161 20.0547 21.3161C20.0563 21.3161 20.0579 21.3161 20.0595 21.3161C20.0611 21.3161 20.0627 21.3161 20.0643 21.3161C20.0659 21.3161 20.0675 21.3161 20.0691 21.3161C20.0707 21.3161 20.0723 21.3161 20.0739 21.3161C20.0755 21.3161 20.0772 21.3161 20.0788 21.3161C20.0804 21.3161 20.082 21.3161 20.0837 21.3161C20.0853 21.3161 20.0869 21.3161 20.0886 21.3161C20.0902 21.3161 20.0918 21.3161 20.0935 21.3161C20.0951 21.3161 20.0968 21.3161 20.0984 21.3161C20.1001 21.3161 20.1017 21.3161 20.1034 21.3161C20.105 21.3161 20.1067 21.3161 20.1083 21.3161C20.11 21.3161 20.1117 21.3161 20.1133 21.3161C20.115 21.3161 20.1167 21.3161 20.1184 21.3161C20.12 21.3161 20.1217 21.3161 20.1234 21.3161C20.1251 21.3161 20.1268 21.3161 20.1284 21.3161C20.1301 21.3161 20.1318 21.3161 20.1335 21.3161C20.1352 21.3161 20.1369 21.3161 20.1386 21.3161C20.1403 21.3161 20.142 21.3161 20.1437 21.3161C20.1454 21.3161 20.1471 21.3161 20.1488 21.3161C20.1505 21.3161 20.1523 21.3161 20.154 21.3161C20.1557 21.3161 20.1574 21.3161 20.1591 21.3161C20.1609 21.3161 20.1626 21.3161 20.1643 21.3161C20.1661 21.3161 20.1678 21.3161 20.1695 21.3161C20.1713 21.3161 20.173 21.3161 20.1747 21.3161C20.1765 21.3161 20.1782 21.3161 20.18 21.3161C20.1817 21.3161 20.1835 21.3161 20.1852 21.3161C20.187 21.3161 20.1887 21.3161 20.1905 21.3161C20.1923 21.3161 20.194 21.3161 20.1958 21.3161C20.1976 21.3161 20.1993 21.3161 20.2011 21.3161C20.2029 21.3161 20.2046 21.3161 20.2064 21.3161C20.2082 21.3161 20.21 21.3161 20.2118 21.3161C20.2136 21.3161 20.2153 21.3161 20.2171 21.3161C20.2189 21.3161 20.2207 21.3161 20.2225 21.3161C20.2243 21.3161 20.2261 21.3161 20.2279 21.3161C20.2297 21.3161 20.2315 21.3161 20.2333 21.3161C20.2351 21.3161 20.2369 21.3161 20.2387 21.3161C20.2405 21.3161 20.2424 21.3161 20.2442 21.3161C20.246 21.3161 20.2478 21.3161 20.2496 21.3161C20.2515 21.3161 20.2533 21.3161 20.2551 21.3161C20.2569 21.3161 20.2588 21.3161 20.2606 21.3161C20.2624 21.3161 20.2643 21.3161 20.2661 21.3161C20.268 21.3161 20.2698 21.3161 20.2716 21.3161C20.2735 21.3161 20.2753 21.3161 20.2772 21.3161C20.279 21.3161 20.2809 21.3161 20.2827 21.3161C20.2846 21.3161 20.2865 21.3161 20.2883 21.3161C20.2902 21.3161 20.292 21.3161 20.2939 21.3161C20.2958 21.3161 20.2976 21.3161 20.2995 21.3161C20.3014 21.3161 20.3033 21.3161 20.3051 21.3161C20.307 21.3161 20.3089 21.3161 20.3108 21.3161C20.3126 21.3161 20.3145 21.3161 20.3164 21.3161C20.3183 21.3161 20.3202 21.3161 20.3221 21.3161C20.324 21.3161 20.3259 21.3161 20.3278 21.3161C20.3297 21.3161 20.3316 21.3161 20.3335 21.3161C20.3354 21.3161 20.3373 21.3161 20.3392 21.3161C20.3411 21.3161 20.343 21.3161 20.3449 21.3161C20.3468 21.3161 20.3487 21.3161 20.3507 21.3161C20.3526 21.3161 20.3545 21.3161 20.3564 21.3161C20.3583 21.3161 20.3603 21.3161 20.3622 21.3161C20.3641 21.3161 20.366 21.3161 20.368 21.3161C20.3699 21.3161 20.3718 21.3161 20.3738 21.3161C20.3757 21.3161 20.3776 21.3161 20.3796 21.3161C20.3815 21.3161 20.3835 21.3161 20.3854 21.3161C20.3874 21.3161 20.3893 21.3161 20.3913 21.3161C20.3932 21.3161 20.3952 21.3161 20.3971 21.3161C20.3991 21.3161 20.401 21.3161 20.403 21.3161C20.405 21.3161 20.4069 21.3161 20.4089 21.3161C20.4108 21.3161 20.4128 21.3161 20.4148 21.3161C20.4168 21.3161 20.4187 21.3161 20.4207 21.3161C20.4227 21.3161 20.4246 21.3161 20.4266 21.3161C20.4286 21.3161 20.4306 21.3161 20.4326 21.3161C20.4345 21.3161 20.4365 21.3161 20.4385 21.3161C20.4405 21.3161 20.4425 21.3161 20.4445 21.3161C20.4465 21.3161 20.4485 21.3161 20.4505 21.3161C20.4525 21.3161 20.4545 21.3161 20.4565 21.3161C20.4585 21.3161 20.4605 21.3161 20.4625 21.3161C20.4645 21.3161 20.4665 21.3161 20.4685 21.3161C20.4705 21.3161 20.4725 21.3161 20.4745 21.3161C20.4765 21.3161 20.4786 21.3161 20.4806 21.3161C20.4826 21.3161 20.4846 21.3161 20.4866 21.3161C20.4887 21.3161 20.4907 21.3161 20.4927 21.3161C20.4947 21.3161 20.4968 21.3161 20.4988 21.3161C20.5008 21.3161 20.5029 21.3161 20.5049 21.3161C20.5069 21.3161 20.509 21.3161 20.511 21.3161C20.513 21.3161 20.5151 21.3161 20.5171 21.3161C20.5192 21.3161 20.5212 21.3161 20.5233 21.3161C20.5253 21.3161 20.5273 21.3161 20.5294 21.3161C20.5314 21.3161 20.5335 21.3161 20.5356 21.3161C20.5376 21.3161 20.5397 21.3161 20.5417 21.3161C20.5438 21.3161 20.5458 21.3161 20.5479 21.3161C20.55 21.3161 20.552 21.3161 20.5541 21.3161C20.5562 21.3161 20.5582 21.3161 20.5603 21.3161C20.5624 21.3161 20.5644 21.3161 20.5665 21.3161C20.5686 21.3161 20.5707 21.3161 20.5727 21.3161C20.5748 21.3161 20.5769 21.3161 20.579 21.3161C20.5811 21.3161 20.5831 21.3161 20.5852 21.3161C20.5873 21.3161 20.5894 21.3161 20.5915 21.3161C20.5936 21.3161 20.5957 21.3161 20.5978 21.3161C20.5998 21.3161 20.6019 21.3161 20.604 21.3161C20.6061 21.3161 20.6082 21.3161 20.6103 21.3161C20.6124 21.3161 20.6145 21.3161 20.6166 21.3161C20.6187 21.3161 20.6208 21.3161 20.6229 21.3161C20.6251 21.3161 20.6272 21.3161 20.6293 21.3161C20.6314 21.3161 20.6335 21.3161 20.6356 21.3161C20.6377 21.3161 20.6398 21.3161 20.642 21.3161C20.6441 21.3161 20.6462 21.3161 20.6483 21.3161C20.6504 21.3161 20.6525 21.3161 20.6547 21.3161C20.6568 21.3161 20.6589 21.3161 20.661 21.3161C20.6632 21.3161 20.6653 21.3161 20.6674 21.3161C20.6696 21.3161 20.6717 21.3161 20.6738 21.3161C20.676 21.3161 20.6781 21.3161 20.6802 21.3161C20.6824 21.3161 20.6845 21.3161 20.6866 21.3161C20.6888 21.3161 20.6909 21.3161 20.6931 21.3161C20.6952 21.3161 20.6974 21.3161 20.6995 21.3161C20.7016 21.3161 20.7038 21.3161 20.7059 21.3161C20.7081 21.3161 20.7102 21.3161 20.7124 21.3161C20.7145 21.3161 20.7167 21.3161 20.7188 21.3161C20.721 21.3161 20.7232 21.3161 20.7253 21.3161C20.7275 21.3161 20.7296 21.3161 20.7318 21.3161C20.734 21.3161 20.7361 21.3161 20.7383 21.3161C20.7404 21.3161 20.7426 21.3161 20.7448 21.3161C20.7469 21.3161 20.7491 21.3161 20.7513 21.3161C20.7535 21.3161 20.7556 21.3161 20.7578 21.3161C20.76 21.3161 20.7621 21.3161 20.7643 21.3161C20.7665 21.3161 20.7687 21.3161 20.7708 21.3161C20.773 21.3161 20.7752 21.3161 20.7774 21.3161C20.7796 21.3161 20.7817 21.3161 20.7839 21.3161C20.7861 21.3161 20.7883 21.3161 20.7905 21.3161C20.7927 21.3161 20.7949 21.3161 20.797 21.3161C20.7992 21.3161 20.8014 21.3161 20.8036 21.3161C20.8058 21.3161 20.808 21.3161 20.8102 21.3161C20.8124 21.3161 20.8146 21.3161 20.8168 21.3161C20.819 21.3161 20.8212 21.3161 20.8234 21.3161C20.8256 21.3161 20.8278 21.3161 20.83 21.3161C20.8322 21.3161 20.8344 21.3161 20.8366 21.3161C20.8388 21.3161 20.841 21.3161 20.8432 21.3161C20.8454 21.3161 20.8476 21.3161 20.8498 21.3161C20.852 21.3161 20.8542 21.3161 20.8564 21.3161C20.8586 21.3161 20.8609 21.3161 20.8631 21.3161C20.8653 21.3161 20.8675 21.3161 20.8697 21.3161C20.8719 21.3161 20.8741 21.3161 20.8764 21.3161C20.8786 21.3161 20.8808 21.3161 20.883 21.3161C20.8852 21.3161 20.8875 21.3161 20.8897 21.3161C20.8919 21.3161 20.8941 21.3161 20.8963 21.3161C20.8986 21.3161 20.9008 21.3161 20.903 21.3161C20.9052 21.3161 20.9075 21.3161 20.9097 21.3161C20.9119 21.3161 20.9142 21.3161 20.9164 21.3161C20.9186 21.3161 20.9209 21.3161 20.9231 21.3161C20.9253 21.3161 20.9276 21.3161 20.9298 21.3161C20.932 21.3161 20.9343 21.3161 20.9365 21.3161C20.9387 21.3161 20.941 21.3161 20.9432 21.3161C20.9454 21.3161 20.9477 21.3161 20.9499 21.3161C20.9522 21.3161 20.9544 21.3161 20.9566 21.3161C20.9589 21.3161 20.9611 21.3161 20.9634 21.3161C20.9656 21.3161 20.9679 21.3161 20.9701 21.3161C20.9723 21.3161 20.9746 21.3161 20.9768 21.3161C20.9791 21.3161 20.9813 21.3161 20.9836 21.3161C20.9858 21.3161 20.9881 21.3161 20.9903 21.3161C20.9926 21.3161 20.9948 21.3161 20.9971 21.3161C20.9993 21.3161 21.0016 21.3161 21.0038 21.3161C21.0061 21.3161 21.0084 21.3161 21.0106 21.3161C21.0129 21.3161 21.0151 21.3161 21.0174 21.3161C21.0196 21.3161 21.0219 21.3161 21.0242 21.3161C21.0264 21.3161 21.0287 21.3161 21.0309 21.3161C21.0332 21.3161 21.0354 21.3161 21.0377 21.3161C21.04 21.3161 21.0422 21.3161 21.0445 21.3161C21.0468 21.3161 21.049 21.3161 21.0513 21.3161C21.0536 21.3161 21.0558 21.3161 21.0581 21.3161C21.0604 21.3161 21.0626 21.3161 21.0649 21.3161C21.0672 21.3161 21.0694 21.3161 21.0717 21.3161C21.074 21.3161 21.0762 21.3161 21.0785 21.3161C21.0808 21.3161 21.083 21.3161 21.0853 21.3161C21.0876 21.3161 21.0898 21.3161 21.0921 21.3161C21.0944 21.3161 21.0967 21.3161 21.0989 21.3161C21.1012 21.3161 21.1035 21.3161 21.1058 21.3161C21.108 21.3161 21.1103 21.3161 21.1126 21.3161C21.1149 21.3161 21.1171 21.3161 21.1194 21.3161C21.1217 21.3161 21.124 21.3161 21.1262 21.3161C21.1285 21.3161 21.1308 21.3161 21.1331 21.3161C21.1354 21.3161 21.1376 21.3161 21.1399 21.3161C21.1422 21.3161 21.1445 21.3161 21.1467 21.3161C21.149 21.3161 21.1513 21.3161 21.1536 21.3161C21.1559 21.3161 21.1582 21.3161 21.1604 21.3161C21.1627 21.3161 21.165 21.3161 21.1673 21.3161C21.1696 21.3161 21.1719 21.3161 21.1741 21.3161C21.1764 21.3161 21.1787 21.3161 21.181 21.3161C21.1833 21.3161 21.1856 21.3161 21.1878 21.3161C21.1901 21.3161 21.1924 21.3161 21.1947 21.3161C21.197 21.3161 21.1993 21.3161 21.2016 21.3161C21.2038 21.3161 21.2061 21.3161 21.2084 21.3161C21.2107 21.3161 21.213 21.3161 21.2153 21.3161C21.2176 21.3161 21.2199 21.3161 21.2221 21.3161C21.2244 21.3161 21.2267 21.3161 21.229 21.3161C21.2313 21.3161 21.2336 21.3161 21.2359 21.3161C21.2382 21.3161 21.2405 21.3161 21.2428 21.3161C21.245 21.3161 21.2473 21.3161 21.2496 21.3161C21.2519 21.3161 21.2542 21.3161 21.2565 21.3161C21.2588 21.3161 21.2611 21.3161 21.2634 21.3161C21.2657 21.3161 21.268 21.3161 21.2702 21.3161C21.2725 21.3161 21.2748 21.3161 21.2771 21.3161C21.2794 21.3161 21.2817 21.3161 21.284 21.3161C21.2863 21.3161 21.2886 21.3161 21.2909 21.3161C21.2932 21.3161 21.2955 21.3161 21.2978 21.3161C21.3 21.3161 21.3023 21.3161 21.3046 21.3161C21.3069 21.3161 21.3092 21.3161 21.3115 21.3161C21.3138 21.3161 21.3161 21.3161 21.3184 21.3161C21.3207 21.3161 21.323 21.3161 21.3253 21.3161C21.3276 21.3161 21.3299 21.3161 21.3322 21.3161C21.3344 21.3161 21.3367 21.3161 21.339 21.3161C21.3413 21.3161 21.3436 21.3161 21.3459 21.3161C21.3482 21.3161 21.3505 21.3161 21.3528 21.3161C21.3551 21.3161 21.3574 21.3161 21.3597 21.3161C21.362 21.3161 21.3643 21.3161 21.3666 21.3161C21.3689 21.3161 21.3711 21.3161 21.3734 21.3161C21.3757 21.3161 21.378 21.3161 21.3803 21.3161C21.3826 21.3161 21.3849 21.3161 21.3872 21.3161C21.3895 21.3161 21.3918 21.3161 21.3941 21.3161C21.3964 21.3161 21.3987 21.3161 21.401 21.3161C21.4032 21.3161 21.4055 21.3161 21.4078 21.3161C21.4101 21.3161 21.4124 21.3161 21.4147 21.3161C21.417 21.3161 21.4193 21.3161 21.4216 21.3161C21.4239 21.3161 21.4262 21.3161 21.4285 21.3161C21.4308 21.3161 21.433 21.3161 21.4353 21.3161C21.4376 21.3161 21.4399 21.3161 21.4422 21.3161C21.4445 21.3161 21.4468 21.3161 21.4491 21.3161C21.4514 21.3161 21.4537 21.3161 21.4559 21.3161C21.4582 21.3161 21.4605 21.3161 21.4628 21.3161C21.4651 21.3161 21.4674 21.3161 21.4697 21.3161C21.472 21.3161 21.4743 21.3161 21.4765 21.3161C21.4788 21.3161 21.4811 21.3161 21.4834 21.3161C21.4857 21.3161 21.488 21.3161 21.4903 21.3161C21.4925 21.3161 21.4948 21.3161 21.4971 21.3161C21.4994 21.3161 21.5017 21.3161 21.504 21.3161C21.5063 21.3161 21.5085 21.3161 21.5108 21.3161C21.5131 21.3161 21.5154 21.3161 21.5177 21.3161C21.52 21.3161 21.5222 21.3161 21.5245 21.3161C21.5268 21.3161 21.5291 21.3161 21.5314 21.3161C21.5337 21.3161 21.5359 21.3161 21.5382 21.3161C21.5405 21.3161 21.5428 21.3161 21.5451 21.3161C21.5473 21.3161 21.5496 21.3161 21.5519 21.3161C21.5542 21.3161 21.5565 21.3161 21.5587 21.3161C21.561 21.3161 21.5633 21.3161 21.5656 21.3161C21.5678 21.3161 21.5701 21.3161 21.5724 21.3161C21.5747 21.3161 21.5769 21.3161 21.5792 21.3161C21.5815 21.3161 21.5838 21.3161 21.586 21.3161C21.5883 21.3161 21.5906 21.3161 21.5929 21.3161C21.5951 21.3161 21.5974 21.3161 21.5997 21.3161C21.6019 21.3161 21.6042 21.3161 21.6065 21.3161C21.6088 21.3161 21.611 21.3161 21.6133 21.3161C21.6156 21.3161 21.6178 21.3161 21.6201 21.3161C21.6224 21.3161 21.6246 21.3161 21.6269 21.3161C21.6292 21.3161 21.6314 21.3161 21.6337 21.3161C21.636 21.3161 21.6382 21.3161 21.6405 21.3161C21.6428 21.3161 21.645 21.3161 21.6473 21.3161C21.6495 21.3161 21.6518 21.3161 21.6541 21.3161C21.6563 21.3161 21.6586 21.3161 21.6608 21.3161C21.6631 21.3161 21.6654 21.3161 21.6676 21.3161C21.6699 21.3161 21.6721 21.3161 21.6744 21.3161C21.6766 21.3161 21.6789 21.3161 21.6812 21.3161C21.6834 21.3161 21.6857 21.3161 21.6879 21.3161C21.6902 21.3161 21.6924 21.3161 21.6947 21.3161C21.6969 21.3161 21.6992 21.3161 21.7014 21.3161C21.7037 21.3161 21.7059 21.3161 21.7082 21.3161C21.7104 21.3161 21.7127 21.3161 21.7149 21.3161C21.7171 21.3161 21.7194 21.3161 21.7216 21.3161C21.7239 21.3161 21.7261 21.3161 21.7284 21.3161C21.7306 21.3161 21.7329 21.3161 21.7351 21.3161C21.7373 21.3161 21.7396 21.3161 21.7418 21.3161C21.7441 21.3161 21.7463 21.3161 21.7485 21.3161C21.7508 21.3161 21.753 21.3161 21.7552 21.3161C21.7575 21.3161 21.7597 21.3161 21.7619 21.3161C21.7642 21.3161 21.7664 21.3161 21.7686 21.3161C21.7709 21.3161 21.7731 21.3161 21.7753 21.3161C21.7775 21.3161 21.7798 21.3161 21.782 21.3161C21.7842 21.3161 21.7865 21.3161 21.7887 21.3161C21.7909 21.3161 21.7931 21.3161 21.7954 21.3161C21.7976 21.3161 21.7998 21.3161 21.802 21.3161C21.8042 21.3161 21.8065 21.3161 21.8087 21.3161C21.8109 21.3161 21.8131 21.3161 21.8153 21.3161C21.8175 21.3161 21.8198 21.3161 21.822 21.3161C21.8242 21.3161 21.8264 21.3161 21.8286 21.3161C21.8308 21.3161 21.833 21.3161 21.8352 21.3161C21.8374 21.3161 21.8397 21.3161 21.8419 21.3161C21.8441 21.3161 21.8463 21.3161 21.8485 21.3161C21.8507 21.3161 21.8529 21.3161 21.8551 21.3161C21.8573 21.3161 21.8595 21.3161 21.8617 21.3161C21.8639 21.3161 21.8661 21.3161 21.8683 21.3161C21.8705 21.3161 21.8727 21.3161 21.8749 21.3161C21.8771 21.3161 21.8793 21.3161 21.8815 21.3161C21.8836 21.3161 21.8858 21.3161 21.888 21.3161C21.8902 21.3161 21.8924 21.3161 21.8946 21.3161C21.8968 21.3161 21.899 21.3161 21.9011 21.3161C21.9033 21.3161 21.9055 21.3161 21.9077 21.3161C21.9099 21.3161 21.9121 21.3161 21.9142 21.3161C21.9164 21.3161 21.9186 21.3161 21.9208 21.3161C21.9229 21.3161 21.9251 21.3161 21.9273 21.3161C21.9295 21.3161 21.9316 21.3161 21.9338 21.3161C21.936 21.3161 21.9381 21.3161 21.9403 21.3161C21.9425 21.3161 21.9446 21.3161 21.9468 21.3161C21.949 21.3161 21.9511 21.3161 21.9533 21.3161C21.9555 21.3161 21.9576 21.3161 21.9598 21.3161C21.9619 21.3161 21.9641 21.3161 21.9663 21.3161C21.9684 21.3161 21.9706 21.3161 21.9727 21.3161C21.9749 21.3161 21.977 21.3161 21.9792 21.3161C21.9813 21.3161 21.9835 21.3161 21.9856 21.3161C21.9878 21.3161 21.9899 21.3161 21.9921 21.3161C21.9942 21.3161 21.9963 21.3161 21.9985 21.3161C22.0006 21.3161 22.0028 21.3161 22.0049 21.3161C22.007 21.3161 22.0092 21.3161 22.0113 21.3161C22.0134 21.3161 22.0156 21.3161 22.0177 21.3161C22.0198 21.3161 22.022 21.3161 22.0241 21.3161C22.0262 21.3161 22.0283 21.3161 22.0305 21.3161C22.0326 21.3161 22.0347 21.3161 22.0368 21.3161C22.039 21.3161 22.0411 21.3161 22.0432 21.3161C22.0453 21.3161 22.0474 21.3161 22.0495 21.3161C22.0517 21.3161 22.0538 21.3161 22.0559 21.3161C22.058 21.3161 22.0601 21.3161 22.0622 21.3161C22.0643 21.3161 22.0664 21.3161 22.0685 21.3161C22.0706 21.3161 22.0727 21.3161 22.0748 21.3161C22.0769 21.3161 22.079 21.3161 22.0811 21.3161C22.0832 21.3161 22.0853 21.3161 22.0874 21.3161C22.0895 21.3161 22.0916 21.3161 22.0937 21.3161C22.0958 21.3161 22.0979 21.3161 22.1 21.3161C22.102 21.3161 22.1041 21.3161 22.1062 21.3161C22.1083 21.3161 22.1104 21.3161 22.1124 21.3161C22.1145 21.3161 22.1166 21.3161 22.1187 21.3161C22.1208 21.3161 22.1228 21.3161 22.1249 21.3161C22.127 21.3161 22.129 21.3161 22.1311 21.3161C22.1332 21.3161 22.1352 21.3161 22.1373 21.3161C22.1394 21.3161 22.1414 21.3161 22.1435 21.3161C22.1455 21.3161 22.1476 21.3161 22.1497 21.3161C22.1517 21.3161 22.1538 21.3161 22.1558 21.3161C22.1579 21.3161 22.1599 21.3161 22.162 21.3161C22.164 21.3161 22.1661 21.3161 22.1681 21.3161C22.1702 21.3161 22.1722 21.3161 22.1742 21.3161C22.1763 21.3161 22.1783 21.3161 22.1803 21.3161C22.1824 21.3161 22.1844 21.3161 22.1864 21.3161C22.1885 21.3161 22.1905 21.3161 22.1925 21.3161C22.1946 21.3161 22.1966 21.3161 22.1986 21.3161C22.2006 21.3161 22.2027 21.3161 22.2047 21.3161C22.2067 21.3161 22.2087 21.3161 22.2107 21.3161C22.2127 21.3161 22.2148 21.3161 22.2168 21.3161C22.2188 21.3161 22.2208 21.3161 22.2228 21.3161C22.2248 21.3161 22.2268 21.3161 22.2288 21.3161C22.2308 21.3161 22.2328 21.3161 22.2348 21.3161V19.6461ZM19.6157 19.6461C18.7621 19.6461 18.2204 20.326 17.9421 20.89C17.6369 21.5084 17.4712 22.3046 17.4712 23.1394H19.1412C19.1412 22.5055 19.2701 21.9726 19.4397 21.629C19.6361 21.231 19.7492 21.3161 19.6157 21.3161V19.6461ZM17.4712 23.1394C17.4712 23.9742 17.6369 24.7703 17.9421 25.3888C18.2204 25.9527 18.7621 26.6326 19.6157 26.6326V24.9626C19.7492 24.9626 19.6361 25.0477 19.4397 24.6497C19.2701 24.3062 19.1412 23.7733 19.1412 23.1394H17.4712ZM19.6157 26.6326H22.2348V24.9626H19.6157V26.6326ZM30.4993 16.9879C29.3922 16.989 28.3033 17.2709 27.3415 17.8073L28.1549 19.2658C28.8663 18.8691 29.6755 18.6587 30.501 18.6579L30.4993 16.9879ZM27.3415 17.8073C26.3795 18.3438 25.577 19.117 25.0173 20.0524L26.4503 20.9099C26.8569 20.2304 27.4438 19.6624 28.1549 19.2658L27.3415 17.8073ZM25.7338 19.6461H22.2348V21.3161H25.7338V19.6461ZM22.2348 26.6326H25.7338V24.9626H22.2348V26.6326ZM25.0173 26.2264C25.577 27.1617 26.3795 27.9349 27.3415 28.4714L28.1549 27.0129C27.4438 26.6163 26.8569 26.0483 26.4503 25.3688L25.0173 26.2264ZM27.3415 28.4714C28.3033 29.0079 29.3922 29.2897 30.4993 29.2908L30.501 27.6208C29.6755 27.62 28.8663 27.4097 28.1549 27.0129L27.3415 28.4714ZM32.165 23.1394C32.165 24.5051 31.8843 25.7001 31.4698 26.523C31.0309 27.3939 30.5778 27.6208 30.3214 27.6208V29.2908C31.5444 29.2908 32.4305 28.3276 32.9612 27.2744C33.5161 26.173 33.835 24.7099 33.835 23.1394H32.165ZM30.3214 27.6208C30.0651 27.6208 29.6119 27.3939 29.1731 26.523C28.7585 25.7001 28.4778 24.5051 28.4778 23.1394H26.8078C26.8078 24.7099 27.1268 26.173 27.6817 27.2744C28.2123 28.3276 29.0984 29.2908 30.3214 29.2908V27.6208ZM28.4778 23.1394C28.4778 21.7737 28.7585 20.5786 29.1731 19.7558C29.6119 18.8848 30.0651 18.6579 30.3214 18.6579V16.9879C29.0984 16.9879 28.2123 17.9512 27.6817 19.0044C27.1268 20.1057 26.8078 21.5689 26.8078 23.1394H28.4778ZM30.3214 18.6579C30.5778 18.6579 31.0309 18.8848 31.4698 19.7558C31.8843 20.5786 32.165 21.7737 32.165 23.1394H33.835C33.835 21.5689 33.5161 20.1057 32.9612 19.0044C32.4305 17.9512 31.5444 16.9879 30.3214 16.9879V18.6579ZM23.2627 26.2178L25.6654 30.3443L27.1086 29.504L24.7059 25.3775L23.2627 26.2178ZM25.6616 30.3378C25.6972 30.4001 25.7211 30.4703 25.7312 30.5444L27.386 30.3195C27.3474 30.0351 27.2547 29.7602 27.1124 29.5105L25.6616 30.3378ZM25.7312 30.5444C25.7413 30.6185 25.7371 30.6939 25.719 30.7659L27.3389 31.172C27.4087 30.8935 27.4246 30.604 27.386 30.3195L25.7312 30.5444ZM25.719 30.7659C25.701 30.8379 25.6697 30.904 25.6283 30.9608L26.9769 31.9457C27.1465 31.7135 27.2691 31.4505 27.3389 31.172L25.719 30.7659ZM25.6283 30.9608C25.5868 31.0175 25.5363 31.0635 25.4806 31.0973L26.3473 32.5247C26.5937 32.3752 26.8073 32.178 26.9769 31.9457L25.6283 30.9608ZM25.4814 31.0968C25.4257 31.1305 25.3655 31.1518 25.3043 31.1605L25.5391 32.8139C25.8253 32.7732 26.0997 32.6747 26.3466 32.5252L25.4814 31.0968ZM25.3043 31.1605C25.2431 31.1692 25.1808 31.1653 25.1205 31.149L24.6828 32.7606C24.9617 32.8363 25.2528 32.8545 25.5391 32.8139L25.3043 31.1605ZM25.1205 31.149C25.0602 31.1326 25.002 31.1036 24.9496 31.0624L23.9172 32.3751C24.1439 32.5534 24.4039 32.6848 24.6828 32.7606L25.1205 31.149ZM24.9496 31.0624C24.8972 31.0212 24.8514 30.9683 24.8162 30.9057L23.3608 31.7247C23.5019 31.9755 23.6906 32.1968 23.9172 32.3751L24.9496 31.0624ZM24.8061 30.8883L21.5237 25.3701L20.0884 26.2238L23.3708 31.7421L24.8061 30.8883ZM14.0635 18.0513C11.0478 18.0801 8.05559 18.5746 5.1988 19.5168L5.72185 21.1028C8.41447 20.2148 11.2356 19.7484 14.0794 19.7213L14.0635 18.0513ZM5.18887 19.5201C4.31442 19.8207 3.55259 20.3777 3.00993 21.1191L4.35752 22.1054C4.69546 21.6437 5.17445 21.291 5.73178 21.0994L5.18887 19.5201ZM3.00993 21.1191C2.46703 21.8608 2.17081 22.7502 2.16502 23.6658L3.83498 23.6764C3.83853 23.1154 4.01983 22.5668 4.35752 22.1054L3.00993 21.1191ZM2.165 23.6711V28.4559H3.835V23.6711H2.165ZM3 29.2909H12.8413V27.6209H3V29.2909ZM14.25 18.0511C12.8618 18.0511 11.5178 17.2372 10.4866 15.9311C9.45738 14.6276 8.83495 12.9454 8.83495 11.443H7.16495C7.16495 13.3645 7.94251 15.4038 9.17585 16.9659C10.4071 18.5253 12.1881 19.7211 14.25 19.7211V18.0511ZM8.83495 11.443V10.2025H7.16495V11.443H8.83495ZM8.83495 10.2025C8.83495 8.78105 9.40391 7.41647 10.4187 6.40936L9.24237 5.224C7.91298 6.54329 7.16495 8.334 7.16495 10.2025H8.83495ZM10.4187 6.40936C11.4338 5.40204 12.8118 4.835 14.25 4.835V3.165C12.3729 3.165 10.5715 3.90492 9.24237 5.224L10.4187 6.40936ZM14.25 4.835C15.6882 4.835 17.0662 5.40204 18.0812 6.40936L19.2576 5.224C17.9284 3.90492 16.127 3.165 14.25 3.165V4.835ZM18.0812 6.40936C19.096 7.41647 19.665 8.78105 19.665 10.2025H21.335C21.335 8.334 20.587 6.54329 19.2576 5.224L18.0812 6.40936ZM19.665 10.2025V11.443H21.335V10.2025H19.665ZM19.665 11.443C19.665 12.9454 19.0425 14.6276 18.0134 15.9311C16.9821 17.2372 15.6381 18.0511 14.25 18.0511V19.7211C16.3118 19.7211 18.0929 18.5253 19.3241 16.9659C20.5574 15.4038 21.335 13.3645 21.335 11.443H19.665Z" fill="#0033CC"/>
</svg>
