<svg width="24" height="24" viewBox="0 0 24 24" fill="none" xmlns="http://www.w3.org/2000/svg">
<path d="M10.2 4.79999H21" stroke-width="1.67" stroke-linecap="round" stroke-linejoin="round"/>
<path d="M10.2 12H21"  stroke-width="1.67" stroke-linecap="round" stroke-linejoin="round"/>
<path d="M10.2 19.2H21"  stroke-width="1.67" stroke-linecap="round" stroke-linejoin="round"/>
<path d="M3.00834 5.26973L3.00834 5.26973L3.00679 5.26762C2.88707 5.10556 2.835 4.95297 2.835 4.8145C2.835 4.64525 2.90247 4.47623 3.03452 4.32509L3.03516 4.32435C3.70833 3.55206 4.58235 3.0099 5.57912 2.84452C5.73661 2.81916 5.8848 2.84413 6.01406 2.91992C6.14931 2.99922 6.24695 3.12165 6.29918 3.26647L6.29913 3.26649L6.30245 3.27539C6.66339 4.24154 6.63772 5.2887 6.31397 6.2671L6.31239 6.27193C6.24997 6.46451 6.14042 6.60435 6.00269 6.6856C5.89266 6.74894 5.74235 6.77883 5.53527 6.7561L5.53527 6.75607L5.52918 6.75545C5.1328 6.71488 4.63824 6.54039 4.15418 6.25572C3.67176 5.97202 3.26199 5.61537 3.00834 5.26973Z"  stroke-width="1.67"/>
<path d="M3.00834 12.2697L3.00834 12.2697L3.00679 12.2676C2.88707 12.1056 2.835 11.953 2.835 11.8145C2.835 11.6452 2.90247 11.4762 3.03452 11.3251L3.03516 11.3244C3.70833 10.5521 4.58235 10.0099 5.57912 9.84452C5.73661 9.81916 5.8848 9.84413 6.01406 9.91992C6.14931 9.99922 6.24695 10.1216 6.29918 10.2665L6.29913 10.2665L6.30245 10.2754C6.66339 11.2415 6.63772 12.2887 6.31397 13.2671L6.31239 13.2719C6.24997 13.4645 6.14042 13.6043 6.00269 13.6856C5.89266 13.7489 5.74235 13.7788 5.53527 13.7561L5.53527 13.7561L5.52918 13.7555C5.1328 13.7149 4.63824 13.5404 4.15418 13.2557C3.67176 12.972 3.26199 12.6154 3.00834 12.2697Z"  stroke-width="1.67"/>
<path d="M3.00834 19.7697L3.00834 19.7697L3.00679 19.7676C2.88707 19.6056 2.835 19.453 2.835 19.3145C2.835 19.1452 2.90247 18.9762 3.03452 18.8251L3.03516 18.8244C3.70833 18.0521 4.58235 17.5099 5.57912 17.3445C5.73661 17.3192 5.8848 17.3441 6.01406 17.4199C6.14931 17.4992 6.24695 17.6216 6.29918 17.7665L6.29913 17.7665L6.30245 17.7754C6.66339 18.7415 6.63772 19.7887 6.31397 20.7671L6.31239 20.7719C6.24997 20.9645 6.14042 21.1043 6.00269 21.1856C5.89266 21.2489 5.74235 21.2788 5.53527 21.2561L5.53527 21.2561L5.52918 21.2555C5.1328 21.2149 4.63824 21.0404 4.15418 20.7557C3.67176 20.472 3.26199 20.1154 3.00834 19.7697Z"  stroke-width="1.67"/>
</svg>
