<svg width="36" height="36" viewBox="0 0 36 36" fill="none" xmlns="http://www.w3.org/2000/svg">
<path d="M16.6766 11.3823H26.2549L27.6039 16.8235L33.0001 19.5441V27.7058H26.0255M14.0294 15.1833V27.7058H3V9.61766M9.61766 6.97042V9.61747H12.7059M26.3823 28.8088C26.3823 31.1236 24.5059 33 22.1912 33C19.8765 33 18 31.1236 18 28.8088C18 26.4941 19.8765 24.6177 22.1912 24.6177C24.5059 24.6177 26.3823 26.4941 26.3823 28.8088ZM16.6764 9.83822C16.6764 13.6149 13.6149 16.6764 9.83822 16.6764C6.06157 16.6764 3 13.6149 3 9.83822C3 6.06157 6.06157 3 9.83822 3C13.6149 3 16.6764 6.06157 16.6764 9.83822Z" stroke="#0033CC" stroke-width="1.67" stroke-linecap="round" stroke-linejoin="round"/>
</svg>
