<svg width="24" height="24" viewBox="0 0 24 24" fill="none" xmlns="http://www.w3.org/2000/svg">
<path d="M11.9999 12C10.8065 12 9.66188 11.5211 8.81797 10.6687C7.97405 9.81621 7.49994 8.66007 7.49994 7.45454V6.54545C7.49994 5.33992 7.97405 4.18378 8.81797 3.33134C9.66188 2.4789 10.8065 2 11.9999 2C13.1934 2 14.338 2.4789 15.1819 3.33134C16.0258 4.18378 16.4999 5.33992 16.4999 6.54545V7.45454C16.4999 8.66007 16.0258 9.81621 15.1819 10.6687C14.338 11.5211 13.1934 12 11.9999 12Z"  stroke-width="1.67" stroke-linecap="round" stroke-linejoin="round"/>
<path d="M21 20.1C21.0011 19.3042 20.7438 18.53 20.2675 17.8962C19.7912 17.2623 19.1221 16.8038 18.363 16.5909C14.2145 15.3183 9.78545 15.3183 5.637 16.5909C4.87788 16.8038 4.20885 17.2623 3.73252 17.8962C3.25619 18.53 2.99887 19.3042 3 20.1V22H21V20.1Z" stroke-width="1.67" stroke-linecap="round" stroke-linejoin="round"/>
</svg>
