<?xml version="1.0" encoding="utf-8"?><svg xmlns="http://www.w3.org/2000/svg" xmlns:xlink="http://www.w3.org/1999/xlink"><symbol fill="none" viewBox="0 0 36 36" id="agreement" xmlns="http://www.w3.org/2000/svg"><path d="M4.778 19.039l-.675.49.04.055.047.048.588-.593zm10.48-6.762l.378-.744-.517-.262-.427.392.566.614zM7.909 13.57l-.566-.615-.803.74.925.582.444-.707zm7.349-6.766l-.566-.615.566.615zm14.698 13.532l-.566-.614-.008.008.574.606zm-18.005 10.21l-.58.601.005.004.575-.605zm-6.854-6.603l-.581.6h.001l.58-.6zm0-4.71l.58.6.003-.002-.583-.597zm4.839 0l-.584.598.001.001.583-.598zm6.785 6.604l-.582.598.002.002.58-.6zm0 4.709l.576.605.005-.005-.58-.6zm-2.385.945v-.835.835zm14.05-11.909l.576-.605-.575.605zm0 6.145l.575.605-.574-.605zm-5.272 5.002l.574.606-.574-.606zM19.875 32v.835V32zM18.07 4.189a11.74 11.74 0 00-7.056-.805l.32 1.639a10.07 10.07 0 016.05.688l.686-1.522zm-7.056-.805c-2.38.466-4.54 1.656-6.14 3.396l1.23 1.13c1.35-1.468 3.186-2.487 5.23-2.887l-.32-1.639zM4.874 6.78c-1.6 1.742-2.55 3.937-2.69 6.249l1.666.101c.116-1.917.904-3.752 2.253-5.22l-1.23-1.13zm-2.69 6.249c-.141 2.311.537 4.596 1.919 6.5l1.351-.98c-1.16-1.599-1.72-3.503-1.604-5.419l-1.667-.101zm2.006 6.603l.236.233 1.176-1.185-.236-.234-1.176 1.186zm20.7-7.97c-1.513 1.387-3.712 1.447-5.733 1.046a15.402 15.402 0 01-3.462-1.146l-.048-.023-.01-.006h-.002l-.377.745-.377.744.002.002.006.002.018.01.063.03c.055.027.133.063.232.109a17.075 17.075 0 003.629 1.171c2.169.43 5.068.491 7.187-1.453l-1.128-1.23zm-10.198.001c-1.725 1.588-3.327 1.843-4.468 1.745a5.028 5.028 0 01-1.398-.324 3.99 3.99 0 01-.46-.215l-.016-.01c-.001 0-.001 0 0 0v.001h.002v.001l-.443.708-.443.707.003.002a.195.195 0 00.005.003l.015.01a2.855 2.855 0 00.196.108c.126.066.306.15.531.24.45.176 1.09.367 1.866.433 1.58.135 3.652-.256 5.742-2.18l-1.132-1.229zm-6.217 2.52l7.349-6.766-1.132-1.229-7.349 6.766 1.132 1.229zm7.349-6.766c1.788-1.646 4.227-2.582 6.783-2.582v-1.67c-2.957 0-5.805 1.08-7.915 3.023l1.132 1.229zm6.783-2.582c2.556 0 4.995.936 6.783 2.582l1.131-1.229c-2.11-1.942-4.957-3.023-7.914-3.023v1.67zm6.783 2.582c1.786 1.644 2.775 3.859 2.775 6.152h1.67c0-2.783-1.201-5.436-3.314-7.38l-1.13 1.228zm2.775 6.152c0 2.293-.989 4.507-2.775 6.152l1.131 1.228c2.113-1.945 3.314-4.598 3.314-7.38h-1.67zm-2.783 6.16l-.491.464 1.148 1.213.491-.465-1.148-1.212zM12.53 29.943L5.676 23.34l-1.159 1.203 6.855 6.603 1.158-1.203zm-6.853-6.601a2.482 2.482 0 01-.557-.808l-1.536.656c.217.507.534.966.932 1.351l1.161-1.2zm-.557-.808a2.409 2.409 0 01-.194-.947h-1.67c0 .55.112 1.096.328 1.603l1.536-.656zm-.194-.947c0-.324.066-.646.194-.947l-1.536-.656a4.08 4.08 0 00-.328 1.603h1.67zm.194-.947c.129-.3.318-.575.557-.807l-1.161-1.2a4.152 4.152 0 00-.932 1.351l1.536.656zm.56-.81c.239-.234.524-.42.84-.547l-.627-1.549a4.257 4.257 0 00-1.38.902L5.68 19.83zm.84-.547a2.66 2.66 0 01.996-.194v-1.67c-.556 0-1.108.107-1.623.315l.626 1.549zm.996-.194c.343 0 .682.066.997.194l.626-1.549a4.331 4.331 0 00-1.623-.315v1.67zm.997.194c.316.127.6.313.839.547l1.168-1.194a4.257 4.257 0 00-1.38-.902l-.627 1.549zm.84.548l6.786 6.603 1.165-1.197-6.786-6.603-1.165 1.197zm6.788 6.605c.24.232.428.506.557.807l1.536-.656a4.154 4.154 0 00-.932-1.351l-1.161 1.2zm.557.807c.128.301.194.623.194.947h1.67c0-.55-.112-1.095-.328-1.603l-1.536.656zm.194.947c0 .325-.066.646-.194.947l1.536.656a4.08 4.08 0 00.328-1.603h-1.67zm-.194.947c-.129.3-.318.576-.557.808l1.161 1.2c.398-.386.715-.845.932-1.352l-1.536-.656zm-.552.802c-.48.457-1.13.716-1.81.716v1.67c1.103 0 2.166-.42 2.96-1.175l-1.15-1.21zm-1.81.716c-.68 0-1.33-.259-1.81-.716l-1.15 1.21a4.298 4.298 0 002.96 1.176v-1.67zm7.248-16.376l6.228 5.908 1.15-1.212-6.229-5.908-1.149 1.212zm6.228 5.908a3.401 3.401 0 011.08 2.466h1.67a5.07 5.07 0 00-1.6-3.677l-1.15 1.21zm1.08 2.466c0 .917-.383 1.805-1.08 2.467l1.15 1.211a5.07 5.07 0 001.6-3.678h-1.67zm-1.08 2.467l-5.273 5.002 1.15 1.212 5.272-5.003-1.149-1.211zm-5.273 5.002a3.875 3.875 0 01-2.664 1.043v1.67a5.545 5.545 0 003.813-1.501l-1.149-1.212zm-2.664 1.043a3.875 3.875 0 01-2.664-1.043l-1.149 1.212a5.545 5.545 0 003.813 1.501v-1.67z" fill="#03C"/></symbol><symbol fill="none" viewBox="0 0 24 24" id="arrow-right" xmlns="http://www.w3.org/2000/svg"><path d="M3 12h18M14.7 6l6.3 6-6.3 6"/></symbol><symbol fill="none" viewBox="0 0 36 36" id="atlant" xmlns="http://www.w3.org/2000/svg"><path d="M28.17 3v-.835H26.5V3h1.67zm-.835 4.09H26.5v.836h.835V7.09zm5.455 0v.836h.835V7.09h-.835zM33.625 3v-.835h-1.67V3h1.67zm-3.562 17.727v.835h.835v-.835h-.835zm.835-13.636v-.835h-1.67v.835h1.67zm-15-2.727v-.835h-1.67v.835h1.67zM9.608 15.8h-.835v1.67h.835v-1.67zm2.727 1.67h.835v-1.67h-.835v1.67zm5.455-1.67h-.835v1.67h.835v-1.67zm2.727 1.67h.835v-1.67h-.835v1.67zM10.443 9.736V4.364h-1.67v5.372h1.67zm10.91 0V4.364h-1.67v5.372h1.67zM26.5 20.727c0 6.317-5.12 11.438-11.437 11.438v1.67c7.239 0 13.107-5.869 13.107-13.108H26.5zM15.063 32.165c-6.317 0-11.438-5.12-11.438-11.438h-1.67c0 7.24 5.869 13.108 13.108 13.108v-1.67zM3.625 20.727c0-6.317 5.12-11.437 11.438-11.437V7.62c-7.24 0-13.108 5.868-13.108 13.107h1.67zM15.063 9.29c6.317 0 11.437 5.12 11.437 11.437h1.67c0-7.239-5.868-13.107-13.107-13.107v1.67zM26.5 3v4.09h1.67V3H26.5zm.835 4.926h5.455v-1.67h-5.454v1.67zm6.29-.835V3h-1.67v4.09h1.67zm-6.29 14.471h2.728v-1.67h-2.727v1.67zm3.563-.835V7.091h-1.67v13.636h1.67zm-15-12.272V4.364h-1.67v4.09h1.67zm1.057 16.363a1.892 1.892 0 01-1.892 1.892v1.67a3.562 3.562 0 003.562-3.562h-1.67zm-1.892 1.892a1.892 1.892 0 01-1.893-1.892H11.5a3.562 3.562 0 003.563 3.563v-1.67zm-1.893-1.892c0-1.045.848-1.892 1.893-1.892v-1.67a3.562 3.562 0 00-3.563 3.562h1.67zm1.893-1.892c1.045 0 1.892.847 1.892 1.892h1.67a3.562 3.562 0 00-3.562-3.562v1.67zM9.608 17.47h2.727v-1.67H9.608v1.67zm8.182 0h2.727v-1.67H17.79v1.67z" fill="#03C"/></symbol><symbol fill="none" viewBox="0 0 33 33" id="battery" xmlns="http://www.w3.org/2000/svg"><path d="M21.921 5.421l3.857-3.857 5.657 5.657-3.857 3.857m-6.707 2.936l-6.685 1.028 3.771 3.772-6.685 1.028m-9.535.107L19.093 2.593l11.314 11.314L13.05 31.263 1.737 19.949z" stroke="#03C" stroke-width="1.67" stroke-miterlimit="10" stroke-linecap="square"/></symbol><symbol fill="none" viewBox="0 0 24 24" id="bell" xmlns="http://www.w3.org/2000/svg"><path d="M9.3 19.182v.09c0 .724.285 1.418.79 1.93A2.687 2.687 0 0012 22c.716 0 1.403-.287 1.91-.799.506-.511.79-1.205.79-1.928v-.091"/><path d="M18.3 11.09V8.365a6.397 6.397 0 00-1.845-4.5A6.268 6.268 0 0012 2c-1.67 0-3.273.67-4.455 1.864a6.396 6.396 0 00-1.845 4.5v2.727c0 3-2.7 3.727-2.7 5.454 0 1.546 3.51 2.728 9 2.728s9-1.182 9-2.728c0-1.727-2.7-2.454-2.7-5.454z"/></symbol><symbol fill="none" viewBox="0 0 36 36" id="bird" xmlns="http://www.w3.org/2000/svg"><path d="M4 24.818l-.508-.662-.864.662.864.663.508-.663zM27.996 8.455h-.835v.835h.836v-.835zm-10.665 0h-.835v.007l.835-.007zM30.663 33v.835h.835V33h-.835zm-21.33 0h-.835v.835h.835V33zm-.509-12.935l-5.332 4.09 1.016 1.326 5.333-4.091-1.017-1.325zM3.492 25.48l5.332 4.09 1.017-1.324-5.333-4.091-1.016 1.325zm26.589-8.489a4.88 4.88 0 002.27-2.299l-1.508-.717a3.21 3.21 0 01-1.492 1.514l.73 1.502zm2.27-2.299a5.01 5.01 0 00.366-3.23l-1.63.361a3.34 3.34 0 01-.244 2.152l1.508.717zm.366-3.23a4.939 4.939 0 00-1.693-2.761l-1.056 1.293a3.27 3.27 0 011.118 1.829l1.631-.36zm-1.693-2.761a4.778 4.778 0 00-3.029-1.082l.002 1.67c.714-.001 1.409.246 1.97.705l1.057-1.293zm-2.193-.247c0-1.663-.645-3.26-1.8-4.441L25.838 5.18a4.684 4.684 0 011.324 3.274h1.67zm-1.8-4.441a6.108 6.108 0 00-4.367-1.849v1.67c1.186 0 2.328.482 3.173 1.346l1.195-1.167zm-4.367-1.849a6.108 6.108 0 00-4.368 1.849L19.49 5.18a4.438 4.438 0 013.174-1.346v-1.67zm-4.368 1.849a6.353 6.353 0 00-1.8 4.44h1.67c0-1.23.479-2.408 1.324-3.273l-1.194-1.167zm-1.8 4.448c.006.634.098 1.265.273 1.873l1.605-.461a5.331 5.331 0 01-.208-1.427l-1.67.015zm2.667 12.265c0 1.063-.838 1.892-1.832 1.892v1.67c1.952 0 3.502-1.612 3.502-3.562h-1.67zM17.33 22.62c-.993 0-1.831-.829-1.831-1.892h-1.67c0 1.95 1.55 3.563 3.501 3.563v-1.67zM15.5 20.727c0-1.063.838-1.892 1.831-1.892v-1.67c-1.951 0-3.501 1.613-3.501 3.562h1.67zm1.831-1.892c.994 0 1.832.83 1.832 1.892h1.67c0-1.95-1.55-3.562-3.502-3.562v1.67zm13.332 13.33H9.333v1.67h21.33v-1.67zM10.168 33V20.727h-1.67V33h1.67zm0-12.273c0-2.678 1.04-5.242 2.885-7.13L11.86 12.43a11.872 11.872 0 00-3.361 8.297h1.67zm2.885-7.13a9.71 9.71 0 016.945-2.944v-1.67a11.38 11.38 0 00-8.139 3.447l1.194 1.167zm6.945-2.944c2.6 0 5.099 1.057 6.944 2.944l1.194-1.167a11.38 11.38 0 00-8.138-3.447v1.67zm6.944 2.944a10.202 10.202 0 012.886 7.13h1.67c0-3.108-1.207-6.094-3.362-8.297l-1.194 1.167zm2.886 7.13V33h1.67V20.727h-1.67z" fill="#03C"/></symbol><symbol fill="none" viewBox="0 0 16 16" id="calendar--small" xmlns="http://www.w3.org/2000/svg"><path d="M11.818 3.09H14V14H2V3.09h2.182M5.273 3.09h5.454"/><path d="M5.273 2H4.182v2.182h1.09V2zM11.818 2h-1.09v2.182h1.09V2zM2 6.364h12"/></symbol><symbol fill="none" viewBox="0 0 16 16" id="case--small" xmlns="http://www.w3.org/2000/svg"><path d="M8 6.8v2.4M6.91 8h2.18M5.818 4.4V2h4.364v2.4"/><path d="M14 4.4H2v7.2h12V4.4z"/><path d="M13.455 11.6V14H2.545v-2.4"/></symbol><symbol fill="none" viewBox="0 0 24 24" id="chat" xmlns="http://www.w3.org/2000/svg"><path d="M19.636 16.32a7.391 7.391 0 001.713-2.374A7.325 7.325 0 0022 11.1C22 6.6 17.546 3 12 3 6.455 3 2 6.6 2 11.1s4.455 8.1 10 8.1a9.684 9.684 0 002.818-.36L20.182 21l-.546-4.68zM8.364 9.3h7.272M8.364 12.9h4.545"/></symbol><symbol fill="none" viewBox="0 0 20 20" id="checkbox" xmlns="http://www.w3.org/2000/svg"><path d="M0 4a4 4 0 014-4h12a4 4 0 014 4v12a4 4 0 01-4 4H4a4 4 0 01-4-4V4z" fill="#fff"/><path d="M4 1h12v-2H4v2zm15 3v12h2V4h-2zm-3 15H4v2h12v-2zM1 16V4h-2v12h2zm3 3a3 3 0 01-3-3h-2a5 5 0 005 5v-2zm15-3a3 3 0 01-3 3v2a5 5 0 005-5h-2zM16 1a3 3 0 013 3h2a5 5 0 00-5-5v2zM4-1a5 5 0 00-5 5h2a3 3 0 013-3v-2z" fill="#DBDEE5"/></symbol><symbol fill="none" viewBox="0 0 20 20" id="checkbox-checked" xmlns="http://www.w3.org/2000/svg"><path d="M0 4a4 4 0 014-4h12a4 4 0 014 4v12a4 4 0 01-4 4H4a4 4 0 01-4-4V4z" fill="#03C"/><path d="M5 10l3.333 3L15 7" stroke="#fff" stroke-width="2" stroke-miterlimit="10" stroke-linecap="square"/></symbol><symbol fill="none" viewBox="0 0 15 12" id="checkbox-stroke" xmlns="http://www.w3.org/2000/svg"><path d="M13.728 1.5l-8.75 8.743L1 6.269" stroke="#03C" stroke-width="1.33" stroke-linecap="square"/></symbol><symbol fill="none" viewBox="0 0 16 12" id="checked" xmlns="http://www.w3.org/2000/svg"><path d="M2 6l4 4 8-8" stroke="#fff" stroke-width="2" stroke-miterlimit="10" stroke-linecap="square"/></symbol><symbol fill="none" viewBox="0 0 16 16" id="chevron-right" xmlns="http://www.w3.org/2000/svg"><path d="M6 3l5 5-5 5" stroke="#8D8D9B" stroke-width="1.33" stroke-linecap="round" stroke-linejoin="round"/></symbol><symbol fill="none" viewBox="0 0 12 8" id="chevron-up" xmlns="http://www.w3.org/2000/svg"><path d="M1 6.5l5-5 5 5"/></symbol><symbol fill="none" viewBox="0 0 18 18" id="close-hamberger-btn" xmlns="http://www.w3.org/2000/svg"><path d="M16 2L2 16M16 16L2 2" stroke="#0E0E2B" stroke-width="1.67" stroke-miterlimit="10" stroke-linecap="square"/></symbol><symbol fill="none" viewBox="0 0 36 36" id="defense" xmlns="http://www.w3.org/2000/svg"><path d="M18 3l.447-.705L18 2.011l-.447.284L18 3zm0 30l-.329.767.329.141.329-.14L18 33zM3 7.5l-.015-.835-.82.014V7.5H3zm30 0h.835v-.82l-.82-.015L33 7.5zM17.165 3v30h1.67V3h-1.67zM31.35 17.165H4.65v1.67h26.7v-1.67zM17.553 2.295a28.1 28.1 0 01-14.568 4.37l.03 1.67a29.77 29.77 0 0015.432-4.63l-.894-1.41zM2.165 7.5c0 10.711 4.6 21.593 15.506 26.267l.658-1.535C8.235 27.908 3.835 17.79 3.835 7.5h-1.67zm16.164 26.267C29.235 29.093 33.835 18.212 33.835 7.5h-1.67c0 10.289-4.4 20.407-14.494 24.733l.658 1.535zM33.015 6.665a28.1 28.1 0 01-14.568-4.37l-.894 1.41a29.77 29.77 0 0015.433 4.63l.029-1.67z" fill="#03C"/></symbol><symbol fill="none" viewBox="0 0 24 24" id="departments" xmlns="http://www.w3.org/2000/svg"><path d="M10.008 5.27l-.001-.002a.768.768 0 01-.172-.454c0-.169.067-.338.2-.489.673-.773 1.547-1.315 2.544-1.48a.641.641 0 01.72.421l.004.01c.36.966.335 2.013.011 2.991l-.002.005a.722.722 0 01-.31.414c-.11.063-.26.093-.467.07h-.006c-.396-.041-.89-.216-1.375-.5-.482-.284-.892-.64-1.146-.986zM10.008 20.27l-.001-.002a.768.768 0 01-.172-.454c0-.169.067-.338.2-.489.673-.773 1.547-1.315 2.544-1.48a.642.642 0 01.72.422l.004.008c.36.966.335 2.014.011 2.992l-.002.005a.722.722 0 01-.31.414c-.11.063-.26.093-.467.07h-.006c-.396-.041-.89-.216-1.375-.5-.482-.284-.892-.64-1.146-.986zM2.008 20.27l-.001-.002a.768.768 0 01-.172-.454c0-.169.067-.338.2-.489.673-.773 1.547-1.315 2.544-1.48a.641.641 0 01.72.422l.003.008c.361.966.336 2.014.012 2.992l-.002.005a.722.722 0 01-.31.414c-.11.063-.26.093-.467.07H4.53c-.396-.041-.89-.216-1.375-.5-.482-.284-.892-.64-1.146-.986zM18.008 20.27l-.001-.002a.768.768 0 01-.172-.454c0-.169.067-.338.2-.489.673-.773 1.547-1.315 2.544-1.48a.642.642 0 01.72.422l.003.008c.361.966.336 2.014.012 2.992l-.002.005a.722.722 0 01-.31.414c-.11.063-.26.093-.467.07h-.006c-.396-.041-.89-.216-1.375-.5-.482-.284-.892-.64-1.146-.986zM12 10v4M4 14v-2h16v2"/></symbol><symbol fill="none" viewBox="0 0 64 73" id="departments-mediator" xmlns="http://www.w3.org/2000/svg"><path d="M4.717 47.109C1.924 43.319 0 38.769 0 33.714c0-5.686 2.296-10.74 5.71-14.658C16.696 6.42 31.343-2.868 48.473-5.71c4.655-.758 9.559-.063 13.965 2.528 4.407 2.59 7.51 6.57 9.124 11.056 6.144 16.49 5.586 34.055.31 50.04-1.614 4.991-4.779 9.54-9.62 12.384-4.345 2.527-9.186 3.032-13.779 2.527-15.392-1.58-34.322-12.826-43.756-25.715z" fill="#03C"/><path d="M27 35h18m0 0l-6.3-6m6.3 6l-6.3 6" stroke="#fff" stroke-width="1.67" stroke-linecap="round" stroke-linejoin="round"/></symbol><symbol fill="none" viewBox="0 0 36 36" id="engineer" xmlns="http://www.w3.org/2000/svg"><path d="M18 3l.447-.705L18 2.011l-.447.284L18 3zm0 30l-.329.767.329.141.329-.14L18 33zM3 7.5l-.015-.835-.82.014V7.5H3zm30 0h.835v-.82l-.82-.015L33 7.5zM17.165 3v30h1.67V3h-1.67zM31.35 17.165H4.65v1.67h26.7v-1.67zM17.553 2.295a28.1 28.1 0 01-14.568 4.37l.03 1.67a29.77 29.77 0 0015.432-4.63l-.894-1.41zM2.165 7.5c0 10.711 4.6 21.593 15.506 26.267l.658-1.535C8.235 27.908 3.835 17.79 3.835 7.5h-1.67zm16.164 26.267C29.235 29.093 33.835 18.212 33.835 7.5h-1.67c0 10.289-4.4 20.407-14.494 24.733l.658 1.535zM33.015 6.665a28.1 28.1 0 01-14.568-4.37l-.894 1.41a29.77 29.77 0 0015.433 4.63l.029-1.67z" fill="#03C"/></symbol><symbol fill="none" viewBox="0 0 24 24" id="folder" xmlns="http://www.w3.org/2000/svg"><path d="M2 8.364h20M22 22H2V2h8.182L12 4.727h10V22z"/></symbol><symbol fill="none" viewBox="0 0 24 24" id="gallery" xmlns="http://www.w3.org/2000/svg"><path d="M22 2H2v20h20V2z"/><path d="M4.727 18.364l3.637-5.455 2.727 2.727 3.636-4.545 4.546 7.273H4.727zM10.182 9.273a1.818 1.818 0 100-3.637 1.818 1.818 0 000 3.637z"/></symbol><symbol fill="none" viewBox="0 0 24 24" id="home" xmlns="http://www.w3.org/2000/svg"><path d="M4 9.3V22h6v-5h4v5h6V9.3"/><path d="M1 12L12 2l11 10"/><path d="M14 9h-4v4h4V9z"/></symbol><symbol fill="none" viewBox="0 0 36 36" id="jetovec" xmlns="http://www.w3.org/2000/svg"><path d="M28.2 8.482A12.268 12.268 0 0017.973 3 12.284 12.284 0 007.745 8.482M7.35 20.918C10.295 26.857 16.377 33 18 33c1.623 0 7.704-6.143 10.65-12.082m-21.56-.177a6.809 6.809 0 00-1.363 9.535 6.817 6.817 0 016.014-2.724m17.168-6.81a6.809 6.809 0 011.364 9.534 6.817 6.817 0 00-6.014-2.724m-8.823-6.933a6.823 6.823 0 01-10.028-1.7 6.804 6.804 0 01-1.044-3.626 6.721 6.721 0 01.545-2.724m15.655 8.05a6.823 6.823 0 0010.028-1.7 6.805 6.805 0 001.044-3.626 6.722 6.722 0 00-.545-2.724M18 13.93H8.455a5.458 5.458 0 01-3.857-1.596A5.445 5.445 0 013 8.482h9.546c1.446 0 2.834.575 3.856 1.596A5.445 5.445 0 0118 13.931zm0 0c-1.5 0-2.727 3.95-2.727 5.448 0 1.498 1.227 5.448 2.727 5.448 1.5 0 2.727-3.95 2.727-5.448 0-1.498-1.227-5.448-2.727-5.448zm0 0h9.546a5.458 5.458 0 003.856-1.596A5.445 5.445 0 0033 8.482h-9.546a5.458 5.458 0 00-3.856 1.596A5.445 5.445 0 0018 13.931zm-5.454 1.362a1.363 1.363 0 11-2.726-.002 1.363 1.363 0 012.726.002zm13.636 0a1.363 1.363 0 11-2.726-.002 1.363 1.363 0 012.726.002z" stroke="#03C" stroke-width="1.67" stroke-linecap="round" stroke-linejoin="round"/></symbol><symbol fill="none" viewBox="0 0 36 36" id="leader" xmlns="http://www.w3.org/2000/svg"><path d="M5.564 14.14l4.254-5.33m20.618 5.33l-4.254-5.33M5.564 25.95l4.24 5.332m16.391 0l4.255-5.332M18 20.727v1.364M11.182 9.818L8.455 7.773a3.41 3.41 0 10-4.091 5.454L9.818 17.4v5.29l-5.454 4.174a3.41 3.41 0 004.09 5.454l4.582-3.504a8.182 8.182 0 019.928 0l4.581 3.504a3.41 3.41 0 004.091-5.454l-5.454-4.173V17.4l5.454-4.173a3.409 3.409 0 10-4.09-5.454l-2.728 2.045m-13.636 0a6.818 6.818 0 1013.636 0m-13.636 0a6.818 6.818 0 0113.636 0" stroke="#03C" stroke-width="1.67" stroke-linecap="round" stroke-linejoin="round"/></symbol><symbol fill="none" viewBox="0 0 36 36" id="lists" xmlns="http://www.w3.org/2000/svg"><path d="M6.23 3H33v27.2M9.462 13.8h12.461M9.462 19.4h12.461M9.462 25h6M3 7h25.385v26H3V7z" stroke="#03C" stroke-width="1.67" stroke-miterlimit="10" stroke-linecap="square"/></symbol><symbol fill="none" viewBox="0 0 16 16" id="log-out--small" xmlns="http://www.w3.org/2000/svg"><path d="M6.5 8H14M11.5 10.727L14 8l-2.5-2.727M8 2H2v12h6"/></symbol><symbol fill="none" viewBox="0 0 31 32" id="logo" xmlns="http://www.w3.org/2000/svg"><path d="M2.591 23.803C1.308 22.426.315 20.68.073 18.64c-.267-2.287.436-4.426 1.622-6.172C5.522 6.861 10.995 2.434 17.728.443c1.84-.541 3.85-.492 5.74.344 1.889.811 3.318 2.262 4.19 3.983 3.22 6.32 3.826 13.402 2.47 20.066-.412 2.09-1.477 4.057-3.294 5.434-1.622 1.23-3.536 1.673-5.425 1.697-6.272.123-14.386-3.467-18.818-8.164z" fill="#00C3FF"/><path d="M2.422 21.885C1.332 20.41.582 18.64.582 16.672c0-2.213.895-4.18 2.227-5.705 4.287-4.918 10.003-8.533 16.687-9.64 1.817-.294 3.73-.024 5.45.984a8.18 8.18 0 013.56 4.304c2.397 6.418 2.18 13.254.12 19.475-.63 1.943-1.864 3.713-3.753 4.82-1.696.983-3.585 1.18-5.377.983-6.006-.614-13.393-4.991-17.074-10.008z" fill="#0E0E2B"/><path d="M24.51 18.369l2.106-1.426-.339-.541-9.445 6.418.34.54 6.756-4.573-4.456 4.721.46.443 1.429-1.55-1.647 3.665.557.27 1.84-4.033-.435-.196 3.172-3.418-.339-.32z" fill="#00C3FF"/><path d="M21.458 15.812h1.477l.363-1.353h-1.477l.727-2.754h-1.502l-1.453 5.484H16.25c-1.38 0-1.744-.861-1.526-2.041.218-1.18 1.26-2.14 2.277-2.164.823 0 1.235.491 1.235 1.057 0 .147-.024.32-.049.393h-1.865l-.363 1.353h3.39c.17-.467.316-1.082.316-1.55 0-1.425-.92-2.557-2.592-2.557-2.252 0-3.802 2.041-3.802 3.984 0 1.77 1.138 2.877 2.93 2.877h3.052c-.267.984.339 1.795 1.284 1.82h1.235l.363-1.377H21.07c-.218-.025-.363-.222-.29-.443l.678-2.73zM12.618 9.885H11.044l-.364 1.377h1.502l-1.38 5.189c-.17.492-.557.787-1.139.738h-.557l-.363 1.377h.533c.726.024 1.55-.05 2.18-.689l.024-.024c.363-.37.678-.837.823-1.427l1.72-6.54h-1.405z" fill="#fff"/></symbol><symbol fill="none" viewBox="0 0 36 36" id="manager" xmlns="http://www.w3.org/2000/svg"><path d="M19.31 27.4v.835h.508l.234-.45-.742-.385zm-2.648 0l-.742.383.234.452h.508V27.4zM3 33h-.835v.835H3V33zm30 0v.835h.835V33H33zM21.413 9.4l.757-.353-.768-1.65-.75 1.659.76.344zM18 23.4v.835-.835zM18 3v.835V3zm3.058 19.215l-2.489 4.8 1.483.77 2.489-4.8-1.483-.77zm-1.748 4.35h-2.648v1.67h2.648v-1.67zm-1.906.452l-2.462-4.774-1.484.765 2.462 4.775 1.484-.766zm-3.877-5.652h-.981v1.67h.981v-1.67zm-.981 0a10.43 10.43 0 00-7.338 3.01l1.175 1.186a8.76 8.76 0 016.163-2.526v-1.67zm-7.338 3.01a10.238 10.238 0 00-3.043 7.275h1.67c0-2.282.916-4.473 2.548-6.089l-1.175-1.187zM2.165 31.65V33h1.67v-1.35h-1.67zM3 33.835h30v-1.67H3v1.67zM33.835 33v-1.35h-1.67V33h1.67zm0-1.35c0-2.73-1.096-5.348-3.043-7.276l-1.175 1.187a8.568 8.568 0 012.548 6.089h1.67zm-3.043-7.276a10.43 10.43 0 00-7.338-3.01v1.67c2.313 0 4.53.91 6.163 2.527l1.175-1.187zm-7.338-3.01h-.981v1.67h.982v-1.67zM9.274 12.76a8.37 8.37 0 003.405 1.661l.374-1.627c-1-.23-1.933-.685-2.726-1.33L9.273 12.76zm3.405 1.661a8.406 8.406 0 003.793-.007l-.38-1.626c-.999.234-2.04.236-3.04.006l-.373 1.627zm3.793-.007a8.37 8.37 0 003.4-1.673l-1.058-1.292a6.7 6.7 0 01-2.721 1.34l.38 1.625zm3.4-1.673a8.287 8.287 0 002.302-2.997l-1.522-.688a6.618 6.618 0 01-1.838 2.393l1.058 1.292zm.784-2.99a8.342 8.342 0 002.162 2.838l1.081-1.273a6.673 6.673 0 01-1.73-2.269l-1.513.705zm2.162 2.838a8.42 8.42 0 003.154 1.683l.456-1.607a6.75 6.75 0 01-2.529-1.349l-1.081 1.272zM18 22.565a7.385 7.385 0 01-5.21-2.147l-1.177 1.184A9.055 9.055 0 0018 24.235v-1.67zm-5.21-2.147a7.305 7.305 0 01-2.155-5.178h-1.67c0 2.387.953 4.676 2.648 6.362l1.178-1.184zm-2.155-5.178v-4.08h-1.67v4.08h1.67zm0-4.08c0-1.941.775-3.804 2.156-5.178l-1.178-1.184a8.975 8.975 0 00-2.648 6.362h1.67zm2.156-5.178A7.385 7.385 0 0118 3.835v-1.67a9.055 9.055 0 00-6.388 2.633l1.178 1.184zM18 3.835c1.954 0 3.827.773 5.208 2.147l1.178-1.184A9.055 9.055 0 0018 2.165v1.67zm5.208 2.147a7.305 7.305 0 012.156 5.178h1.67a8.975 8.975 0 00-2.648-6.362L23.21 5.982zm2.156 5.178v4.08h1.67v-4.08h-1.67zm0 4.08a7.305 7.305 0 01-2.156 5.178l1.178 1.184a8.975 8.975 0 002.648-6.362h-1.67zm-2.156 5.178A7.385 7.385 0 0118 22.565v1.67a9.055 9.055 0 006.387-2.633l-1.178-1.184zm-8.662 12.955l2.8-5.6-1.494-.747-2.8 5.6 1.494.747zm4.106-5.6l2.8 5.6 1.494-.746-2.8-5.6-1.494.746z" fill="#03C"/></symbol><symbol fill="none" viewBox="0 0 24 24" id="menu--mobile" xmlns="http://www.w3.org/2000/svg"><path d="M2 12h11.818M2 5h20M2 19h20" stroke="#0E0E2B" stroke-width="1.67" stroke-miterlimit="10" stroke-linecap="square"/></symbol><symbol fill="none" viewBox="0 0 36 36" id="molecule" xmlns="http://www.w3.org/2000/svg"><path d="M20.035 15.481l4.05 6.885 1.44-.847-4.05-6.885-1.44.847zm-8.092 6.884l4.037-6.885-1.441-.845-4.036 6.885 1.44.845zm10.148 3.4h-8.182v1.67h8.182v-1.67zm-9.017.835c0 2.513-2.06 4.565-4.62 4.565v1.67c3.466 0 6.29-2.784 6.29-6.235h-1.67zm-4.62 4.565c-2.559 0-4.619-2.052-4.619-4.565h-1.67c0 3.451 2.824 6.235 6.29 6.235v-1.67zM3.836 26.6c0-2.513 2.06-4.565 4.62-4.565v-1.67c-3.466 0-6.29 2.784-6.29 6.235h1.67zm4.62-4.565c2.559 0 4.62 2.052 4.62 4.565h1.67c0-3.451-2.825-6.235-6.29-6.235v1.67zm23.71 4.565c0 2.513-2.06 4.565-4.62 4.565v1.67c3.466 0 6.29-2.784 6.29-6.235h-1.67zm-4.62 4.565c-2.559 0-4.62-2.052-4.62-4.565h-1.67c0 3.451 2.825 6.235 6.29 6.235v-1.67zm-4.62-4.565c0-2.513 2.061-4.565 4.62-4.565v-1.67c-3.465 0-6.29 2.784-6.29 6.235h1.67zm4.62-4.565c2.56 0 4.62 2.052 4.62 4.565h1.67c0-3.452-2.824-6.235-6.29-6.235v1.67zM22.62 10.4c0 2.513-2.06 4.565-4.62 4.565v1.67c3.467 0 6.29-2.784 6.29-6.235h-1.67zM18 14.965c-2.558 0-4.619-2.052-4.619-4.565h-1.67c0 3.451 2.824 6.235 6.29 6.235v-1.67zM13.38 10.4c0-2.513 2.06-4.565 4.62-4.565v-1.67c-3.466 0-6.29 2.784-6.29 6.235h1.67zM18 5.835c2.56 0 4.62 2.052 4.62 4.565h1.67c0-3.451-2.824-6.235-6.29-6.235v1.67z" fill="#03C"/></symbol><symbol fill="none" viewBox="0 0 36 36" id="pc" xmlns="http://www.w3.org/2000/svg"><path d="M4.565 19.191a.835.835 0 001.67 0h-1.67zm21.6-5.096a.835.835 0 001.67 0h-1.67zM17.4 24.822a.835.835 0 100-1.67v1.67zM3 23.987v-.835h-.835v.835H3zm14.4 4.433a.835.835 0 000-1.67v1.67zm14.4-7.539h.835v-.835H31.8v.835zm-11.4 8.423h.835-.835zM31.8 31v.835h.835V31H31.8zm-3.535-10.119v.835h1.67v-.835h-1.67zM29.1 18.5h.835v-.835H29.1v.835zm3.9 8.335h.835v-1.67H33v1.67zm-3-1.67h-.835v1.67H30v-1.67zM6.235 19.191V7.2h-1.67v11.992h1.67zm0-11.992c0-.096.038-.189.107-.257L5.162 5.76a2.034 2.034 0 00-.597 1.438h1.67zm.107-.257a.365.365 0 01.258-.107v-1.67c-.54 0-1.057.214-1.439.596l1.18 1.18zm.258-.107h19.2v-1.67H6.6v1.67zm19.2 0c.097 0 .19.038.258.107l1.18-1.181a2.035 2.035 0 00-1.438-.596v1.67zm.258.107c.069.068.107.16.107.257h1.67c0-.54-.215-1.057-.596-1.438l-1.18 1.18zm.107.257v6.896h1.67V7.199h-1.67zM17.4 23.152H3v1.67h14.4v-1.67zm-15.235.835c0 1.176.467 2.304 1.3 3.135l1.18-1.181a2.761 2.761 0 01-.81-1.954h-1.67zm1.3 3.135A4.436 4.436 0 006.6 28.42v-1.67a2.766 2.766 0 01-1.955-.81l-1.18 1.182zM6.6 28.42h10.8v-1.67H6.6v1.67zM32.635 26v-3.126-1.406-.429-.117-.03-.008-.002-.001h-1.67V26h1.67zm-.835-5.954H21.6v1.67h10.2v-1.67zm-10.2 0c.004 0-.037-.002-.112-.037a.623.623 0 01-.166-.112l-1.176 1.186c.327.325.878.633 1.454.633v-1.67zm-.278-.149a.291.291 0 01-.087-.206h-1.67c0 .523.21 1.024.58 1.392l1.177-1.186zm-1.757-.206v9.613h1.67V19.69h-1.67zm0 9.613c0 .673.27 1.318.748 1.792l1.176-1.186a.854.854 0 01-.254-.606h-1.67zm.748 1.792c.478.474 1.124.739 1.797.739v-1.67a.882.882 0 01-.621-.255l-1.176 1.186zm1.797.739h9.69v-1.67h-9.69v1.67zM32.635 31v-5h-1.67v5h1.67zm-2.7-10.119V18.5h-1.67v2.381h1.67zm-.835-3.216h-7.54v1.67h7.54v-1.67zm-7.54 0c-.538 0-1.049.221-1.42.606l1.2 1.16a.306.306 0 01.22-.096v-1.67zm-1.42.606c-.371.383-.575.898-.575 1.428h1.67c0-.105.04-.2.105-.267l-1.2-1.161zm-.575 1.428c0 .53.204 1.045.575 1.429l1.2-1.161a.385.385 0 01-.105-.268h-1.67zm.575 1.429c.413.427.995.588 1.46.588v-1.67a.521.521 0 01-.173-.031.251.251 0 01-.087-.048l-1.2 1.16zm11.66 5.707H33v-1.67h-1.2v1.67zm-1.8 0h1.8v-1.67H30v1.67z" fill="#03C"/></symbol><symbol fill="none" viewBox="0 0 24 24" id="question" xmlns="http://www.w3.org/2000/svg"><path d="M9.044 4.856l.002-.002c.853-.62 1.836-1.019 2.9-1.019 1.21 0 2.301.481 3.166 1.225v.001c3.076 2.64 5.309 6.136 5.991 10.195.163.987.012 2.01-.534 2.926a4.47 4.47 0 01-2.36 1.922l-.01.003c-3.974 1.462-8.226 1.336-12.12.067l-.006-.001C4.968 19.82 4 19.14 3.403 18.138c-.521-.886-.643-1.9-.529-2.927l.001-.006c.184-1.772.942-3.8 2.068-5.687 1.125-1.884 2.58-3.563 4.1-4.662z"/><path d="M12.046 14.318v-.909a2.727 2.727 0 100-5.454A3.054 3.054 0 009.5 9.682M12.046 17.046v.909"/></symbol><symbol fill="none" viewBox="0 0 24 24" id="rocket" xmlns="http://www.w3.org/2000/svg"><mask id="bha" fill="#fff"><path d="M22.809 1.191a.653.653 0 00-.5-.19c-.069.004-1.714.106-3.994.837-2.1.674-5.163 2.037-7.826 4.7-.62.62-1.274 1.319-1.89 2.037-1.034-.35-3.558-.754-7.288 1.536a.653.653 0 00.085 1.157l4.18 1.785-1.363 1.425a.653.653 0 00.01.913l.487.486c-.369.182-.69.408-.96.678-1.52 1.52-1.186 4.19-1.17 4.303a.653.653 0 00.56.562c.036.005.327.041.755.041.93 0 2.509-.172 3.549-1.212.27-.27.497-.591.678-.96l.487.487a.651.651 0 00.913.01l1.424-1.361 1.785 4.178a.653.653 0 001.158.085c2.289-3.73 1.885-6.253 1.536-7.287a36.956 36.956 0 002.038-1.89c2.662-2.663 4.025-5.726 4.699-7.826.731-2.28.833-3.925.837-3.994a.653.653 0 00-.19-.5zm-19.672 9.4c1.613-.795 2.859-.983 3.675-.983h.015c.34 0 .63.033.865.078-.607.787-1.123 1.557-1.45 2.232L3.136 10.59zm3.384 8.735c-.732.732-1.97.835-2.676.829-.007-.706.097-1.945.828-2.676.26-.26.608-.462 1.037-.602l1.412 1.413c-.14.428-.342.776-.601 1.036zm2.56-.925L5.6 14.92l1.08-1.13 3.533 3.531-1.13 1.081zm4.327 2.462l-1.326-3.104c.675-.328 1.446-.844 2.232-1.452.04.212.07.466.077.762.018.835-.157 2.12-.983 3.794zm3.131-8.276c-1.949 1.95-3.947 3.515-5.155 4.058l-4.03-4.029c.544-1.208 2.11-3.206 4.059-5.155 1.934-1.934 4.1-3.132 5.887-3.863l3.1 3.1c-.761 1.87-1.965 3.993-3.86 5.89zm4.356-7.241L18.65 3.102l.023-.007a18.692 18.692 0 012.928-.698c-.1.666-.305 1.71-.707 2.949z"/></mask><path d="M22.809 1.191a.653.653 0 00-.5-.19c-.069.004-1.714.106-3.994.837-2.1.674-5.163 2.037-7.826 4.7-.62.62-1.274 1.319-1.89 2.037-1.034-.35-3.558-.754-7.288 1.536a.653.653 0 00.085 1.157l4.18 1.785-1.363 1.425a.653.653 0 00.01.913l.487.486c-.369.182-.69.408-.96.678-1.52 1.52-1.186 4.19-1.17 4.303a.653.653 0 00.56.562c.036.005.327.041.755.041.93 0 2.509-.172 3.549-1.212.27-.27.497-.591.678-.96l.487.487a.651.651 0 00.913.01l1.424-1.361 1.785 4.178a.653.653 0 001.158.085c2.289-3.73 1.885-6.253 1.536-7.287a36.956 36.956 0 002.038-1.89c2.662-2.663 4.025-5.726 4.699-7.826.731-2.28.833-3.925.837-3.994a.653.653 0 00-.19-.5zm-19.672 9.4c1.613-.795 2.859-.983 3.675-.983h.015c.34 0 .63.033.865.078-.607.787-1.123 1.557-1.45 2.232L3.136 10.59zm3.384 8.735c-.732.732-1.97.835-2.676.829-.007-.706.097-1.945.828-2.676.26-.26.608-.462 1.037-.602l1.412 1.413c-.14.428-.342.776-.601 1.036zm2.56-.925L5.6 14.92l1.08-1.13 3.533 3.531-1.13 1.081zm4.327 2.462l-1.326-3.104c.675-.328 1.446-.844 2.232-1.452.04.212.07.466.077.762.018.835-.157 2.12-.983 3.794zm3.131-8.276c-1.949 1.95-3.947 3.515-5.155 4.058l-4.03-4.029c.544-1.208 2.11-3.206 4.059-5.155 1.934-1.934 4.1-3.132 5.887-3.863l3.1 3.1c-.761 1.87-1.965 3.993-3.86 5.89zm4.356-7.241L18.65 3.102l.023-.007a18.692 18.692 0 012.928-.698c-.1.666-.305 1.71-.707 2.949z" stroke="#0E0E2B" stroke-width="3.34" mask="url(#bha)"/><mask id="bhb" fill="#fff"><path d="M12.335 9.764a1.597 1.597 0 01-.335-.95c0-.402.163-.76.406-1.038.78-.896 1.821-1.554 3.038-1.755a1.476 1.476 0 011.64.962c.437 1.169.398 2.414.023 3.546-.115.354-.34.677-.684.878-.308.18-.652.215-.979.18-1.094-.113-2.439-.91-3.109-1.823z"/></mask><path d="M12.335 9.764a1.597 1.597 0 01-.335-.95c0-.402.163-.76.406-1.038.78-.896 1.821-1.554 3.038-1.755a1.476 1.476 0 011.64.962c.437 1.169.398 2.414.023 3.546-.115.354-.34.677-.684.878-.308.18-.652.215-.979.18-1.094-.113-2.439-.91-3.109-1.823z" stroke="#0E0E2B" stroke-width="3.34" mask="url(#bhb)"/></symbol><symbol fill="none" viewBox="0 0 21 21" id="search" xmlns="http://www.w3.org/2000/svg"><path d="M19 19l-4.8-4.8M8.714 16.428A7.714 7.714 0 108.714 1a7.714 7.714 0 000 15.428z"/></symbol><symbol fill="none" viewBox="0 0 24 24" id="services" xmlns="http://www.w3.org/2000/svg"><path d="M14.207 7.561l-.001-.002c-.237-.325-.371-.675-.371-1.035 0-.418.166-.806.44-1.125 1.13-1.317 2.612-2.256 4.315-2.542a1.472 1.472 0 011.007.181c.318.19.546.482.667.822l.003.009c.618 1.679.569 3.485.025 5.153l-.002.005c-.13.41-.374.745-.712.946-.288.17-.637.221-1.032.177h-.006c-.714-.075-1.563-.386-2.371-.869-.807-.481-1.511-1.097-1.962-1.72zM3.207 7.561l-.001-.002c-.237-.325-.371-.675-.371-1.035 0-.418.166-.806.44-1.125 1.13-1.317 2.612-2.256 4.315-2.542a1.472 1.472 0 011.007.181c.318.19.546.482.667.822l.003.009c.618 1.679.569 3.485.025 5.153l-.002.005c-.13.41-.374.745-.712.946-.288.17-.637.221-1.032.177H7.54c-.714-.075-1.563-.386-2.371-.869-.807-.481-1.511-1.097-1.962-1.72zM14.207 18.561l-.001-.002c-.237-.325-.371-.675-.371-1.035 0-.418.166-.806.44-1.125 1.13-1.317 2.612-2.256 4.315-2.542a1.473 1.473 0 011.007.181c.318.19.546.482.667.822l.003.009c.618 1.678.569 3.485.025 5.154l-.002.004c-.13.41-.374.745-.712.946-.288.17-.637.221-1.032.177h-.006c-.714-.075-1.563-.386-2.371-.869-.807-.481-1.511-1.097-1.962-1.72zM3.207 18.561l-.001-.002c-.237-.325-.371-.675-.371-1.035 0-.418.166-.806.44-1.125 1.13-1.317 2.612-2.256 4.315-2.542a1.472 1.472 0 011.007.181c.318.19.546.482.667.822l.003.009c.618 1.678.569 3.485.025 5.154l-.002.004c-.13.41-.374.745-.712.946-.288.17-.637.221-1.032.177H7.54c-.714-.075-1.563-.386-2.371-.869-.807-.481-1.511-1.097-1.962-1.72z"/></symbol><symbol fill="none" viewBox="0 0 36 36" id="shirt" xmlns="http://www.w3.org/2000/svg"><path d="M26.181 6.332h-.835v1.67h.835v-1.67zM33 7.167h.835v-.835H33v.835zm0 25.832v.835h.835V33H33zM3 33h-.835v.835H3V33zM3 7.167v-.835h-.835v.835H3zm6.818.835h.835v-1.67h-.835v1.67zm9.017 1.665v-.835h-1.67v.835h1.67zM17.165 33v.835h1.67V33h-1.67zm9.168-30h.835v-.835h-.835V3zm0 12.083l-.452.702 1.287.83v-1.532h-.835zM9.667 3v-.835h-.835V3h.835zm0 12.083h-.835v1.531l1.287-.83-.452-.701zm13.75 4.999h-.836v1.67h.835v-1.67zm5.416 1.67h.835v-1.67h-.835v1.67zM26.18 8.002H33v-1.67h-6.818v1.67zm5.983-.835v25.832h1.67V7.167h-1.67zM33 32.164H3v1.67h30v-1.67zM3.835 33V7.167h-1.67v25.832h1.67zM3 8.002h6.818v-1.67H3v1.67zm14.165 1.665V33h1.67V9.667h-1.67zm8.644-7.317l-8.333 6.713 1.048 1.3 8.333-6.713-1.048-1.3zm-8.262 8.065l8.334 5.37.904-1.404-8.333-5.37-.905 1.404zm9.62 4.668V3h-1.67v12.083h1.67zm-.834-12.918H9.667v1.67h16.666v-1.67zM8.832 3v12.083h1.67V3h-1.67zm1.287 12.785l8.333-5.37-.905-1.404-8.333 5.37.905 1.404zm8.405-6.723L10.19 2.35l-1.047 1.3 8.333 6.713 1.048-1.3zm4.892 12.69h5.417v-1.67h-5.417v1.67z" fill="#03C"/></symbol><symbol fill="none" viewBox="0 0 36 36" id="speaker" xmlns="http://www.w3.org/2000/svg"><path d="M25.734 20.481v.835h.473l.243-.406-.716-.429zm0 5.317l.716-.43-.243-.405h-.473v.835zm.653 4.126l.725-.413-.003-.007-.722.42zm-.473 1.887l.433.714-.433-.714zm-1.826-.496l.728-.41-.005-.008-.005-.009-.718.427zM14.08 19.721a.835.835 0 10-.016-1.67l.016 1.67zm-8.619.589l-.261-.793-.01.003.271.79zM3 23.67l-.835-.005v.005H3zm0 4.785h-.835c0 .461.374.835.835.835v-.835zm9.841.835a.835.835 0 100-1.67v1.67zM14.25 4v-.835V4zm7.985 15.646H19.873h-.03-.007-.021-.007-.01-.003-.01-.003-.003H19.75h-.003-.003-.008-.003-.005-.003-.005-.005-.005-.005-.002-.005-.002-.002-.007-.002-.002-.002-.002-.002-.002-.002-.002-.002-.002-.001-.002-.002-.002-.001-.002-.002-.001-.002-.001-.002-.001-.002-.001-.001-.002-.001-.001-.004-.001-.001-.001-.001-.001-.001-.001-.001-.003-.002-.001-.001-.001-.001-.001-.001v1.67H22.236v-1.67zm-2.62 0c-.853 0-1.395.68-1.673 1.244-.305.618-.47 1.415-.47 2.25h1.67c0-.634.128-1.167.298-1.511.196-.398.31-.313.176-.313v-1.67zm-2.144 3.493c0 .835.166 1.631.471 2.25.278.564.82 1.244 1.674 1.244v-1.67c.133 0 .02.085-.176-.313-.17-.344-.299-.877-.299-1.51h-1.67zm2.145 3.494h2.619v-1.67h-2.62v1.67zm10.883-9.645a6.5 6.5 0 00-3.157.82l.813 1.458a4.831 4.831 0 012.346-.608l-.002-1.67zm-3.157.82a6.252 6.252 0 00-2.325 2.244l1.433.858a4.582 4.582 0 011.705-1.644l-.814-1.459zm-1.608 1.838h-3.5v1.67h3.5v-1.67zm-3.5 6.987h3.5v-1.67h-3.5v1.67zm2.783-.407a6.252 6.252 0 002.325 2.245l.813-1.458a4.582 4.582 0 01-1.705-1.644l-1.433.857zm2.325 2.245a6.5 6.5 0 003.157.82l.002-1.67a4.83 4.83 0 01-2.346-.608l-.814 1.458zm4.823-5.332c0 1.366-.28 2.561-.695 3.384-.44.87-.892 1.098-1.149 1.098v1.67c1.223 0 2.11-.963 2.64-2.017.555-1.101.874-2.564.874-4.135h-1.67zm-1.844 4.482c-.256 0-.71-.227-1.148-1.098-.414-.823-.695-2.018-.695-3.384h-1.67c0 1.57.319 3.034.874 4.135.53 1.054 1.416 2.017 2.64 2.017v-1.67zm-1.843-4.482c0-1.365.28-2.56.695-3.383.439-.871.892-1.098 1.148-1.098v-1.67c-1.223 0-2.109.963-2.64 2.016-.554 1.102-.873 2.565-.873 4.135h1.67zm1.843-4.481c.257 0 .71.227 1.149 1.098.414.823.695 2.018.695 3.383h1.67c0-1.57-.319-3.033-.874-4.135-.53-1.053-1.417-2.016-2.64-2.016v1.67zm-7.058 7.56l2.402 4.126 1.444-.84-2.403-4.127-1.443.84zm2.399 4.12c.035.062.06.132.07.206l1.654-.224a2.244 2.244 0 00-.274-.81l-1.45.828zm.07.206c.01.075.005.15-.013.222l1.62.406c.07-.279.086-.568.047-.852l-1.655.224zm-.013.222a.563.563 0 01-.09.195l1.348.985c.17-.233.292-.495.362-.774l-1.62-.406zm-.09.195a.514.514 0 01-.148.136l.866 1.428c.247-.15.46-.347.63-.58l-1.349-.984zm-.148.136a.47.47 0 01-.177.063l.235 1.654c.286-.04.56-.14.808-.289l-.866-1.428zm-.177.063a.457.457 0 01-.183-.011l-.438 1.612c.279.075.57.093.856.053l-.235-1.654zm-.183-.011a.48.48 0 01-.171-.087l-1.033 1.313c.227.178.487.31.766.386l.438-1.612zm-.171-.087a.528.528 0 01-.134-.156l-1.455.819c.14.25.33.472.556.65l1.033-1.313zm-.144-.174l-3.282-5.518-1.436.854 3.283 5.518 1.435-.854zM14.063 18.051A29.2 29.2 0 005.2 19.517l.523 1.586a27.53 27.53 0 018.357-1.382l-.016-1.67zm-8.874 1.47c-.875.3-1.636.857-2.18 1.598l1.349.986A2.847 2.847 0 015.732 21.1l-.543-1.579zm-2.18 1.598a4.357 4.357 0 00-.844 2.547l1.67.01c.004-.56.185-1.11.523-1.57l-1.348-.987zm-.844 2.552v4.785h1.67V23.67h-1.67zM3 29.291h9.841v-1.67H3v1.67zm11.25-11.24c-1.388 0-2.732-.814-3.763-2.12-1.03-1.303-1.652-2.986-1.652-4.488h-1.67c0 1.921.778 3.96 2.01 5.523 1.232 1.56 3.013 2.755 5.075 2.755v-1.67zm-5.415-6.608v-1.24h-1.67v1.24h1.67zm0-1.24c0-1.422.569-2.787 1.584-3.794L9.242 5.224a7.014 7.014 0 00-2.077 4.979h1.67zm1.584-3.794a5.44 5.44 0 013.831-1.574v-1.67a7.11 7.11 0 00-5.008 2.059l1.177 1.185zm3.831-1.574a5.44 5.44 0 013.831 1.574l1.177-1.185a7.11 7.11 0 00-5.008-2.059v1.67zm3.831 1.574a5.344 5.344 0 011.584 3.794h1.67c0-1.869-.748-3.66-2.077-4.979L18.08 6.409zm1.584 3.794v1.24h1.67v-1.24h-1.67zm0 1.24c0 1.502-.622 3.185-1.652 4.488-1.03 1.306-2.375 2.12-3.763 2.12v1.67c2.062 0 3.843-1.196 5.074-2.755 1.233-1.562 2.011-3.602 2.011-5.523h-1.67z" fill="#03C"/></symbol><symbol fill="none" viewBox="0 0 24 24" id="speaking" xmlns="http://www.w3.org/2000/svg"><path d="M15 21.71H1v-2.344c0-.602.176-1.19.505-1.69.33-.5.797-.89 1.345-1.12a14.668 14.668 0 0110.3 0 3.01 3.01 0 011.345 1.12c.329.5.505 1.088.505 1.69v2.344zM8 12.578c2.21 0 4-1.818 4-4.06 0-2.241-1.79-4.058-4-4.058S4 6.277 4 8.519c0 2.241 1.79 4.059 4 4.059zM17 5.83a4.094 4.094 0 011.004 2.689c0 .99-.357 1.947-1.004 2.689M20 1.71a9.127 9.127 0 012.217 3.08 9.247 9.247 0 010 7.458A9.127 9.127 0 0120 15.328"/></symbol><symbol fill="none" viewBox="0 0 24 24" id="task" xmlns="http://www.w3.org/2000/svg"><path d="M10.2 4.8H21M10.2 12H21M10.2 19.2H21M3.008 5.27l-.001-.002a.768.768 0 01-.172-.454c0-.169.067-.338.2-.489.673-.773 1.547-1.315 2.544-1.48a.641.641 0 01.72.421l.003.01c.361.966.336 2.013.012 2.991l-.002.005a.722.722 0 01-.31.414c-.11.063-.26.093-.467.07H5.53c-.396-.041-.89-.216-1.375-.5-.482-.284-.892-.64-1.146-.986zM3.008 12.27l-.001-.002a.768.768 0 01-.172-.454c0-.169.067-.338.2-.489.673-.773 1.547-1.315 2.544-1.48a.641.641 0 01.72.421l.003.01c.361.966.336 2.013.012 2.991l-.002.005a.722.722 0 01-.31.414c-.11.063-.26.093-.467.07H5.53c-.396-.041-.89-.216-1.375-.5-.482-.284-.892-.64-1.146-.986zM3.008 19.77l-.001-.002a.768.768 0 01-.172-.454c0-.169.067-.338.2-.489.673-.773 1.547-1.315 2.544-1.48a.641.641 0 01.72.422l.003.008c.361.966.336 2.014.012 2.992l-.002.005a.722.722 0 01-.31.414c-.11.063-.26.093-.467.07H5.53c-.396-.041-.89-.216-1.375-.5-.482-.284-.892-.64-1.146-.986z"/></symbol><symbol fill="none" viewBox="0 0 36 36" id="transport" xmlns="http://www.w3.org/2000/svg"><path d="M16.677 11.382h9.578l1.349 5.441L33 19.544v8.162h-6.974M14.029 15.183v12.523H3V9.618M9.618 6.97v2.647h3.088M26.382 28.81a4.191 4.191 0 11-8.382 0 4.191 4.191 0 018.382 0zm-9.706-18.97A6.838 6.838 0 113 9.838a6.838 6.838 0 0113.676 0z" stroke="#03C" stroke-width="1.67" stroke-linecap="round" stroke-linejoin="round"/></symbol><symbol fill="none" viewBox="0 0 24 24" id="user" xmlns="http://www.w3.org/2000/svg"><path d="M12 12a4.477 4.477 0 01-3.182-1.331A4.569 4.569 0 017.5 7.455v-.91c0-1.205.474-2.361 1.318-3.214A4.477 4.477 0 0112 2c1.193 0 2.338.479 3.182 1.331A4.569 4.569 0 0116.5 6.545v.91a4.57 4.57 0 01-1.318 3.214A4.477 4.477 0 0112 12zM21 20.1a3.66 3.66 0 00-.733-2.204 3.599 3.599 0 00-1.904-1.305 21.687 21.687 0 00-12.726 0 3.599 3.599 0 00-1.904 1.305A3.66 3.66 0 003 20.1V22h18v-1.9z"/></symbol><symbol fill="none" viewBox="0 0 16 16" id="user--small" xmlns="http://www.w3.org/2000/svg"><path d="M2 14a5.455 5.455 0 015.455-5.455h1.09A5.455 5.455 0 0114 14"/><path d="M8 8.545A3.273 3.273 0 108 2a3.273 3.273 0 000 6.545z"/></symbol></svg>