<svg width="24" height="24" viewBox="0 0 24 24" fill="none" xmlns="http://www.w3.org/2000/svg">
<path d="M8.55469 4.17925L9.04383 4.85599L9.04593 4.85446L8.55469 4.17925ZM15.6566 4.42751L15.112 5.06043L15.1127 5.06106L15.6566 4.42751ZM21.9268 15.1183L22.7506 14.9824L22.7502 14.9799L21.9268 15.1183ZM18.4878 20.8904L18.2083 20.1036L18.1994 20.1068L18.4878 20.8904ZM5.81949 20.968L6.07823 20.1741L6.07344 20.1726L5.81949 20.968ZM2.68441 18.563L1.96495 18.9868L1.96673 18.9898L2.68441 18.563ZM2.04459 15.1183L2.87448 15.2108L2.87512 15.2046L2.04459 15.1183ZM12.835 8.45453V7.61953H11.165V8.45453H12.835ZM11.165 13.9091V14.7441H12.835V13.9091H11.165ZM12.835 16.6364V15.8014H11.165V16.6364H12.835ZM11.165 17.5454V18.3804H12.835V17.5454H11.165ZM9.04593 4.85446C9.89878 4.23397 10.8823 3.835 11.9457 3.835V2.165C10.4498 2.165 9.13004 2.72805 8.06344 3.50404L9.04593 4.85446ZM11.9457 3.835C13.1554 3.835 14.2474 4.31644 15.112 5.06043L16.2013 3.7946C15.0824 2.83178 13.6151 2.165 11.9457 2.165V3.835ZM15.1127 5.06106C18.1887 7.70179 20.421 11.1972 21.1033 15.2567L22.7502 14.9799C21.993 10.4744 19.5227 6.64606 16.2005 3.79396L15.1127 5.06106ZM21.1029 15.2542C21.2658 16.2421 21.1153 17.2654 20.5695 18.1824L22.0045 19.0366C22.7702 17.7503 22.9716 16.322 22.7506 14.9824L21.1029 15.2542ZM20.5695 18.1824C20.0198 19.1057 19.173 19.7609 18.2083 20.1036L18.7673 21.6773C20.0739 21.2131 21.2425 20.3167 22.0045 19.0366L20.5695 18.1824ZM18.1994 20.1068C14.2246 21.5694 9.9726 21.4433 6.07823 20.1741L5.56075 21.7619C9.76001 23.1305 14.4014 23.2838 18.7761 21.6741L18.1994 20.1068ZM6.07344 20.1726C4.96772 19.8196 3.99948 19.1407 3.40208 18.1362L1.96673 18.9898C2.80891 20.4059 4.144 21.3096 5.56553 21.7635L6.07344 20.1726ZM3.40386 18.1392C2.88184 17.253 2.75993 16.2385 2.87445 15.2108L1.21473 15.0259C1.07333 16.2946 1.20735 17.7007 1.96495 18.9868L3.40386 18.1392ZM2.87512 15.2046C3.0592 13.4333 3.81669 11.4044 4.94288 9.51827C6.06788 7.63412 7.52362 5.95478 9.04382 4.85598L8.06555 3.50251C6.32271 4.76222 4.72335 6.62838 3.50903 8.66213C2.2959 10.6939 1.42987 12.9553 1.21406 15.032L2.87512 15.2046ZM11.165 8.45453V13.9091H12.835V8.45453H11.165ZM11.165 16.6364V17.5454H12.835V16.6364H11.165Z" fill="#0E0E2B"/>
</svg>
