<svg width="24" height="24" viewBox="0 0 24 24" fill="none" xmlns="http://www.w3.org/2000/svg">
<path d="M5 3V2.25C4.58579 2.25 4.25 2.58579 4.25 3H5ZM19 3H19.75C19.75 2.58579 19.4142 2.25 19 2.25V3ZM19 21V21.75C19.4142 21.75 19.75 21.4142 19.75 21H19ZM5 21H4.25C4.25 21.4142 4.58579 21.75 5 21.75V21ZM5 3.75H19V2.25H5V3.75ZM18.25 3V21H19.75V3H18.25ZM19 20.25H5V21.75H19V20.25ZM5.75 21V3H4.25V21H5.75ZM14.75 14.4545C14.75 15.8012 13.567 16.9773 12 16.9773V18.4773C14.299 18.4773 16.25 16.7229 16.25 14.4545H14.75ZM12 16.9773C10.433 16.9773 9.25 15.8012 9.25 14.4545H7.75C7.75 16.7229 9.70102 18.4773 12 18.4773V16.9773ZM9.25 14.4545C9.25 13.1079 10.433 11.9318 12 11.9318V10.4318C9.70102 10.4318 7.75 12.1862 7.75 14.4545H9.25ZM12 11.9318C13.567 11.9318 14.75 13.1079 14.75 14.4545H16.25C16.25 12.1862 14.299 10.4318 12 10.4318V11.9318ZM13 7.09091C13 7.5338 12.6005 7.97727 12 7.97727V9.47727C13.3325 9.47727 14.5 8.4555 14.5 7.09091H13ZM12 7.97727C11.3995 7.97727 11 7.5338 11 7.09091H9.5C9.5 8.4555 10.6675 9.47727 12 9.47727V7.97727ZM11 7.09091C11 6.64802 11.3995 6.20455 12 6.20455V4.70455C10.6675 4.70455 9.5 5.72632 9.5 7.09091H11ZM12 6.20455C12.6005 6.20455 13 6.64802 13 7.09091H14.5C14.5 5.72632 13.3325 4.70455 12 4.70455V6.20455Z" fill="#0033CC"/>
</svg>
