<svg width="24" height="24" viewBox="0 0 24 24" fill="none" xmlns="http://www.w3.org/2000/svg">
<path d="M5.7 8.36363H4.865H5.7ZM8.46502 19.1818V19.2727H10.135V19.1818H8.46502ZM8.46502 19.2727C8.46502 20.2148 8.83544 21.12 9.49744 21.7886L10.6842 20.6137C10.3335 20.2595 10.135 19.7773 10.135 19.2727H8.46502ZM9.49744 21.7886C10.1597 22.4576 11.0598 22.835 12 22.835V21.165C11.5081 21.165 11.0346 20.9677 10.6842 20.6137L9.49744 21.7886ZM12 22.835C12.9403 22.835 13.8403 22.4576 14.5026 21.7886L13.3158 20.6137C12.9654 20.9677 12.4919 21.165 12 21.165V22.835ZM14.5026 21.7886C15.1646 21.12 15.535 20.2148 15.535 19.2727H13.865C13.865 19.7773 13.6665 20.2595 13.3158 20.6137L14.5026 21.7886ZM15.535 19.2727V19.1818H13.865V19.2727H15.535ZM19.135 11.0909V8.36363H17.465V11.0909H19.135ZM19.135 8.36363C19.135 6.45713 18.3853 4.62703 17.0482 3.2764L15.8614 4.45132C16.8872 5.48751 17.465 6.89465 17.465 8.36363H19.135ZM17.0482 3.2764C15.7108 1.92548 13.895 1.165 12 1.165V2.835C13.4467 2.835 14.8358 3.41541 15.8614 4.45132L17.0482 3.2764ZM12 1.165C10.105 1.165 8.28925 1.92548 6.95184 3.2764L8.13862 4.45132C9.16417 3.41541 10.5533 2.835 12 2.835V1.165ZM6.95184 3.2764C5.61471 4.62703 4.865 6.45713 4.865 8.36363H6.535C6.535 6.89465 7.11279 5.48751 8.13862 4.45132L6.95184 3.2764ZM4.865 8.36363V11.0909H6.535V8.36363H4.865ZM4.865 11.0909C4.865 12.2893 4.34808 13.0284 3.72114 13.7461C3.42703 14.0828 3.02611 14.4998 2.74011 14.9042C2.43235 15.3395 2.165 15.8766 2.165 16.5454H3.835C3.835 16.3507 3.90515 16.1491 4.10364 15.8684C4.32389 15.557 4.59797 15.2808 4.97886 14.8448C5.70192 14.017 6.535 12.8925 6.535 11.0909H4.865ZM2.165 16.5454C2.165 17.2816 2.58934 17.8617 3.11622 18.2785C3.64252 18.6947 4.35984 19.0255 5.19221 19.2856C6.8652 19.8084 9.20695 20.1077 12 20.1077V18.4377C9.30305 18.4377 7.1448 18.1461 5.69029 17.6916C4.95891 17.4631 4.4556 17.2086 4.15222 16.9687C3.84941 16.7291 3.835 16.582 3.835 16.5454H2.165ZM12 20.1077C14.793 20.1077 17.1348 19.8084 18.8078 19.2856C19.6402 19.0255 20.3575 18.6947 20.8838 18.2785C21.4107 17.8617 21.835 17.2816 21.835 16.5454H20.165C20.165 16.582 20.1506 16.7291 19.8478 16.9687C19.5444 17.2086 19.0411 17.4631 18.3097 17.6916C16.8552 18.1461 14.697 18.4377 12 18.4377V20.1077ZM21.835 16.5454C21.835 15.8766 21.5676 15.3395 21.2599 14.9042C20.9739 14.4998 20.573 14.0828 20.2789 13.7461C19.6519 13.0284 19.135 12.2893 19.135 11.0909H17.465C17.465 12.8925 18.2981 14.017 19.0211 14.8448C19.402 15.2808 19.6761 15.557 19.8964 15.8684C20.0949 16.1491 20.165 16.3507 20.165 16.5454H21.835Z" fill="#0E0E2B"/>
</svg>
