<svg width="24" height="24" viewBox="0 0 24 24" fill="none" xmlns="http://www.w3.org/2000/svg">
<path d="M9.36186 19.1818V19.2727C9.36186 19.996 9.64879 20.6897 10.1595 21.2012C10.6703 21.7127 11.363 22 12.0853 22C12.8076 22 13.5003 21.7127 14.011 21.2012C14.5217 20.6897 14.8087 19.996 14.8087 19.2727V19.1818" fill="#0E0E2B"/>
<path d="M19.2745 9.89423V11.0909C19.2745 12.2867 19.7947 13.025 20.4277 13.7434C20.502 13.8277 20.583 13.917 20.6673 14.0099C20.9196 14.2881 21.2009 14.5983 21.4172 14.9015C21.7274 15.3364 21.9979 15.8745 21.9979 16.5454C21.9979 17.2847 21.5683 17.8652 21.0384 18.2806C20.5086 18.6961 19.7863 19.0264 18.9476 19.2862C17.2618 19.8085 14.9013 20.1077 12.0849 20.1077C9.26851 20.1077 6.90798 19.8085 5.2222 19.2862C4.38354 19.0264 3.66123 18.6961 3.13134 18.2806C2.60151 17.8652 2.17188 17.2847 2.17188 16.5454C2.17188 15.8745 2.44238 15.3364 2.75261 14.9015C2.96886 14.5983 3.2502 14.2881 3.50252 14.0099C3.58677 13.9171 3.6678 13.8277 3.74208 13.7434C4.37508 13.025 4.89528 12.2867 4.89528 11.0909V8.36364C4.89528 6.45482 5.65247 4.62395 7.00065 3.27385C8.34888 1.92372 10.1777 1.16501 12.0849 1.16501C12.3193 1.16501 12.5525 1.17647 12.7837 1.19907C12.5133 1.70609 12.314 2.25615 12.199 2.83619C12.161 2.8354 12.123 2.83501 12.0849 2.83501C10.6214 2.83501 9.21758 3.4172 8.18236 4.45388C7.1471 5.49061 6.56528 6.89697 6.56528 8.36364V11.0909C6.56528 12.8951 5.72378 14.0204 4.99508 14.8475C4.87935 14.9788 4.77339 15.0957 4.67573 15.2033C4.44927 15.4531 4.26744 15.6536 4.1122 15.8712C3.91179 16.1522 3.84187 16.3528 3.84187 16.5454C3.84187 16.5789 3.85479 16.7257 4.16184 16.9665C4.46884 17.2072 4.97773 17.4622 5.71638 17.691C7.1852 18.146 9.36369 18.4377 12.0849 18.4377C14.8061 18.4377 16.9846 18.146 18.4534 17.691C19.1921 17.4622 19.701 17.2072 20.0079 16.9665C20.315 16.7257 20.3279 16.5789 20.3279 16.5454C20.3279 16.3528 20.258 16.1522 20.0576 15.8712C19.9023 15.6536 19.7206 15.4531 19.4941 15.2034C19.3965 15.0957 19.2904 14.9788 19.1747 14.8475C18.446 14.0204 17.6045 12.8951 17.6045 11.0909V9.97708C17.78 9.99225 17.9577 10 18.1372 10C18.526 10 18.9062 9.96366 19.2745 9.89423Z" fill="#0E0E2B"/>
<circle cx="18.1025" cy="4" r="4" fill="#EC1C24"/>
</svg>
