<svg width="24" height="24" viewBox="0 0 24 24" fill="none" xmlns="http://www.w3.org/2000/svg">
<path d="M11.165 4.79999V20.1H12.835V4.79999H11.165ZM17 2.165C15.5244 2.165 14.1337 2.48939 13.0822 3.05413C12.067 3.59936 11.165 4.49524 11.165 5.7H12.835C12.835 5.41075 13.0694 4.95664 13.8724 4.52537C14.639 4.11361 15.7483 3.835 17 3.835V2.165ZM12.835 5.7C12.835 4.50043 11.949 3.6034 10.933 3.05496C9.88411 2.48881 8.49228 2.165 7 2.165V3.835C8.27136 3.835 9.37952 4.11419 10.1397 4.52454C10.9328 4.9526 11.165 5.40557 11.165 5.7H12.835ZM7 2.165C5.50772 2.165 4.11589 2.48881 3.06702 3.05496C2.05095 3.6034 1.165 4.50043 1.165 5.7H2.835C2.835 5.40557 3.06723 4.9526 3.86026 4.52454C4.62048 4.11419 5.72864 3.835 7 3.835V2.165ZM1.165 5.7V21H2.835V5.7H1.165ZM2.835 21C2.835 20.7056 3.06723 20.2526 3.86026 19.8245C4.62048 19.4142 5.72864 19.135 7 19.135V17.465C5.50772 17.465 4.11589 17.7888 3.06702 18.355C2.05095 18.9034 1.165 19.8004 1.165 21H2.835ZM7 19.135C8.27136 19.135 9.37952 19.4142 10.1397 19.8245C10.9328 20.2526 11.165 20.7056 11.165 21H12.835C12.835 19.8004 11.949 18.9034 10.933 18.355C9.88411 17.7888 8.49228 17.465 7 17.465V19.135ZM12.835 21C12.835 20.7056 13.0672 20.2526 13.8603 19.8245C14.6205 19.4142 15.7286 19.135 17 19.135V17.465C15.5077 17.465 14.1159 17.7888 13.067 18.355C12.051 18.9034 11.165 19.8004 11.165 21H12.835ZM17 19.135C18.2714 19.135 19.3795 19.4142 20.1397 19.8245C20.9328 20.2526 21.165 20.7056 21.165 21H22.835C22.835 19.8004 21.949 18.9034 20.933 18.355C19.8841 17.7888 18.4923 17.465 17 17.465V19.135ZM22.835 21V5.7H21.165V21H22.835ZM22.835 5.7C22.835 4.50043 21.949 3.6034 20.933 3.05496C19.8841 2.48881 18.4923 2.165 17 2.165V3.835C18.2714 3.835 19.3795 4.11419 20.1397 4.52454C20.9328 4.9526 21.165 5.40557 21.165 5.7H22.835Z" fill="#0E0E2B"/>
</svg>
