<svg width="24" height="24" viewBox="0 0 24 24" fill="none" xmlns="http://www.w3.org/2000/svg">
<path d="M18.3832 18.9984C19.3424 18.9984 20.2624 18.6071 20.9407 17.9105C21.6189 17.214 22 16.2693 22 15.2842C22 14.2992 21.6189 13.3545 20.9407 12.658C20.2624 11.9614 19.3424 11.5701 18.3832 11.5701V11.5701C18.2826 9.78545 17.5183 8.10865 16.2483 6.886C14.9783 5.66336 13.2995 4.98824 11.5587 5.00016C9.81796 5.01207 8.14811 5.71012 6.89409 6.95004C5.64007 8.18997 4.89766 9.87706 4.8202 11.663C3.94316 11.8663 3.17133 12.3979 2.65522 13.1539C2.13911 13.91 1.91573 14.8363 2.02864 15.7523C2.14155 16.6683 2.58266 17.5083 3.26594 18.1084C3.94922 18.7086 4.82568 19.0258 5.7244 18.9984H18.3832Z" stroke="#0E0E2B" stroke-width="1.67" stroke-miterlimit="10" stroke-linecap="square"/>
</svg>
