<svg width="24" height="24" viewBox="0 0 24 24" fill="none" xmlns="http://www.w3.org/2000/svg">
<path d="M9.33515 5.76374L10.0083 5.26973L10.0068 5.26762L9.33515 5.76374ZM9.40571 3.7757L10.0345 4.32509L10.0352 4.32435L9.40571 3.7757ZM12.4442 2.0205L12.3103 1.1963L12.3078 1.19671L12.4442 2.0205ZM13.4364 2.1996L13.8587 1.47929V1.47928L13.4364 2.1996ZM14.0847 2.98318L13.2991 3.26649L13.3025 3.27539L14.0847 2.98318ZM14.1067 6.52941L13.314 6.26709L13.3124 6.27193L14.1067 6.52941ZM13.4232 7.40701L13.8422 8.12926L13.8452 8.1275L13.4232 7.40701ZM12.4442 7.58611L12.5353 6.75607L12.5292 6.75545L12.4442 7.58611ZM9.33515 20.7637L10.0083 20.2697L10.0068 20.2676L9.33515 20.7637ZM9.40571 18.7757L10.0345 19.3251L10.0352 19.3244L9.40571 18.7757ZM12.4442 17.0205L12.3103 16.1963L12.3078 16.1967L12.4442 17.0205ZM13.4364 17.1996L13.8587 16.4793L13.4364 17.1996ZM14.0847 17.9832L13.2991 18.2665L13.3025 18.2754L14.0847 17.9832ZM14.1067 21.5294L13.314 21.2671L13.3124 21.2719L14.1067 21.5294ZM13.4232 22.407L13.8422 23.1293L13.8452 23.1275L13.4232 22.407ZM12.4442 22.5861L12.5353 21.7561L12.5292 21.7555L12.4442 22.5861ZM1.33515 20.7637L2.00834 20.2697L2.00679 20.2676L1.33515 20.7637ZM1.40571 18.7757L2.03452 19.3251L2.03516 19.3244L1.40571 18.7757ZM4.44416 17.0205L4.31026 16.1963L4.30779 16.1967L4.44416 17.0205ZM5.43639 17.1996L5.85873 16.4793H5.85873L5.43639 17.1996ZM6.08465 17.9832L5.29913 18.2665L5.30245 18.2754L6.08465 17.9832ZM6.1067 21.5294L5.31396 21.2671L5.31239 21.2719L6.1067 21.5294ZM5.42316 22.407L5.84221 23.1293L5.84521 23.1275L5.42316 22.407ZM4.44416 22.5861L4.53527 21.7561L4.52918 21.7555L4.44416 22.5861ZM17.3352 20.7637L18.0083 20.2697L18.0068 20.2676L17.3352 20.7637ZM17.4057 18.7757L18.0345 19.3251L18.0352 19.3244L17.4057 18.7757ZM20.4442 17.0205L20.3103 16.1963L20.3078 16.1967L20.4442 17.0205ZM21.4364 17.1996L21.8587 16.4793L21.4364 17.1996ZM22.0847 17.9832L21.2991 18.2665L21.3025 18.2754L22.0847 17.9832ZM22.1067 21.5294L21.314 21.2671L21.3124 21.2719L22.1067 21.5294ZM21.4232 22.407L21.8422 23.1293L21.8452 23.1275L21.4232 22.407ZM20.4442 22.5861L20.5353 21.7561L20.5292 21.7555L20.4442 22.5861ZM12.835 9.99999V9.16499H11.165V9.99999H12.835ZM11.165 14V14.835H12.835V14H11.165ZM3.16501 14V14.835H4.83501V14H3.16501ZM4.00001 12V11.165H3.16501V12H4.00001ZM20 12H20.835V11.165H20V12ZM19.165 14V14.835H20.835V14H19.165ZM10.0068 5.26762C9.88707 5.10556 9.835 4.95297 9.835 4.8145H8.165C8.165 5.39244 8.38634 5.88462 8.66352 6.25986L10.0068 5.26762ZM9.835 4.8145C9.835 4.64525 9.90247 4.47623 10.0345 4.32509L8.77691 3.22632C8.42387 3.63039 8.165 4.17779 8.165 4.8145H9.835ZM10.0352 4.32435C10.7086 3.55169 11.5832 3.00939 12.5805 2.84429L12.3078 1.19671C10.8709 1.43459 9.6639 2.20869 8.77626 3.22705L10.0352 4.32435ZM12.5781 2.84469C12.7359 2.81904 12.8845 2.84396 13.0141 2.91992L13.8587 1.47928C13.3621 1.18809 12.8139 1.11449 12.3103 1.1963L12.5781 2.84469ZM13.0141 2.91992C13.1493 2.99922 13.2469 3.12165 13.2992 3.26647L14.8701 2.69988C14.693 2.20889 14.3497 1.76714 13.8587 1.47929L13.0141 2.91992ZM13.3025 3.27539C13.6634 4.24154 13.6377 5.2887 13.314 6.2671L14.8994 6.79172C15.3254 5.50447 15.3791 4.0621 14.8669 2.69096L13.3025 3.27539ZM13.3124 6.27193C13.2497 6.46524 13.1396 6.60541 13.0011 6.68652L13.8452 8.1275C14.3947 7.80563 14.7344 7.30103 14.901 6.78688L13.3124 6.27193ZM13.0041 6.68477C12.894 6.74868 12.7433 6.77893 12.5353 6.7561L12.3531 8.41613C12.7977 8.46494 13.335 8.42354 13.8422 8.12925L13.0041 6.68477ZM12.5292 6.75545C12.1328 6.71488 11.6382 6.54039 11.1542 6.25572C10.6718 5.97202 10.262 5.61537 10.0083 5.26973L8.66197 6.25775C9.07863 6.82554 9.67653 7.32411 10.3076 7.69524C10.9371 8.06542 11.6619 8.3454 12.3591 8.41677L12.5292 6.75545ZM10.0068 20.2676C9.88707 20.1056 9.835 19.953 9.835 19.8145H8.165C8.165 20.3924 8.38634 20.8846 8.66352 21.2599L10.0068 20.2676ZM9.835 19.8145C9.835 19.6452 9.90247 19.4762 10.0345 19.3251L8.77691 18.2263C8.42387 18.6304 8.165 19.1778 8.165 19.8145H9.835ZM10.0352 19.3244C10.7086 18.5517 11.5832 18.0094 12.5805 17.8443L12.3078 16.1967C10.8709 16.4346 9.6639 17.2087 8.77626 18.2271L10.0352 19.3244ZM12.5781 17.8447C12.7359 17.819 12.8845 17.844 13.0141 17.9199L13.8587 16.4793C13.3621 16.1881 12.8139 16.1145 12.3103 16.1963L12.5781 17.8447ZM13.0141 17.9199C13.1493 17.9992 13.2469 18.1216 13.2992 18.2665L14.8701 17.6999C14.693 17.2089 14.3497 16.7671 13.8587 16.4793L13.0141 17.9199ZM13.3025 18.2754C13.6634 19.2415 13.6377 20.2887 13.314 21.2671L14.8994 21.7917C15.3254 20.5045 15.3791 19.0621 14.8669 17.691L13.3025 18.2754ZM13.3124 21.2719C13.2497 21.4652 13.1396 21.6054 13.0011 21.6865L13.8452 23.1275C14.3947 22.8056 14.7344 22.301 14.901 21.7869L13.3124 21.2719ZM13.0041 21.6848C12.894 21.7487 12.7433 21.7789 12.5353 21.7561L12.3531 23.4161C12.7977 23.4649 13.335 23.4235 13.8422 23.1292L13.0041 21.6848ZM12.5292 21.7555C12.1328 21.7149 11.6382 21.5404 11.1542 21.2557C10.6718 20.972 10.262 20.6154 10.0083 20.2697L8.66197 21.2578C9.07863 21.8255 9.67653 22.3241 10.3076 22.6952C10.9371 23.0654 11.6619 23.3454 12.3591 23.4168L12.5292 21.7555ZM2.00679 20.2676C1.88707 20.1056 1.835 19.953 1.835 19.8145H0.165C0.165 20.3924 0.386341 20.8846 0.663521 21.2599L2.00679 20.2676ZM1.835 19.8145C1.835 19.6452 1.90247 19.4762 2.03452 19.3251L0.776907 18.2263C0.423867 18.6304 0.165 19.1778 0.165 19.8145H1.835ZM2.03516 19.3244C2.70864 18.5517 3.58318 18.0094 4.58053 17.8443L4.30779 16.1967C2.87085 16.4346 1.6639 17.2087 0.776263 18.2271L2.03516 19.3244ZM4.57805 17.8447C4.73594 17.819 4.8845 17.844 5.01406 17.9199L5.85873 16.4793C5.36207 16.1881 4.81387 16.1145 4.31027 16.1963L4.57805 17.8447ZM5.01406 17.9199C5.14931 17.9992 5.24695 18.1216 5.29918 18.2665L6.87013 17.6999C6.69304 17.2089 6.34969 16.7671 5.85873 16.4793L5.01406 17.9199ZM5.30245 18.2754C5.66339 19.2415 5.63772 20.2887 5.31397 21.2671L6.89943 21.7917C7.32538 20.5045 7.37909 19.0621 6.86685 17.691L5.30245 18.2754ZM5.31239 21.2719C5.24973 21.4652 5.13959 21.6054 5.00112 21.6865L5.84521 23.1275C6.39468 22.8056 6.73436 22.301 6.90102 21.7869L5.31239 21.2719ZM5.00413 21.6848C4.89397 21.7487 4.74326 21.7789 4.53527 21.7561L4.35305 23.4161C4.79773 23.4649 5.33497 23.4235 5.8422 23.1292L5.00413 21.6848ZM4.52918 21.7555C4.1328 21.7149 3.63824 21.5404 3.15418 21.2557C2.67176 20.972 2.26199 20.6154 2.00834 20.2697L0.661971 21.2578C1.07863 21.8255 1.67653 22.3241 2.30761 22.6952C2.93706 23.0654 3.66185 23.3454 4.35914 23.4168L4.52918 21.7555ZM18.0068 20.2676C17.8871 20.1056 17.835 19.953 17.835 19.8145H16.165C16.165 20.3924 16.3863 20.8846 16.6635 21.2599L18.0068 20.2676ZM17.835 19.8145C17.835 19.6452 17.9025 19.4762 18.0345 19.3251L16.7769 18.2263C16.4239 18.6304 16.165 19.1778 16.165 19.8145H17.835ZM18.0352 19.3244C18.7086 18.5517 19.5832 18.0094 20.5805 17.8443L20.3078 16.1967C18.8709 16.4346 17.6639 17.2087 16.7763 18.2271L18.0352 19.3244ZM20.5781 17.8447C20.7359 17.819 20.8845 17.844 21.0141 17.9199L21.8587 16.4793C21.3621 16.1881 20.8139 16.1145 20.3103 16.1963L20.5781 17.8447ZM21.0141 17.9199C21.1493 17.9992 21.2469 18.1216 21.2992 18.2665L22.8701 17.6999C22.693 17.2089 22.3497 16.7671 21.8587 16.4793L21.0141 17.9199ZM21.3025 18.2754C21.6634 19.2415 21.6377 20.2887 21.314 21.2671L22.8994 21.7917C23.3254 20.5045 23.3791 19.0621 22.8669 17.691L21.3025 18.2754ZM21.3124 21.2719C21.2497 21.4652 21.1396 21.6054 21.0011 21.6865L21.8452 23.1275C22.3947 22.8056 22.7344 22.301 22.901 21.7869L21.3124 21.2719ZM21.0041 21.6848C20.894 21.7487 20.7433 21.7789 20.5353 21.7561L20.3531 23.4161C20.7977 23.4649 21.335 23.4235 21.8422 23.1292L21.0041 21.6848ZM20.5292 21.7555C20.1328 21.7149 19.6382 21.5404 19.1542 21.2557C18.6718 20.972 18.262 20.6154 18.0083 20.2697L16.662 21.2578C17.0786 21.8255 17.6765 22.3241 18.3076 22.6952C18.9371 23.0654 19.6619 23.3454 20.3591 23.4168L20.5292 21.7555ZM11.165 9.99999V14H12.835V9.99999H11.165ZM4.83501 14V12H3.16501V14H4.83501ZM4.00001 12.835H20V11.165H4.00001V12.835ZM19.165 12V14H20.835V12H19.165Z" fill="#0E0E2B"/>
</svg>
