<svg width="24" height="24" viewBox="0 0 24 24" fill="none" xmlns="http://www.w3.org/2000/svg">
<path d="M10.2381 5.54929H11.0731V3.87929H10.2381V5.54929ZM3 4.71429V3.87929H2.165V4.71429H3ZM3 21H2.165V21.835H3V21ZM19.2857 21V21.835H20.1207V21H19.2857ZM20.1207 13.7619V12.9269H18.4507V13.7619H20.1207ZM16.2571 4.12385L15.6667 3.53342L14.4858 4.71429L15.0762 5.30472L16.2571 4.12385ZM18.6953 8.92377L19.2857 9.5142L20.4666 8.33333L19.8761 7.7429L18.6953 8.92377ZM12.0476 15.5714V16.4064H12.3935L12.6381 16.1619L12.0476 15.5714ZM8.42857 15.5714H7.59357V16.4064H8.42857V15.5714ZM8.42857 11.9524L7.83814 11.3619L7.59357 11.6065V11.9524H8.42857ZM18.381 2L18.9714 1.40957L18.381 0.819132L17.7905 1.40957L18.381 2ZM22 5.61905L22.5904 6.20948L23.1809 5.61905L22.5904 5.02861L22 5.61905ZM10.2381 3.87929H3V5.54929H10.2381V3.87929ZM2.165 4.71429V21H3.835V4.71429H2.165ZM3 21.835H19.2857V20.165H3V21.835ZM20.1207 21V13.7619H18.4507V21H20.1207ZM15.0762 5.30472L18.6953 8.92377L19.8761 7.7429L16.2571 4.12385L15.0762 5.30472ZM12.0476 14.7364H8.42857V16.4064H12.0476V14.7364ZM9.26357 15.5714V11.9524H7.59357V15.5714H9.26357ZM9.01901 12.5428L18.9714 2.59043L17.7905 1.40957L7.83814 11.3619L9.01901 12.5428ZM17.7905 2.59043L21.4096 6.20948L22.5904 5.02861L18.9714 1.40957L17.7905 2.59043ZM21.4096 5.02861L11.4572 14.981L12.6381 16.1619L22.5904 6.20948L21.4096 5.02861Z" fill="#0E0E2B"/>
</svg>
