<svg width="24" height="24" viewBox="0 0 24 24" fill="none" xmlns="http://www.w3.org/2000/svg">
<path d="M14.2074 7.56125L14.2059 7.55915C13.9694 7.23415 13.835 6.88403 13.835 6.52444C13.835 6.10647 14.0007 5.7183 14.2753 5.39918L14.276 5.39844C15.4059 4.08232 16.8867 3.14333 18.5903 2.85663C18.9378 2.79957 19.2865 2.8534 19.5972 3.03836C19.9146 3.2273 20.1431 3.51991 20.2639 3.86001L20.2638 3.86003L20.2671 3.86884C20.8848 5.5475 20.8356 7.35387 20.2917 9.02249L20.2902 9.02728C20.1593 9.43743 19.9161 9.7719 19.578 9.9735C19.2895 10.1429 18.9412 10.1941 18.5458 10.1501L18.5458 10.15L18.5396 10.1494C17.8264 10.0753 16.9774 9.76428 16.1687 9.28139C15.362 8.79971 14.6576 8.18412 14.2074 7.56125ZM3.2074 7.56126L3.2074 7.56126L3.20587 7.55915C2.96942 7.23415 2.835 6.88404 2.835 6.52445C2.835 6.10647 3.00068 5.71831 3.2753 5.39918L3.27593 5.39844C4.40584 4.08231 5.88673 3.14332 7.59033 2.85663C7.93778 2.79958 8.28647 2.85341 8.59718 3.03837C8.91456 3.2273 9.14306 3.51992 9.26387 3.86002L9.26382 3.86003L9.26707 3.86885C9.88474 5.54751 9.83553 7.35388 9.29171 9.0225L9.29017 9.02728C9.15924 9.4374 8.91609 9.77184 8.57804 9.97345C8.28952 10.1429 7.94118 10.1941 7.54573 10.1501L7.54574 10.1501L7.53956 10.1494C6.8264 10.0753 5.97739 9.76428 5.16866 9.2814C4.36193 8.79972 3.6576 8.18413 3.2074 7.56126ZM14.2074 18.5612L14.2059 18.5591C13.9694 18.2341 13.835 17.884 13.835 17.5244C13.835 17.1065 14.0007 16.7183 14.2753 16.3992L14.2759 16.3984C15.4058 15.0823 16.8867 14.1433 18.5903 13.8566C18.9378 13.7996 19.2865 13.8534 19.5972 14.0384C19.9146 14.2273 20.1431 14.5199 20.2639 14.86L20.2638 14.86L20.2671 14.8688C20.8847 16.5475 20.8355 18.3539 20.2917 20.0225L20.2902 20.0273C20.1592 20.4374 19.916 20.7719 19.5779 20.9735C19.2894 21.1429 18.9411 21.1941 18.5457 21.1501L18.5457 21.15L18.5396 21.1494C17.8264 21.0753 16.9774 20.7643 16.1687 20.2814C15.3619 19.7997 14.6576 19.1841 14.2074 18.5612ZM3.2074 18.5612L3.20587 18.5591C2.96942 18.2341 2.835 17.884 2.835 17.5244C2.835 17.1065 3.00068 16.7183 3.2753 16.3992L3.27593 16.3984C4.40584 15.0823 5.88673 14.1433 7.59033 13.8566C7.93778 13.7996 8.28647 13.8534 8.59718 14.0384C8.91456 14.2273 9.14306 14.5199 9.26387 14.86L9.26382 14.86L9.26707 14.8688C9.88474 16.5475 9.83553 18.3539 9.2917 20.0225L9.29017 20.0273C9.15923 20.4374 8.91607 20.7719 8.57799 20.9735C8.28949 21.1429 7.94116 21.1941 7.54573 21.1501L7.54574 21.15L7.53956 21.1494C6.8264 21.0753 5.97739 20.7643 5.16866 20.2814C4.36193 19.7997 3.6576 19.1841 3.2074 18.5612Z" stroke="#0E0E2B" stroke-width="1.67"/>
</svg>
