<svg width="24" height="24" viewBox="0 0 24 24" fill="none" xmlns="http://www.w3.org/2000/svg">
<path d="M16.6699 15.3333H22.9999V11.5809C22.9945 11.2611 22.9046 10.9479 22.7386 10.6699C22.5726 10.3919 22.3357 10.1583 22.0499 9.99043L19.2299 8.37137M13.25 4.09526C13.5087 3.47593 13.9569 2.94496 14.5365 2.57133C15.116 2.19769 15.8001 1.99864 16.5 2.00001C17.4283 2.00001 18.3185 2.35119 18.9749 2.97631C19.6312 3.60143 20 4.44929 20 5.33334V6.28572C20 7.16978 19.6312 8.01763 18.9749 8.64275C18.3185 9.26787 17.4283 9.61905 16.5 9.61905C15.9806 9.62132 15.4676 9.51057 15 9.29525M6.86 13.3238L2.31 15.9143C1.91033 16.1439 1.57972 16.468 1.3502 16.8551C1.12069 17.2423 1.00006 17.6792 1 18.1238V22H19V18.1238C18.9999 17.6792 18.8793 17.2423 18.6498 16.8551C18.4203 16.468 18.0897 16.1439 17.69 15.9143L13.14 13.3238M10 14.381C8.67392 14.381 7.40214 13.8792 6.46446 12.9862C5.52678 12.0932 5 10.882 5 9.61905V7.71429C5 6.45135 5.52678 5.24015 6.46446 4.34712C7.40214 3.45409 8.67392 2.95238 10 2.95238C11.3261 2.95238 12.5979 3.45409 13.5355 4.34712C14.4732 5.24015 15 6.45135 15 7.71429V9.61905C15 10.882 14.4732 12.0932 13.5355 12.9862C12.5979 13.8792 11.3261 14.381 10 14.381Z" stroke="#0E0E2B" stroke-width="1.67" stroke-linecap="round" stroke-linejoin="round"/>
</svg>
