<svg width="24" height="24" viewBox="0 0 24 24" fill="none" xmlns="http://www.w3.org/2000/svg">
<path d="M4 22H3.165V22.835H4V22ZM10 22V22.835H10.835V22H10ZM10 17V16.165H9.165V17H10ZM14 17H14.835V16.165H14V17ZM14 22H13.165V22.835H14V22ZM20 22V22.835H20.835V22H20ZM12 2L12.5617 1.38215L12 0.87153L11.4383 1.38215L12 2ZM10 9V8.165H9.165V9H10ZM14 9H14.835V8.165H14V9ZM14 13V13.835H14.835V13H14ZM10 13H9.165V13.835H10V13ZM3.165 9.29999V22H4.835V9.29999H3.165ZM4 22.835H10V21.165H4V22.835ZM10.835 22V17H9.165V22H10.835ZM10 17.835H14V16.165H10V17.835ZM13.165 17V22H14.835V17H13.165ZM14 22.835H20V21.165H14V22.835ZM20.835 22V9.29999H19.165V22H20.835ZM1.56168 12.6179L12.5617 2.61785L11.4383 1.38215L0.438318 11.3821L1.56168 12.6179ZM11.4383 2.61785L22.4383 12.6179L23.5617 11.3821L12.5617 1.38215L11.4383 2.61785ZM10 9.835H14V8.165H10V9.835ZM13.165 9V13H14.835V9H13.165ZM14 12.165H10V13.835H14V12.165ZM10.835 13V9H9.165V13H10.835Z" fill="#0E0E2B"/>
</svg>
