<svg width="24" height="24" viewBox="0 0 24 24" fill="none" xmlns="http://www.w3.org/2000/svg">
<path d="M22 19.9524C17.706 19.9524 13.5879 18.2466 10.5516 15.2103C7.5153 12.174 5.80952 8.05587 5.80952 3.76189M15.3333 19.2857C14.4793 20.5538 13.1929 21.4679 11.7143 21.8571C9.99998 22.1428 7.99999 19.9523 7.99999 19.9523C8.83627 19.0399 9.93389 18.4079 11.1428 18.1428C13.0476 17.7619 15.3333 19.2857 15.3333 19.2857ZM3.90476 14.2381C4.85689 13.5054 6.03802 13.1342 7.2381 13.1905C8.57143 13.381 9.61905 15.4762 9.61905 15.4762C8.78371 15.9644 7.82324 16.1963 6.85715 16.1429C5.68613 15.8596 4.6455 15.1883 3.90476 14.2381ZM10.6667 14.2381C9.87507 13.3445 9.43507 12.1938 9.42856 11C9.61904 9.57142 11.7143 8.5238 11.7143 8.5238C12.2118 9.32432 12.4757 10.2479 12.4762 11.1905C12.2432 12.3849 11.6038 13.4618 10.6667 14.2381ZM2 6.90475C2.08063 7.98799 2.55489 9.00428 3.33333 9.76189C4.28571 10.5238 6.28571 9.95238 6.28571 9.95238C6.22538 9.46132 6.06342 8.98821 5.81013 8.56322C5.55685 8.13822 5.21779 7.77066 4.81459 7.48394C4.41139 7.19722 3.9529 6.99763 3.4683 6.89792C2.98371 6.7982 2.48365 6.80052 2 6.90475ZM6.85717 7.66668C7.90771 7.45883 8.83268 6.84217 9.42859 5.95237C10.0953 4.90475 9.14287 3 9.14287 3C8.38247 3.37178 7.72754 3.92846 7.23811 4.61904C6.78146 5.56598 6.64765 6.63647 6.85717 7.66668ZM15.4286 12.4285C14.8339 13.8553 14.7999 15.454 15.3333 16.9047C16 18.5238 19.0476 19 19.0476 19C19.367 17.8037 19.3003 16.5371 18.8571 15.3809C18 13.4762 15.4286 12.4285 15.4286 12.4285Z" stroke="#0E0E2B" stroke-width="1.33" stroke-miterlimit="10" stroke-linecap="square"/>
</svg>
