<svg width="24" height="20" viewBox="0 0 24 20" fill="none" xmlns="http://www.w3.org/2000/svg">
<path d="M3 19H2.165V19.835H3V19ZM21 19V19.835H21.835V19H21ZM21 3H21.835V2.165H21V3ZM3 3V2.165H2.165V3H3ZM12 12.7778L11.5743 13.4961L12 13.7484L12.4257 13.4961L12 12.7778ZM2.165 7.44444V19H3.835V7.44444H2.165ZM3 19.835H21V18.165H3V19.835ZM21.835 19V7.44444H20.165V19H21.835ZM21.835 7.44444V3H20.165V7.44444H21.835ZM21 2.165H3V3.835H21V2.165ZM2.165 3V7.44444H3.835V3H2.165ZM2.57432 8.16279L11.5743 13.4961L12.4257 12.0594L3.42568 6.7261L2.57432 8.16279ZM12.4257 13.4961L21.4257 8.16279L20.5743 6.7261L11.5743 12.0594L12.4257 13.4961Z" fill="#0E0E2B"/>
</svg>
