<svg width="24" height="24" viewBox="0 0 24 24" fill="none" xmlns="http://www.w3.org/2000/svg">
<path d="M4.8 3H3V4.8H4.8V3Z" stroke="#0E0E2B" stroke-width="1.67" stroke-miterlimit="10" stroke-linecap="square"/>
<path d="M10.2 3H8.40001V4.8H10.2V3Z" stroke="#0E0E2B" stroke-width="1.67" stroke-miterlimit="10" stroke-linecap="square"/>
<path d="M15.6 3H13.8V4.8H15.6V3Z" stroke="#0E0E2B" stroke-width="1.67" stroke-miterlimit="10" stroke-linecap="square"/>
<path d="M21 3H19.2V4.8H21V3Z" stroke="#0E0E2B" stroke-width="1.67" stroke-miterlimit="10" stroke-linecap="square"/>
<path d="M4.8 8.40001H3V10.2H4.8V8.40001Z" stroke="#0E0E2B" stroke-width="1.67" stroke-miterlimit="10" stroke-linecap="square"/>
<path d="M10.2 8.40001H8.40001V10.2H10.2V8.40001Z" stroke="#0E0E2B" stroke-width="1.67" stroke-miterlimit="10" stroke-linecap="square"/>
<path d="M15.6 8.40001H13.8V10.2H15.6V8.40001Z" stroke="#0E0E2B" stroke-width="1.67" stroke-miterlimit="10" stroke-linecap="square"/>
<path d="M21 8.40001H19.2V10.2H21V8.40001Z" stroke="#0E0E2B" stroke-width="1.67" stroke-miterlimit="10" stroke-linecap="square"/>
<path d="M4.8 13.8H3V15.6H4.8V13.8Z" stroke="#0E0E2B" stroke-width="1.67" stroke-miterlimit="10" stroke-linecap="square"/>
<path d="M10.2 13.8H8.40001V15.6H10.2V13.8Z" stroke="#0E0E2B" stroke-width="1.67" stroke-miterlimit="10" stroke-linecap="square"/>
<path d="M15.6 13.8H13.8V15.6H15.6V13.8Z" stroke="#0E0E2B" stroke-width="1.67" stroke-miterlimit="10" stroke-linecap="square"/>
<path d="M21 13.8H19.2V15.6H21V13.8Z" stroke="#0E0E2B" stroke-width="1.67" stroke-miterlimit="10" stroke-linecap="square"/>
<path d="M4.8 19.2H3V21H4.8V19.2Z" stroke="#0E0E2B" stroke-width="1.67" stroke-miterlimit="10" stroke-linecap="square"/>
<path d="M10.2 19.2H8.40001V21H10.2V19.2Z" stroke="#0E0E2B" stroke-width="1.67" stroke-miterlimit="10" stroke-linecap="square"/>
<path d="M15.6 19.2H13.8V21H15.6V19.2Z" stroke="#0E0E2B" stroke-width="1.67" stroke-miterlimit="10" stroke-linecap="square"/>
<path d="M21 19.2H19.2V21H21V19.2Z" stroke="#0E0E2B" stroke-width="1.67" stroke-miterlimit="10" stroke-linecap="square"/>
</svg>
