<svg width="24" height="24" viewBox="0 0 24 24" fill="none" xmlns="http://www.w3.org/2000/svg">
<path d="M2.2074 18.5612L2.20587 18.5591C1.96942 18.2341 1.835 17.884 1.835 17.5244C1.835 17.1065 2.00068 16.7183 2.2753 16.3992L2.27593 16.3984C3.40584 15.0823 4.88673 14.1433 6.59033 13.8566C6.93778 13.7996 7.28647 13.8534 7.59718 14.0383C7.91456 14.2273 8.14306 14.5199 8.26387 14.86L8.26382 14.86L8.26707 14.8688C8.88474 16.5475 8.83553 18.3539 8.2917 20.0225L8.29017 20.0273C8.15924 20.4374 7.91612 20.7718 7.5781 20.9734C7.28957 21.1428 6.94121 21.1941 6.54573 21.1501L6.54574 21.15L6.53956 21.1494C5.8264 21.0753 4.97739 20.7643 4.16866 20.2814C3.36193 19.7997 2.6576 19.1841 2.2074 18.5612ZM15.2058 16.4408L15.2073 16.4387C15.6575 15.8159 16.3619 15.2003 17.1686 14.7186C17.9773 14.2357 18.8263 13.9247 19.5395 13.8506L19.5395 13.8506L19.5457 13.8499C19.9411 13.8058 20.2894 13.8571 20.5779 14.0265C20.916 14.2281 21.1592 14.5626 21.2901 14.9727L21.2901 14.9727L21.2916 14.9775C21.8355 16.6461 21.8847 18.4525 21.267 20.1311L21.267 20.1311L21.2638 20.14C21.143 20.4801 20.9145 20.7727 20.5971 20.9616C20.2863 21.1466 19.9376 21.2004 19.5901 21.1433C17.8866 20.8566 16.4057 19.9176 15.2759 18.6015L15.2752 18.6008C15.0006 18.2817 14.8349 17.8935 14.8349 17.4755C14.8349 17.1159 14.9694 16.7658 15.2058 16.4408ZM8.88466 7.56128L8.88313 7.55918C8.64668 7.23418 8.51226 6.88406 8.51226 6.52447C8.51226 6.1065 8.67794 5.71833 8.95256 5.39921L8.95319 5.39847C10.0831 4.08234 11.564 3.14335 13.2676 2.85666C13.615 2.7996 13.9637 2.85344 14.2744 3.03839C14.5918 3.22733 14.8203 3.51994 14.9411 3.86004L14.9411 3.86006L14.9443 3.86887C15.562 5.54753 15.5128 7.3539 14.969 9.02252L14.9674 9.02731C14.8365 9.43741 14.5934 9.77185 14.2553 9.97347C13.9668 10.1429 13.6184 10.1942 13.223 10.1501L13.223 10.1501L13.2168 10.1494C12.5037 10.0753 11.6546 9.76431 10.8459 9.28143C10.0392 8.79974 9.33486 8.18416 8.88465 7.56129L8.88466 7.56128Z" stroke="#0E0E2B" stroke-width="1.67"/>
</svg>
