<svg width="24" height="24" viewBox="0 0 24 24" fill="none" xmlns="http://www.w3.org/2000/svg">
<path d="M18.4171 2.30046L18.4196 2.29965L18.5305 2.64629M18.4171 2.30046L18.5291 2.64675M18.4171 2.30046L18.4007 2.30585L18.3958 2.30744L18.3946 2.30784L18.3942 2.30796L17.0963 2.72813L17.1323 2.76417L18.4171 2.30046ZM18.5305 2.64629C18.53 2.64644 18.5295 2.6466 18.5291 2.64675M18.5305 2.64629L18.6703 3.0835L19.2418 2.51194L19.5612 2.83128C19.9889 2.71513 20.3824 2.62397 20.7312 2.55261C20.7483 2.4525 20.7633 2.35891 20.7765 2.27231L21.602 2.39744L21.7262 3.22315C21.6395 3.23619 21.5459 3.2511 21.4457 3.26811C21.3741 3.61596 21.2826 4.00865 21.1661 4.4362L21.4851 4.75524L20.8947 5.34567L20.1005 5.08787C20.1456 4.94892 20.1881 4.81257 20.2281 4.6791L19.318 3.76898C19.1914 3.8069 19.0622 3.84703 18.9308 3.88952L18.9285 3.89025C18.9285 3.89025 18.9285 3.89026 18.9284 3.89029C18.9283 3.8903 18.9283 3.89031 18.9283 3.89033C18.9278 3.89046 18.9268 3.8908 18.9247 3.89149L18.9086 3.89679L18.6514 3.10238L18.6702 3.08353M18.5305 2.64629C18.5438 2.64198 18.5571 2.63771 18.5703 2.63346L18.6702 3.08353M18.5291 2.64675L18.6702 3.08353M18.5291 2.64675C18.5215 2.6492 18.5139 2.65166 18.5063 2.65413C18.277 2.72858 18.0364 2.81142 17.7863 2.90346L17.8903 3.00741L18.3183 3.43547L20.5616 5.67876L20.9908 6.10797L21.0965 6.21369C21.1888 5.9631 21.2718 5.72201 21.3463 5.49228C21.3531 5.4713 21.3599 5.45043 21.3665 5.42964L18.6702 3.08353M20.9549 6.58679L20.7335 6.36532L20.3043 5.93611L18.061 3.69281L17.6329 3.26476L17.4132 3.04505C17.3171 3.08264 17.2198 3.12156 17.1214 3.16184C15.2812 3.91513 13.0612 5.14607 11.0798 7.12758C10.4732 7.7341 9.83347 8.41826 9.23303 9.11832L8.86624 9.54597L8.85757 9.54305L8.35337 10.196C7.76165 10.9623 7.28438 11.6817 6.99198 12.283L6.9241 12.4225L6.80356 12.6704L7.01187 12.7594L20.9549 6.58679ZM20.9549 6.58679C20.9175 6.68241 20.8788 6.77919 20.8388 6.87705C20.0856 8.71753 18.8545 10.9382 16.8724 12.9202C16.8724 12.9202 16.8724 12.9202 16.8724 12.9202C16.2658 13.5268 15.5816 14.1666 14.8815 14.7671L14.4539 15.1338L14.4568 15.1424L13.8042 15.6463C13.0377 16.2382 12.3182 16.7156 11.717 17.0079L11.5774 17.0758L11.3295 17.1964L11.2405 16.9883L20.9549 6.58679ZM13.0083 9.26973L13.0068 9.26762C12.8871 9.10556 12.835 8.95297 12.835 8.8145C12.835 8.64525 12.9025 8.47623 13.0345 8.32509L13.0352 8.32435C13.7083 7.55203 14.5824 7.00987 15.5792 6.84451C15.7367 6.81917 15.8848 6.84414 16.0141 6.91992C16.1493 6.99922 16.2469 7.12165 16.2992 7.26647L16.2991 7.26649L16.3025 7.27539C16.6634 8.24154 16.6377 9.2887 16.314 10.2671L16.3124 10.2719C16.25 10.4645 16.1404 10.6044 16.0026 10.6856C15.8926 10.749 15.7423 10.7788 15.5353 10.7561L15.5353 10.7561L15.5292 10.7555C15.1328 10.7149 14.6382 10.5404 14.1542 10.2557C13.6718 9.97202 13.262 9.61537 13.0083 9.26973Z" stroke="#0E0E2B" stroke-width="1.67"/>
</svg>
