<svg width="24" height="24" viewBox="0 0 24 24" fill="none" xmlns="http://www.w3.org/2000/svg">
<path d="M15.0001 8L11.0001 12C10.7903 12.2089 10.6295 12.4618 10.5294 12.7404C10.4292 13.019 10.3921 13.3164 10.4208 13.611C10.4495 13.9057 10.5433 14.1903 10.6953 14.4444C10.8474 14.6984 11.054 14.9155 11.3001 15.08L14.3701 17.08C14.4855 17.1574 14.5834 17.2579 14.6578 17.3753C14.7321 17.4926 14.7812 17.6241 14.8019 17.7615C14.8226 17.8989 14.8145 18.039 14.778 18.1731C14.7415 18.3071 14.6775 18.4321 14.5901 18.54L12.0001 22M7 6.99995L8.73 5.26994C9.07806 4.9198 9.54332 4.71077 10.0362 4.68308C10.5292 4.65539 11.0149 4.81099 11.4 5.11994L18.6 10.88C18.9851 11.1889 19.4708 11.3445 19.9638 11.3168C20.4567 11.2891 20.9219 11.0801 21.27 10.73L23 8.99995M7 16L1 22M21 4C21 5.10457 20.1046 6 19 6C17.8954 6 17 5.10457 17 4C17 2.89543 17.8954 2 19 2C20.1046 2 21 2.89543 21 4Z" stroke="#0E0E2B" stroke-width="1.67" stroke-linecap="round" stroke-linejoin="round"/>
</svg>
