<svg width="24" height="24" viewBox="0 0 24 24" fill="none" xmlns="http://www.w3.org/2000/svg">
<path d="M22 13.8182V10.1818H19.0364C18.8644 9.52561 18.6044 8.89566 18.2636 8.30909L20.3545 6.2182L17.7818 3.64545L15.6909 5.73635C15.1043 5.39556 14.4744 5.13566 13.8182 4.96365V2H10.1818V4.96365C9.52561 5.13566 8.89566 5.39556 8.30909 5.73635L6.21818 3.64545L3.64545 6.2182L5.73636 8.30909C5.39558 8.89566 5.13564 9.52561 4.96363 10.1818H2V13.8182H4.96363C5.13564 14.4744 5.39558 15.1043 5.73636 15.6909L3.64545 17.7818L6.21818 20.3545L8.30909 18.2637C8.89566 18.6044 9.52561 18.8643 10.1818 19.0364V22H13.8182V19.0364C14.4744 18.8643 15.1043 18.6044 15.6909 18.2637L17.7818 20.3545L20.3545 17.7818L18.2636 15.6909C18.6044 15.1043 18.8644 14.4744 19.0364 13.8182H22Z" stroke="#0E0E2B" stroke-width="1.67" stroke-miterlimit="10" stroke-linecap="square"/>
<path d="M12 14.7273C13.5062 14.7273 14.7273 13.5062 14.7273 12C14.7273 10.4938 13.5062 9.27272 12 9.27272C10.4938 9.27272 9.27272 10.4938 9.27272 12C9.27272 13.5062 10.4938 14.7273 12 14.7273Z" stroke="#0E0E2B" stroke-width="1.67" stroke-miterlimit="10" stroke-linecap="square"/>
</svg>
