<svg width="24" height="24" viewBox="0 0 24 24" fill="none" xmlns="http://www.w3.org/2000/svg">
<path d="M17 5.82963C17.6467 6.57164 18.0038 7.52803 18.0038 8.51861C18.0038 9.5092 17.6467 10.4656 17 11.2076M20 1.70996C20.9444 2.56658 21.7 3.61586 22.2173 4.78915C22.7346 5.96245 23.002 7.23333 23.002 8.51869C23.002 9.80405 22.7346 11.0749 22.2173 12.2482C21.7 13.4215 20.9444 14.4708 20 15.3274M15 21.71H1V19.366C1.00016 18.7644 1.17597 18.1764 1.50523 17.6761C1.83449 17.1759 2.30244 16.7858 2.85 16.5552C6.1737 15.3101 9.8263 15.3101 13.15 16.5552C13.6976 16.7858 14.1655 17.1759 14.4948 17.6761C14.824 18.1764 14.9998 18.7644 15 19.366V21.71ZM12 8.51864C12 10.7603 10.2091 12.5775 8 12.5775C5.79086 12.5775 4 10.7603 4 8.51864C4 6.277 5.79086 4.45979 8 4.45979C10.2091 4.45979 12 6.277 12 8.51864Z" stroke="#0E0E2B" stroke-width="1.67" stroke-linecap="round" stroke-linejoin="round"/>
</svg>
