<svg width="24" height="24" viewBox="0 0 24 24" fill="none" xmlns="http://www.w3.org/2000/svg">
<path d="M12 16L11.5212 16.6841L12 17.0192L12.4788 16.6841L12 16ZM2 9L1.5704 8.28399L0.46691 8.94608L1.52116 9.68406L2 9ZM12 3L12.4296 2.28399L12 2.02623L11.5704 2.28399L12 3ZM22 9L22.4788 9.68406L23.5331 8.94608L22.4296 8.28399L22 9ZM5.165 11.8V18.0001H6.835V11.8H5.165ZM5.165 18.0001C5.165 19.3169 6.21058 20.2827 7.38567 20.8696C8.61059 21.4813 10.2437 21.8351 12 21.8351V20.1651C10.4463 20.1651 9.07941 19.8488 8.13183 19.3755C7.13442 18.8774 6.835 18.3432 6.835 18.0001H5.165ZM12 21.8351C13.7563 21.8351 15.3894 21.4813 16.6143 20.8696C17.7894 20.2827 18.835 19.3169 18.835 18.0001H17.165C17.165 18.3432 16.8656 18.8774 15.8682 19.3755C14.9206 19.8488 13.5537 20.1651 12 20.1651V21.8351ZM18.835 18.0001V11.8H17.165V18.0001H18.835ZM20.165 9.69995V16.9999H21.835V9.69995H20.165ZM12.4788 15.3159L2.47884 8.31594L1.52116 9.68406L11.5212 16.6841L12.4788 15.3159ZM2.4296 9.71601L12.4296 3.71601L11.5704 2.28399L1.5704 8.28399L2.4296 9.71601ZM11.5704 3.71601L21.5704 9.71601L22.4296 8.28399L12.4296 2.28399L11.5704 3.71601ZM21.5212 8.31594L11.5212 15.3159L12.4788 16.6841L22.4788 9.68406L21.5212 8.31594Z" fill="#0E0E2B"/>
</svg>
