<svg width="24" height="24" viewBox="0 0 24 24" fill="none" xmlns="http://www.w3.org/2000/svg">
<path d="M2.23513 5.64042L2.90831 5.14641L2.90676 5.1443L2.23513 5.64042ZM2.28463 4.24573L2.91343 4.79512L2.91408 4.79438L2.28463 4.24573ZM4.41622 3.01438L4.28233 2.19018L4.27985 2.19059L4.41622 3.01438ZM5.11231 3.14003L5.53465 2.41971L5.53465 2.41971L5.11231 3.14003ZM5.5671 3.68974L4.78157 3.97305L4.7849 3.98195L5.5671 3.68974ZM5.58256 6.17757L4.78982 5.91525L4.78825 5.9201L5.58256 6.17757ZM5.10303 6.79324L5.52207 7.51549L5.52508 7.51373L5.10303 6.79324ZM4.41622 6.91889L4.50733 6.08885L4.50124 6.08823L4.41622 6.91889ZM2.23513 12.5512L2.90831 12.0572L2.90676 12.0551L2.23513 12.5512ZM2.28463 11.1565L2.91343 11.7059L2.91408 11.7052L2.28463 11.1565ZM4.41622 9.92517L4.28233 9.10097L4.27985 9.10138L4.41622 9.92517ZM5.11231 10.0508L5.53465 9.3305L5.53465 9.3305L5.11231 10.0508ZM5.5671 10.6005L4.78157 10.8838L4.7849 10.8927L5.5671 10.6005ZM5.58256 13.0884L4.78982 12.826L4.78825 12.8309L5.58256 13.0884ZM5.10303 13.704L5.52207 14.4263L5.52508 14.4245L5.10303 13.704ZM4.41622 13.8297L4.50733 12.9996L4.50124 12.999L4.41622 13.8297ZM2.23513 19.8128L2.90831 19.3188L2.90676 19.3167L2.23513 19.8128ZM2.28463 18.4181L2.91343 18.9675L2.91408 18.9667L2.28463 18.4181ZM4.41622 17.1867L4.28233 16.3625L4.27985 16.3629L4.41622 17.1867ZM5.11231 17.3124L5.53465 16.5921L5.53465 16.5921L5.11231 17.3124ZM5.5671 17.8621L4.78157 18.1454L4.7849 18.1543L5.5671 17.8621ZM5.58256 20.3499L4.78982 20.0876L4.78825 20.0925L5.58256 20.3499ZM5.10303 20.9656L5.52207 21.6878L5.52508 21.6861L5.10303 20.9656ZM4.41622 21.0912L4.50733 20.2612L4.50124 20.2606L4.41622 21.0912ZM2.90676 5.1443C2.84627 5.06242 2.835 5.00605 2.835 4.97449H1.165C1.165 5.44552 1.34554 5.84148 1.56349 6.13654L2.90676 5.1443ZM2.835 4.97449C2.835 4.92551 2.85377 4.86341 2.91343 4.79512L1.65582 3.69634C1.37517 4.01756 1.165 4.45805 1.165 4.97449H2.835ZM2.91408 4.79438C3.35459 4.28899 3.91851 3.94314 4.55259 3.83817L4.27985 2.19059C3.20618 2.36833 2.30985 2.94599 1.65517 3.69708L2.91408 4.79438ZM4.55011 3.83858C4.60929 3.82896 4.65387 3.83918 4.68998 3.86035L5.53465 2.41971C5.13144 2.1833 4.68721 2.12441 4.28233 2.19019L4.55011 3.83858ZM4.68998 3.86035C4.73178 3.88486 4.76361 3.92309 4.78162 3.97303L6.35257 3.40644C6.20971 3.01034 5.93216 2.65278 5.53465 2.41971L4.68998 3.86035ZM4.7849 3.98195C5.01553 4.59931 5.00171 5.27496 4.78984 5.91526L6.37529 6.43988C6.68936 5.49073 6.73123 4.41987 6.34929 3.39752L4.7849 3.98195ZM4.78825 5.9201C4.75981 6.00783 4.7168 6.05178 4.68099 6.07275L5.52508 7.51373C5.97189 7.252 6.24444 6.84362 6.37688 6.43504L4.78825 5.9201ZM4.68399 6.071C4.66597 6.08146 4.61792 6.10101 4.50733 6.08888L4.32511 7.7489C4.6724 7.78702 5.10697 7.75632 5.52207 7.51548L4.68399 6.071ZM4.50124 6.08823C4.26807 6.06436 3.95547 5.9577 3.63758 5.77075C3.32133 5.58476 3.06193 5.35574 2.90831 5.14641L1.56194 6.13443C1.87857 6.56591 2.32609 6.93685 2.79101 7.21027C3.25429 7.48272 3.79712 7.69489 4.3312 7.74955L4.50124 6.08823ZM2.90676 12.0551C2.84627 11.9732 2.835 11.9168 2.835 11.8853H1.165C1.165 12.3563 1.34554 12.7523 1.56349 13.0473L2.90676 12.0551ZM2.835 11.8853C2.835 11.8363 2.85377 11.7742 2.91343 11.7059L1.65582 10.6071C1.37517 10.9284 1.165 11.3688 1.165 11.8853H2.835ZM2.91408 11.7052C3.35459 11.1998 3.91851 10.8539 4.55259 10.749L4.27985 9.10138C3.20618 9.27912 2.30985 9.85678 1.65517 10.6079L2.91408 11.7052ZM4.55011 10.7494C4.60929 10.7398 4.65387 10.75 4.68998 10.7711L5.53465 9.3305C5.13144 9.0941 4.68721 9.0352 4.28233 9.10098L4.55011 10.7494ZM4.68998 10.7711C4.73178 10.7956 4.76361 10.8339 4.78162 10.8838L6.35257 10.3172C6.20971 9.92113 5.93216 9.56357 5.53465 9.3305L4.68998 10.7711ZM4.7849 10.8927C5.01553 11.5101 5.00171 12.1858 4.78984 12.8261L6.37529 13.3507C6.68936 12.4015 6.73123 11.3307 6.34929 10.3083L4.7849 10.8927ZM4.78825 12.8309C4.75981 12.9186 4.7168 12.9626 4.68099 12.9835L5.52508 14.4245C5.97189 14.1628 6.24444 13.7544 6.37688 13.3458L4.78825 12.8309ZM4.68399 12.9818C4.66597 12.9923 4.61792 13.0118 4.50733 12.9997L4.32511 14.6597C4.67239 14.6978 5.10697 14.6671 5.52207 14.4263L4.68399 12.9818ZM4.50124 12.999C4.26807 12.9752 3.95547 12.8685 3.63758 12.6815C3.32133 12.4956 3.06193 12.2665 2.90831 12.0572L1.56194 13.0452C1.87857 13.4767 2.32609 13.8476 2.79101 14.1211C3.2543 14.3935 3.79712 14.6057 4.3312 14.6603L4.50124 12.999ZM2.90676 19.3167C2.84627 19.2348 2.835 19.1784 2.835 19.1468H1.165C1.165 19.6179 1.34554 20.0138 1.56349 20.3089L2.90676 19.3167ZM2.835 19.1468C2.835 19.0979 2.85377 19.0358 2.91343 18.9675L1.65582 17.8687C1.37517 18.1899 1.165 18.6304 1.165 19.1468H2.835ZM2.91408 18.9667C3.35459 18.4613 3.91851 18.1155 4.55259 18.0105L4.27985 16.3629C3.20618 16.5407 2.30985 17.1183 1.65517 17.8694L2.91408 18.9667ZM4.55011 18.0109C4.60929 18.0013 4.65387 18.0115 4.68998 18.0327L5.53465 16.5921C5.13144 16.3557 4.68722 16.2968 4.28233 16.3625L4.55011 18.0109ZM4.68998 18.0327C4.73178 18.0572 4.76361 18.0954 4.78162 18.1454L6.35257 17.5788C6.20971 17.1827 5.93216 16.8251 5.53465 16.5921L4.68998 18.0327ZM4.7849 18.1543C5.01553 18.7717 5.00171 19.4473 4.78984 20.0876L6.37529 20.6122C6.68936 19.6631 6.73123 18.5922 6.34929 17.5699L4.7849 18.1543ZM4.78825 20.0925C4.75981 20.1802 4.7168 20.2241 4.68099 20.2451L5.52508 21.6861C5.97189 21.4244 6.24444 21.016 6.37688 20.6074L4.78825 20.0925ZM4.68399 20.2434C4.66597 20.2538 4.61792 20.2734 4.50733 20.2612L4.32511 21.9213C4.6724 21.9594 5.10697 21.9287 5.52207 21.6878L4.68399 20.2434ZM4.50124 20.2606C4.26807 20.2367 3.95547 20.1301 3.63758 19.9431C3.32133 19.7571 3.06193 19.5281 2.90831 19.3188L1.56194 20.3068C1.87857 20.7383 2.32609 21.1092 2.79101 21.3826C3.2543 21.6551 3.79712 21.8672 4.3312 21.9219L4.50124 20.2606Z" fill="#0E0E2B"/>
<path d="M10.2 3.96499C9.73879 3.96499 9.36495 4.33883 9.36495 4.79999C9.36495 5.26115 9.73879 5.63499 10.2 5.63499V3.96499ZM21 5.63499C21.4611 5.63499 21.835 5.26115 21.835 4.79999C21.835 4.33883 21.4611 3.96499 21 3.96499V5.63499ZM10.2 11.165C9.73879 11.165 9.36495 11.5388 9.36495 12C9.36495 12.4612 9.73879 12.835 10.2 12.835V11.165ZM21 12.835C21.4611 12.835 21.835 12.4612 21.835 12C21.835 11.5388 21.4611 11.165 21 11.165V12.835ZM10.2 18.365C9.73879 18.365 9.36495 18.7388 9.36495 19.2C9.36495 19.6612 9.73879 20.035 10.2 20.035V18.365ZM21 20.035C21.4611 20.035 21.835 19.6612 21.835 19.2C21.835 18.7388 21.4611 18.365 21 18.365V20.035ZM10.2 5.63499H21V3.96499H10.2V5.63499ZM10.2 12.835H21V11.165H10.2V12.835ZM10.2 20.035H21V18.365H10.2V20.035Z" fill="#0E0E2B"/>
</svg>
