<svg width="24" height="24" viewBox="0 0 24 24" fill="none" xmlns="http://www.w3.org/2000/svg">
<path d="M12 12C10.8065 12 9.6619 11.5211 8.81799 10.6687C7.97407 9.81621 7.49996 8.66007 7.49996 7.45454V6.54545C7.49996 5.33992 7.97407 4.18378 8.81799 3.33134C9.6619 2.4789 10.8065 2 12 2C13.1934 2 14.338 2.4789 15.1819 3.33134C16.0258 4.18378 16.5 5.33992 16.5 6.54545V7.45454C16.5 8.66007 16.0258 9.81621 15.1819 10.6687C14.338 11.5211 13.1934 12 12 12Z" stroke="#0E0E2B" stroke-width="1.67" stroke-linecap="round" stroke-linejoin="round"/>
<path d="M21 20.1C21.0011 19.3042 20.7438 18.53 20.2675 17.8962C19.7912 17.2623 19.1221 16.8038 18.363 16.5909C14.2145 15.3183 9.78545 15.3183 5.637 16.5909C4.87788 16.8038 4.20885 17.2623 3.73252 17.8962C3.25619 18.53 2.99887 19.3042 3 20.1V22H21V20.1Z" stroke="#0E0E2B" stroke-width="1.67" stroke-linecap="round" stroke-linejoin="round"/>
</svg>
