<svg width="16" height="16" viewBox="0 0 16 16" fill="none" xmlns="http://www.w3.org/2000/svg">
<path d="M11.8299 11.9991C12.4055 11.9991 12.9574 11.7755 13.3644 11.3774C13.7714 10.9794 14 10.4396 14 9.87671C14 9.31383 13.7714 8.774 13.3644 8.37598C12.9574 7.97796 12.4055 7.75436 11.8299 7.75436V7.75436C11.7695 6.73455 11.311 5.77637 10.549 5.07772C9.78698 4.37906 8.77972 3.99328 7.73525 4.00009C6.69077 4.0069 5.68887 4.40578 4.93645 5.11431C4.18404 5.82284 3.7386 6.78689 3.69212 7.8074C3.1659 7.92361 2.7028 8.22735 2.39313 8.65938C2.08347 9.0914 1.94944 9.62075 2.01719 10.1442C2.08493 10.6676 2.3496 11.1476 2.75956 11.4905C3.16953 11.8335 3.69541 12.0148 4.23464 11.9991H11.8299Z" stroke="#0E0E2B" stroke-width="1.33" stroke-miterlimit="10" stroke-linecap="square"/>
</svg>
