<svg width="18" height="16" viewBox="0 0 18 16" fill="none" xmlns="http://www.w3.org/2000/svg">
<path d="M6.17849 7.12189H3.86729C3.7612 7.12189 3.65946 7.07975 3.58444 7.00473C3.50943 6.92972 3.46729 6.82798 3.46729 6.72189C3.46729 6.6158 3.50943 6.51406 3.58444 6.43905C3.65946 6.36403 3.7612 6.32189 3.86729 6.32189H5.77849V3.67149C5.77849 3.5654 5.82063 3.46366 5.89565 3.38864C5.97066 3.31363 6.0724 3.27148 6.17849 3.27148C6.28458 3.27148 6.38632 3.31363 6.46133 3.38864C6.53635 3.46366 6.57849 3.5654 6.57849 3.67149V6.72189C6.57849 6.82798 6.53635 6.92972 6.46133 7.00473C6.38632 7.07975 6.28458 7.12189 6.17849 7.12189Z" fill="black"/>
<path d="M13.5391 15.6322H9.66065C9.398 15.6322 9.13793 15.5805 8.89528 15.4799C8.65263 15.3794 8.43215 15.2321 8.24643 15.0464C8.06071 14.8607 7.9134 14.6402 7.81289 14.3976C7.71238 14.1549 7.66064 13.8948 7.66064 13.6322V7.10898C7.66064 7.0029 7.70279 6.90116 7.7778 6.82614C7.85282 6.75113 7.95456 6.70898 8.06065 6.70898H15.1391C15.2451 6.70898 15.3469 6.75113 15.4219 6.82614C15.4969 6.90116 15.5391 7.0029 15.5391 7.10898V13.6322C15.5391 13.8948 15.4873 14.1549 15.3868 14.3976C15.2863 14.6402 15.139 14.8607 14.9533 15.0464C14.7676 15.2321 14.5471 15.3794 14.3044 15.4799C14.0618 15.5805 13.8017 15.6322 13.5391 15.6322ZM8.46065 7.50898V13.6322C8.46065 13.9504 8.58707 14.2557 8.81212 14.4807C9.03716 14.7058 9.34239 14.8322 9.66065 14.8322H13.5391C13.8573 14.8322 14.1625 14.7058 14.3876 14.4807C14.6126 14.2557 14.7391 13.9504 14.7391 13.6322V7.50898H8.46065Z" fill="black"/>
<path d="M16.1923 13.1642H15.1363C15.0302 13.1642 14.9285 13.1221 14.8535 13.0471C14.7785 12.9721 14.7363 12.8703 14.7363 12.7642C14.7363 12.6582 14.7785 12.5564 14.8535 12.4814C14.9285 12.4064 15.0302 12.3642 15.1363 12.3642H16.1923C16.2984 12.3642 16.4002 12.3221 16.4752 12.2471C16.5502 12.1721 16.5923 12.0703 16.5923 11.9642V10.3562C16.5923 10.2502 16.5502 10.1484 16.4752 10.0734C16.4002 9.99839 16.2984 9.95625 16.1923 9.95625H15.1363C15.0302 9.95625 14.9285 9.91411 14.8535 9.83909C14.7785 9.76408 14.7363 9.66234 14.7363 9.55625C14.7363 9.45016 14.7785 9.34842 14.8535 9.27341C14.9285 9.19839 15.0302 9.15625 15.1363 9.15625H16.1923C16.5106 9.15625 16.8158 9.28268 17.0409 9.50772C17.2659 9.73277 17.3923 10.038 17.3923 10.3562V11.9642C17.3923 12.2825 17.2659 12.5877 17.0409 12.8128C16.8158 13.0378 16.5106 13.1642 16.1923 13.1642Z" fill="black"/>
<path d="M10.8697 6.27474C10.7636 6.27474 10.6619 6.2326 10.5869 6.15758C10.5119 6.08257 10.4697 5.98083 10.4697 5.87474V4.58594C10.4697 4.05551 10.6804 3.5468 11.0555 3.17173C11.4306 2.79665 11.9393 2.58594 12.4697 2.58594H13.9449C14.051 2.58594 14.1528 2.5438 14.2278 2.46878C14.3028 2.39377 14.3449 2.29203 14.3449 2.18594C14.3454 1.70423 14.5369 1.24236 14.8775 0.901737C15.2182 0.561113 15.68 0.369564 16.1617 0.369141H16.9929C17.099 0.369141 17.2008 0.411283 17.2758 0.486298C17.3508 0.561313 17.3929 0.663054 17.3929 0.769141C17.3929 0.875227 17.3508 0.976969 17.2758 1.05198C17.2008 1.127 17.099 1.16914 16.9929 1.16914H16.1617C15.8921 1.16935 15.6336 1.27655 15.443 1.46719C15.2523 1.65783 15.1451 1.91633 15.1449 2.18594C15.1449 2.5042 15.0185 2.80943 14.7935 3.03447C14.5684 3.25951 14.2632 3.38594 13.9449 3.38594H12.4697C12.1515 3.38594 11.8462 3.51237 11.6212 3.73741C11.3962 3.96246 11.2697 4.26768 11.2697 4.58594V5.87474C11.2697 5.98083 11.2276 6.08257 11.1526 6.15758C11.0776 6.2326 10.9758 6.27474 10.8697 6.27474Z" fill="black"/>
<path d="M14.2351 4.67043H12.4063C12.3003 4.67043 12.1985 4.62829 12.1235 4.55327C12.0485 4.47826 12.0063 4.37652 12.0063 4.27043C12.0063 4.16434 12.0485 4.0626 12.1235 3.98759C12.1985 3.91257 12.3003 3.87043 12.4063 3.87043H14.2351C14.6519 3.87001 15.0515 3.70425 15.3462 3.40954C15.641 3.11482 15.8067 2.71523 15.8071 2.29844C15.8071 2.19235 15.8493 2.09061 15.9243 2.01559C15.9993 1.94058 16.101 1.89844 16.2071 1.89844C16.3132 1.89844 16.415 1.94058 16.49 2.01559C16.565 2.09061 16.6071 2.19235 16.6071 2.29844C16.6065 2.92733 16.3564 3.53029 15.9117 3.97499C15.467 4.41968 14.864 4.66979 14.2351 4.67043Z" fill="black"/>
<path d="M6.17503 12.2885C4.69724 12.2885 3.27998 11.7015 2.23503 10.6565C1.19008 9.6116 0.603027 8.19434 0.603027 6.71655C0.603027 5.23876 1.19008 3.8215 2.23503 2.77655C3.27998 1.7316 4.69724 1.14455 6.17503 1.14455C7.59548 1.14095 8.96197 1.6884 9.98703 2.67175C10.0271 2.7075 10.0596 2.75096 10.0825 2.79953C10.1054 2.84811 10.1183 2.9008 10.1205 2.95447C10.1226 3.00814 10.1139 3.06169 10.0949 3.11192C10.0758 3.16215 10.0469 3.20804 10.0098 3.24684C9.97262 3.28564 9.92805 3.31657 9.8787 3.33778C9.82935 3.35898 9.77624 3.37003 9.72253 3.37026C9.66882 3.3705 9.61561 3.35991 9.56607 3.33914C9.51654 3.31836 9.4717 3.28783 9.43423 3.24935C8.5577 2.40891 7.38937 1.94118 6.17503 1.94455C4.90941 1.95113 3.69825 2.4602 2.80798 3.35977C1.9177 4.25935 1.42125 5.47574 1.42783 6.74135C1.4344 8.00696 1.94348 9.21813 2.84305 10.1084C3.74262 10.9987 4.95901 11.4951 6.22463 11.4885C6.28242 11.4899 6.34021 11.4864 6.39743 11.4781C6.44996 11.4678 6.50403 11.4681 6.55645 11.479C6.60887 11.4899 6.65857 11.5112 6.70259 11.5417C6.74661 11.5722 6.78407 11.6112 6.81274 11.6564C6.84141 11.7016 6.86071 11.7521 6.8695 11.8049C6.87828 11.8578 6.87637 11.9118 6.86388 11.9639C6.8514 12.0159 6.82858 12.065 6.79679 12.1081C6.765 12.1511 6.72489 12.1874 6.67882 12.2147C6.63276 12.242 6.58169 12.2598 6.52863 12.2669C6.41158 12.2841 6.29329 12.2913 6.17503 12.2885Z" fill="black"/>
<path d="M16.1103 15.6301H7.08945C6.98337 15.6301 6.88162 15.5879 6.80661 15.5129C6.7316 15.4379 6.68945 15.3362 6.68945 15.2301C6.68945 15.124 6.7316 15.0222 6.80661 14.9472C6.88162 14.8722 6.98337 14.8301 7.08945 14.8301H16.1103C16.2163 14.8301 16.3181 14.8722 16.3931 14.9472C16.4681 15.0222 16.5103 15.124 16.5103 15.2301C16.5103 15.3362 16.4681 15.4379 16.3931 15.5129C16.3181 15.5879 16.2163 15.6301 16.1103 15.6301Z" fill="black"/>
</svg>
