<svg width="20" height="20" viewBox="0 0 20 20" fill="none" xmlns="http://www.w3.org/2000/svg">
<g clip-path="url(#clip0_3229_7889)">
<path d="M19.2167 15.8333H16.9683C17.8109 15.4704 18.5269 14.8655 19.0253 14.0953C19.1316 13.9186 19.1451 13.7012 19.0617 13.5127C19.0397 13.4627 19.0123 13.4027 18.9817 13.3373C19.3773 12.7658 19.6721 12.1307 19.8533 11.4597C20.0064 10.7325 20.0416 9.98536 19.9573 9.247C19.923 8.93433 19.7116 8.66943 19.4143 8.56667C19.0763 6.94467 18.6213 6.68567 18.4673 6.6C18.2717 6.48786 18.0355 6.47117 17.826 6.55467C17.0007 6.869 16.9977 7.60667 16.995 8.257C16.995 8.41267 16.99 8.57167 16.98 8.73033C16.6598 8.80508 16.4013 9.0407 16.2973 9.35267C16.2308 9.54706 16.1384 9.7316 16.0227 9.90133C15.8851 9.8281 15.7434 9.76288 15.5983 9.706C15.4604 9.65489 15.3086 9.65548 15.171 9.70767L13.4593 10.3617C13.3249 10.4137 13.2128 10.511 13.1423 10.6367C13.0631 10.7812 12.9918 10.93 12.9287 11.0823C12.8394 11.055 12.7519 11.0223 12.6667 10.9843V7.16667C12.6667 6.79848 12.3682 6.5 12 6.5H4C3.63181 6.5 3.33333 6.79848 3.33333 7.16667V7.62067C3.02528 7.54058 2.70829 7.50003 2.39 7.5C0 7.5 0 10.1267 0 10.99C0 12.9197 0.938 14.1667 2.39 14.1667C2.77465 14.1646 3.15719 14.1098 3.527 14.004C3.77309 14.7437 4.25002 15.3849 4.88767 15.8333H2.11667C1.92418 15.8169 1.73314 15.8782 1.58602 16.0034C1.43891 16.1286 1.34794 16.3074 1.33333 16.5V17.1667C1.33333 17.9143 2.07267 18.5 3.01667 18.5H18.3167C19.2607 18.5 20 17.9143 20 17.1667V16.5C19.9854 16.3074 19.8944 16.1286 19.7473 16.0034C19.6002 15.8782 19.4091 15.8169 19.2167 15.8333ZM18.0627 7.17533C18.0876 7.16191 18.1179 7.16346 18.1413 7.17933C18.1983 7.211 18.472 7.42133 18.7237 8.525C18.4433 8.53667 18.08 8.56133 17.657 8.616C17.6613 8.49167 17.6623 8.37033 17.6627 8.25733C17.6643 7.56667 17.698 7.31433 18.0627 7.17533ZM16.9333 9.55467C16.9673 9.45548 17.0532 9.38307 17.1567 9.36633C17.2183 9.35367 17.2793 9.34467 17.347 9.333C17.9291 9.23465 18.518 9.18304 19.1083 9.17867H19.1303C19.2117 9.17312 19.2837 9.23124 19.2953 9.312C19.3721 9.97548 19.3422 10.647 19.2067 11.301C19.0808 11.7766 18.8857 12.2311 18.6277 12.65C18.1229 11.7172 17.4293 10.8998 16.591 10.25C16.7352 10.0343 16.8503 9.80048 16.9333 9.55467ZM13.7167 10.975L15.3877 10.3367C17.172 11.0383 18.2543 13.3273 18.4543 13.7567C18.27 14.0753 17.6767 14.8797 16.1513 15.4617C15.6282 15.6676 15.0768 15.7929 14.516 15.8333H14.0763C13.8437 15.8226 13.6134 15.7812 13.3917 15.71C13.3727 15.6283 13.347 15.5163 13.3213 15.3817C13.1627 14.556 12.8857 12.481 13.7153 10.975H13.7167ZM11.6863 15.319C12.015 15.4785 12.3568 15.6092 12.708 15.7097C12.718 15.7563 12.7273 15.796 12.7357 15.8333H11.1C11.3131 15.6831 11.5097 15.5107 11.6863 15.319ZM12.5773 14.9667C12.1287 14.8183 11.7065 14.5995 11.3267 14.3183C10.8297 13.9024 10.4067 13.4054 10.0757 12.8483C10.0361 12.7632 10.061 12.662 10.1357 12.605C10.14 12.601 10.1443 12.597 10.148 12.593C10.6076 12.197 11.0969 11.837 11.6117 11.516C11.6647 11.4827 11.7177 11.447 11.782 11.4097C11.8596 11.3591 11.9592 11.357 12.039 11.404C12.2477 11.5363 12.4737 11.6389 12.7107 11.709C12.4505 12.7753 12.4051 13.8827 12.5773 14.9667ZM9.692 10.4093C9.70246 10.3741 9.72965 10.3463 9.76467 10.335C10.118 10.2017 10.2797 10.361 10.6913 10.8887C10.762 10.979 10.8377 11.0757 10.919 11.1727C10.5557 11.4163 10.2567 11.6423 10.0307 11.8243C9.684 11.0517 9.622 10.59 9.692 10.4093ZM3.33333 11.9577C3.03644 12.0909 2.71541 12.1621 2.39 12.1667C2.13667 12.1667 2 11.5603 2 10.99C2 9.5 2.22533 9.5 2.39 9.5C2.73128 9.48609 3.06615 9.59555 3.33333 9.80833V11.9577ZM0.666667 10.991C0.666667 9.67567 0.862667 8.16667 2.39 8.16667C2.71027 8.16507 3.02874 8.21469 3.33333 8.31367V9.03C3.03701 8.89639 2.71503 8.82926 2.39 8.83333C1.414 8.83333 1.33333 9.85367 1.33333 10.99C1.33333 12.1443 1.72833 12.8333 2.39 12.8333C2.71147 12.83 3.03019 12.7737 3.33333 12.6667V12.8333C3.33475 13.0076 3.34879 13.1815 3.37533 13.3537C3.05532 13.4482 2.72366 13.4974 2.39 13.5C1.311 13.5 0.666667 12.5617 0.666667 10.99V10.991ZM4.07767 13.508C4.02574 13.2869 3.99968 13.0605 4 12.8333L4 7.16667H12V10.715C11.8253 10.6987 11.6497 10.7335 11.4943 10.815C11.398 10.705 11.3053 10.5917 11.217 10.4783C10.8393 9.99433 10.3703 9.39067 9.52767 9.71167C9.31644 9.78971 9.14963 9.95579 9.07067 10.1667C8.897 10.6143 9.04833 11.3197 9.52367 12.3103C9.34945 12.5794 9.34363 12.9242 9.50867 13.199C9.88176 13.8238 10.3585 14.3805 10.9183 14.8453C10.9767 14.8903 11.037 14.9313 11.0973 14.9727C10.5392 15.5251 9.7853 15.8345 9 15.8333H7C5.60091 15.8391 4.38577 14.8718 4.07767 13.507V13.508ZM19.3333 17.1667C19.3333 17.528 18.8667 17.8333 18.3167 17.8333H3.01667C2.46667 17.8333 2 17.528 2 17.1667V16.5303C2.03515 16.5092 2.07567 16.4986 2.11667 16.5H19.2167C19.2577 16.4986 19.2982 16.5092 19.3333 16.5303V17.1667Z" fill="black"/>
<path d="M7.33354 5.16667C7.33354 5.35076 7.48278 5.5 7.66687 5.5C7.85097 5.5 8.0002 5.35076 8.0002 5.16667C7.99799 4.93152 8.09205 4.70571 8.26054 4.54167C8.80232 3.9529 8.80232 3.0471 8.26054 2.45833C8.09205 2.29429 7.99799 2.06848 8.0002 1.83333C8.0002 1.64924 7.85097 1.5 7.66687 1.5C7.48278 1.5 7.33354 1.64924 7.33354 1.83333C7.3306 2.21978 7.47604 2.59262 7.73987 2.875C7.90651 3.04029 8.00023 3.26529 8.00023 3.5C8.00023 3.73471 7.90651 3.95971 7.73987 4.125C7.47604 4.40738 7.3306 4.78022 7.33354 5.16667Z" fill="black"/>
<path d="M5.33354 5.16667C5.33354 5.35076 5.48278 5.5 5.66687 5.5C5.85097 5.5 6.0002 5.35076 6.0002 5.16667C5.99799 4.93152 6.09205 4.70571 6.26053 4.54167C6.80232 3.9529 6.80232 3.0471 6.26053 2.45833C6.09205 2.29429 5.99799 2.06848 6.0002 1.83333C6.0002 1.64924 5.85097 1.5 5.66687 1.5C5.48278 1.5 5.33354 1.64924 5.33354 1.83333C5.3306 2.21978 5.47604 2.59262 5.73987 2.875C5.90651 3.04029 6.00023 3.26529 6.00023 3.5C6.00023 3.73471 5.90651 3.95971 5.73987 4.125C5.47604 4.40738 5.3306 4.78022 5.33354 5.16667Z" fill="black"/>
<path d="M9.33354 5.16667C9.33354 5.35076 9.48278 5.5 9.66687 5.5C9.85097 5.5 10.0002 5.35076 10.0002 5.16667C9.99799 4.93152 10.0921 4.70571 10.2605 4.54167C10.8023 3.9529 10.8023 3.0471 10.2605 2.45833C10.0921 2.29429 9.99799 2.06848 10.0002 1.83333C10.0002 1.64924 9.85097 1.5 9.66687 1.5C9.48278 1.5 9.33354 1.64924 9.33354 1.83333C9.3306 2.21978 9.47604 2.59262 9.73987 2.875C9.90651 3.04029 10.0002 3.26529 10.0002 3.5C10.0002 3.73471 9.90651 3.95971 9.73987 4.125C9.47604 4.40738 9.3306 4.78022 9.33354 5.16667Z" fill="black"/>
</g>
<defs>
<clipPath id="clip0_3229_7889">
<rect width="20" height="20" fill="white"/>
</clipPath>
</defs>
</svg>
