<svg width="16" height="16" viewBox="0 0 16 16" fill="none" xmlns="http://www.w3.org/2000/svg">
<path d="M8 11.3333L7.54625 11.8195L7.99999 12.243L8.45374 11.8195L8 11.3333ZM4.88238 7.51385L4.39623 7.06011L3.48874 8.0324L3.97488 8.48615L4.88238 7.51385ZM12.0252 8.48616L12.5114 8.03242L11.6039 7.06011L11.1177 7.51384L12.0252 8.48616ZM3.665 10.6667V10.0017H2.335V10.6667H3.665ZM3 14H2.335V14.665H3V14ZM13 14V14.665H13.665V14H13ZM13.665 10.6667V10.0017H12.335V10.6667H13.665ZM7.335 2V11.3333H8.665V2H7.335ZM3.97488 8.48615L7.54625 11.8195L8.45375 10.8472L4.88238 7.51385L3.97488 8.48615ZM8.45374 11.8195L12.0252 8.48616L11.1177 7.51384L7.54626 10.8472L8.45374 11.8195ZM2.335 10.6667V14H3.665V10.6667H2.335ZM3 14.665H13V13.335H3V14.665ZM13.665 14V10.6667H12.335V14H13.665Z" fill="#0E0E2B"/>
</svg>
