<svg width="16" height="16" viewBox="0 0 16 16" fill="none" xmlns="http://www.w3.org/2000/svg">
<path d="M9.00002 2L9.49023 1.55064L9.29255 1.335H9.00002V2ZM9.00002 5.27273H8.33502V5.93773H9.00002V5.27273ZM12 5.27273L12.665 5.27273L12.665 5.01405L12.4902 4.82337L12 5.27273ZM3 2V1.335H2.335V2H3ZM3 14H2.335V14.665H3V14ZM12 14V14.665H12.665L12.665 14L12 14ZM8.33502 2V5.27273H9.66502V2H8.33502ZM9.00002 5.93773H12V4.60773H9.00002V5.93773ZM9.00002 1.335H3V2.665H9.00002V1.335ZM2.335 2V14H3.665V2H2.335ZM3 14.665H12V13.335H3V14.665ZM12.665 14L12.665 5.27273L11.335 5.27273L11.335 14L12.665 14ZM12.4902 4.82337L9.49023 1.55064L8.50981 2.44936L11.5098 5.72208L12.4902 4.82337Z" fill="#0E0E2B"/>
</svg>
