<svg width="36" height="36" viewBox="0 0 36 36" fill="none" xmlns="http://www.w3.org/2000/svg">
<path d="M26.3182 6.75C24.9672 6.75093 23.6375 7.06727 22.4477 7.67077C21.258 8.27427 20.2453 9.14615 19.5 10.2086C18.5289 8.82817 17.1122 7.77917 15.4597 7.21676C13.8072 6.65435 12.0066 6.60839 10.3243 7.0857C8.6419 7.56301 7.16715 8.53822 6.11824 9.86707C5.06932 11.1959 4.50194 12.8078 4.5 14.4643C4.5 22.1786 19.5 33.75 19.5 33.75C19.5 33.75 34.5 22.1786 34.5 14.4643C34.5 12.4183 33.638 10.4562 32.1036 9.00946C30.5692 7.56275 28.4881 6.75 26.3182 6.75V6.75Z" stroke="#0033CC" stroke-width="1.67" stroke-miterlimit="10" stroke-linecap="square"/>
</svg>
