<svg width="14" height="13" viewBox="0 0 14 13" fill="none" xmlns="http://www.w3.org/2000/svg">
<path d="M9.72727 1C9.18688 1.00037 8.65499 1.12691 8.1791 1.36831C7.70321 1.60971 7.29812 1.95846 7 2.38343C6.61154 1.83127 6.0449 1.41167 5.38389 1.1867C4.72289 0.961738 4.00264 0.943357 3.3297 1.13428C2.65676 1.3252 2.06686 1.71529 1.64729 2.24683C1.22773 2.77837 1.00078 3.42312 1 4.08571C1 7.17143 7 11.8 7 11.8C7 11.8 13 7.17143 13 4.08571C13 3.26733 12.6552 2.48247 12.0414 1.90378C11.4277 1.3251 10.5953 1 9.72727 1Z" fill="white" stroke="white" stroke-width="1.33" stroke-miterlimit="10" stroke-linecap="square"/>
</svg>
