<svg width="14" height="18" viewBox="0 0 14 18" fill="none" xmlns="http://www.w3.org/2000/svg">
<path d="M6.56121 17.7652C6.65902 17.9119 6.82369 18 7 18C7.17631 18 7.34098 17.9119 7.43878 17.7652C8.6868 15.8932 10.525 13.5813 11.806 11.23C12.8302 9.34998 13.3281 7.74654 13.3281 6.32812C13.3281 2.8388 10.4893 0 7 0C3.51067 0 0.671875 2.8388 0.671875 6.32812C0.671875 7.74654 1.16979 9.34998 2.19404 11.23C3.47404 13.5795 5.31577 15.8971 6.56121 17.7652ZM7 1.05469C9.90777 1.05469 12.2734 3.42035 12.2734 6.32812C12.2734 7.56577 11.8176 9.00415 10.8798 10.7254C9.77566 12.7522 8.20002 14.8081 7 16.5364C5.80015 14.8083 4.22441 12.7523 3.12019 10.7254C2.18243 9.00415 1.72656 7.56577 1.72656 6.32812C1.72656 3.42035 4.09223 1.05469 7 1.05469Z" fill="#0E0E2B"/>
<path d="M7 9.49219C8.74466 9.49219 10.1641 8.07279 10.1641 6.32812C10.1641 4.58346 8.74466 3.16406 7 3.16406C5.25534 3.16406 3.83594 4.58346 3.83594 6.32812C3.83594 8.07279 5.25534 9.49219 7 9.49219ZM7 4.21875C8.16311 4.21875 9.10938 5.16502 9.10938 6.32812C9.10938 7.49123 8.16311 8.4375 7 8.4375C5.83689 8.4375 4.89062 7.49123 4.89062 6.32812C4.89062 5.16502 5.83689 4.21875 7 4.21875Z" fill="#0E0E2B"/>
</svg>
