<svg width="24" height="24" viewBox="0 0 24 24" fill="none" xmlns="http://www.w3.org/2000/svg">
<path d="M14.671 6.4897H22.0347M4.03467 6.4897H6.48921M6.48921 6.4897C6.48921 7.84531 7.58815 8.94425 8.94376 8.94425C10.2994 8.94425 11.3983 7.84531 11.3983 6.4897C11.3983 5.13409 10.2994 4.03516 8.94376 4.03516C7.58815 4.03516 6.48921 5.13409 6.48921 6.4897ZM21.2165 13.0352H22.0347M4.03467 13.0352H13.0347M13.0347 13.0352C13.0347 14.3908 14.1336 15.4897 15.4892 15.4897C16.8448 15.4897 17.9438 14.3908 17.9438 13.0352C17.9438 11.6795 16.8448 10.5806 15.4892 10.5806C14.1336 10.5806 13.0347 11.6795 13.0347 13.0352ZM14.671 19.5806H22.0347M4.03467 19.5806H6.48921M6.48921 19.5806C6.48921 20.9362 7.58815 22.0352 8.94376 22.0352C10.2994 22.0352 11.3983 20.9362 11.3983 19.5806C11.3983 18.225 10.2994 17.1261 8.94376 17.1261C7.58815 17.1261 6.48921 18.225 6.48921 19.5806Z" stroke="#0E0E2B" stroke-width="1.33" stroke-miterlimit="10" stroke-linecap="square"/>
</svg>
