<svg width="16" height="16" viewBox="0 0 16 16" fill="none" xmlns="http://www.w3.org/2000/svg">
<path d="M14 8C14 7.71067 13.8851 7.4332 13.6805 7.22861C13.4759 7.02402 13.1984 6.90909 12.9091 6.90909H12.2218C12.1186 6.51536 11.9627 6.1374 11.7582 5.78546L12.2436 5.29999C12.345 5.19864 12.4254 5.07831 12.4802 4.94588C12.5351 4.81346 12.5633 4.67153 12.5633 4.52819C12.5633 4.38485 12.5351 4.2429 12.4802 4.11047C12.4254 3.97804 12.345 3.85772 12.2436 3.75636C12.1423 3.65501 12.022 3.57461 11.8895 3.51976C11.7571 3.46491 11.6152 3.43666 11.4718 3.43666C11.3285 3.43666 11.1865 3.46491 11.0541 3.51976C10.9217 3.57461 10.8014 3.65501 10.7 3.75636L10.2145 4.24181C9.8626 4.03734 9.48464 3.88139 9.09091 3.77819V3.09091C9.09091 2.80158 8.97598 2.5241 8.77139 2.31952C8.56681 2.11493 8.28933 2 8 2C7.71067 2 7.4332 2.11493 7.22861 2.31952C7.02402 2.5241 6.90909 2.80158 6.90909 3.09091V3.77819C6.51536 3.88139 6.1374 4.03734 5.78546 4.24181L5.29999 3.75636C5.19864 3.65501 5.07831 3.57461 4.94588 3.51976C4.81346 3.4649 4.67153 3.43666 4.52819 3.43666C4.38485 3.43666 4.2429 3.46491 4.11047 3.51976C3.97804 3.57461 3.85772 3.65501 3.75636 3.75636C3.65501 3.85772 3.5746 3.97804 3.51975 4.11047C3.4649 4.2429 3.43666 4.38485 3.43666 4.52819C3.43666 4.67153 3.4649 4.81346 3.51975 4.94588C3.5746 5.07831 3.65501 5.19864 3.75636 5.29999L4.24181 5.78546C4.03734 6.1374 3.88139 6.51536 3.77819 6.90909H3.09091C2.80158 6.90909 2.5241 7.02402 2.31952 7.22861C2.11493 7.4332 2 7.71067 2 8C2 8.28933 2.11493 8.56681 2.31952 8.77139C2.5241 8.97598 2.80158 9.09091 3.09091 9.09091H3.77819C3.88139 9.48464 4.03734 9.8626 4.24181 10.2145L3.75636 10.7C3.65501 10.8014 3.5746 10.9217 3.51975 11.0541C3.4649 11.1865 3.43666 11.3285 3.43666 11.4718C3.43666 11.6152 3.4649 11.7571 3.51975 11.8895C3.5746 12.022 3.65501 12.1423 3.75636 12.2436C3.85772 12.345 3.97804 12.4254 4.11047 12.4803C4.2429 12.5351 4.38485 12.5633 4.52819 12.5633C4.67153 12.5633 4.81346 12.5351 4.94588 12.4803C5.07831 12.4254 5.19864 12.345 5.29999 12.2436L5.78546 11.7582C6.1374 11.9627 6.51536 12.1186 6.90909 12.2218V12.9091C6.90909 13.1984 7.02402 13.4759 7.22861 13.6805C7.4332 13.885 7.71067 14 8 14C8.28933 14 8.56681 13.885 8.77139 13.6805C8.97598 13.4759 9.09091 13.1984 9.09091 12.9091V12.2218C9.48464 12.1186 9.8626 11.9627 10.2145 11.7582L10.7 12.2436C10.9047 12.4483 11.1823 12.5633 11.4718 12.5633C11.7613 12.5633 12.0389 12.4483 12.2436 12.2436C12.4483 12.0389 12.5633 11.7613 12.5633 11.4718C12.5633 11.1823 12.4483 10.9047 12.2436 10.7L11.7582 10.2145C11.9627 9.8626 12.1186 9.48464 12.2218 9.09091H12.9091C13.1984 9.09091 13.4759 8.97598 13.6805 8.77139C13.8851 8.56681 14 8.28933 14 8Z" stroke="#0E0E2B" stroke-width="1.33" stroke-miterlimit="10" stroke-linecap="square"/>
<path d="M8 9.63636C8.90374 9.63636 9.63636 8.90374 9.63636 8C9.63636 7.09626 8.90374 6.36364 8 6.36364C7.09626 6.36364 6.36364 7.09626 6.36364 8C6.36364 8.90374 7.09626 9.63636 8 9.63636Z" stroke="#0E0E2B" stroke-width="1.33" stroke-miterlimit="10" stroke-linecap="square"/>
</svg>
