<svg width="16" height="16" viewBox="0 0 16 16" fill="none" xmlns="http://www.w3.org/2000/svg">
<path d="M5.9328 3.68272L6.21883 4.09283L6.22009 4.09195L5.9328 3.68272ZM10.194 3.82645L9.87454 4.21113L9.87499 4.2115L10.194 3.82645ZM13.9561 10.0159L14.4489 9.93163L14.4486 9.93007L13.9561 10.0159ZM11.8927 13.3576L11.7305 12.8846L11.7254 12.8864L11.8927 13.3576ZM4.29168 13.4025L4.44168 12.9256L4.43889 12.9247L4.29168 13.4025ZM2.41064 12.0101L1.98387 12.2707L1.98499 12.2725L2.41064 12.0101ZM2.02675 10.0159L2.52346 10.0732L2.52387 10.0694L2.02675 10.0159ZM8.45608 6.06921L8.45609 5.56921L7.45609 5.5692L7.45608 6.0692L8.45608 6.06921ZM7.45605 9.12476L7.45605 9.62476L8.45605 9.62477L8.45605 9.12477L7.45605 9.12476ZM8.45608 10.9581L8.45608 10.4581L7.45608 10.4581L7.45608 10.9581L8.45608 10.9581ZM7.45608 11.5692L7.45608 12.0692L8.45608 12.0692L8.45608 11.5692L7.45608 11.5692ZM6.22009 4.09195C6.73164 3.73283 7.32431 3.5 7.96741 3.5V2.5C7.07495 2.5 6.28563 2.82412 5.64552 3.27349L6.22009 4.09195ZM7.96741 3.5C8.69886 3.5 9.35646 3.78094 9.87454 4.21113L10.5134 3.44178C9.84139 2.88381 8.96345 2.5 7.96741 2.5V3.5ZM9.87499 4.2115C11.7205 5.7403 13.0556 7.76039 13.4635 10.1017L14.4486 9.93007C13.9927 7.31263 12.5063 5.09265 10.5129 3.4414L9.87499 4.2115ZM13.4632 10.1001C13.5596 10.6642 13.471 11.2489 13.1466 11.7746L13.9977 12.2996C14.4604 11.5497 14.5828 10.715 14.4489 9.93163L13.4632 10.1001ZM13.1466 11.7746C12.8194 12.305 12.3126 12.6851 11.7305 12.8846L12.0548 13.8306C12.8355 13.563 13.538 13.0448 13.9977 12.2996L13.1466 11.7746ZM11.7254 12.8864C9.33676 13.7345 6.78123 13.6613 4.44168 12.9256L4.14169 13.8795C6.65831 14.6709 9.43882 14.7594 12.0599 13.8288L11.7254 12.8864ZM4.43889 12.9247C3.77168 12.7192 3.19208 12.3251 2.83628 11.7478L1.98499 12.2725C2.49293 13.0966 3.29533 13.6188 4.14448 13.8804L4.43889 12.9247ZM2.83739 11.7496C2.52779 11.2425 2.45538 10.6626 2.52344 10.0732L1.53005 9.95851C1.44456 10.6987 1.52571 11.5202 1.98388 12.2707L2.83739 11.7496ZM2.52387 10.0694C2.63365 9.05008 3.08597 7.87946 3.76074 6.789C4.43445 5.70026 5.30682 4.72889 6.21883 4.09283L5.64678 3.27261C4.60096 4.00199 3.64027 5.08328 2.91038 6.2628C2.18157 7.4406 1.65977 8.75383 1.52962 9.96234L2.52387 10.0694ZM7.45608 6.0692L7.45605 9.12476L8.45605 9.12477L8.45608 6.06921L7.45608 6.0692ZM7.45608 10.9581L7.45608 11.5692L8.45608 11.5692L8.45608 10.9581L7.45608 10.9581Z" fill="#F9A51A"/>
</svg>
